<svg width="327" height="575" viewBox="0 0 327 575" fill="none" xmlns="http://www.w3.org/2000/svg">
  <path d="M494.119 -1.305L508 -32.169L429.784 -71.172L429.837 -166.603H397.404L397.351 -87.341L220.775 -175.398C184.467 -193.507 142.772 -193.534 106.437 -175.48L-62.92 -91.356L-62.867 -173.186H-95.3L-95.379 -75.241L-181 -32.688L-167.146 -1.797L-95.406 -37.44L-95.539 151.812C-95.539 153.259 -95.565 154.707 -95.645 156.182C-96.096 167.052 -95.698 204.526 -72.209 230.364C-57.532 246.506 -37.255 254.7 -11.988 254.727H-11.908C24.718 254.727 79.551 231.893 128.201 207.148C149.619 196.25 174.621 196.714 195.827 208.076C248.431 236.263 298.089 254.973 345.915 255H345.995C371.235 255 391.486 246.833 406.163 230.719C429.705 204.908 430.129 167.435 429.705 156.591C429.652 155.144 429.625 153.669 429.625 152.221L429.758 -33.371L494.119 -1.278V-1.305Z" fill="#FFF5E3"/>
  <path d="M494.119 318.695L508 287.831L429.784 248.828L429.837 153.397H397.404L397.351 232.659L220.775 144.602C184.467 126.493 142.772 126.466 106.437 144.52L-62.92 228.644L-62.867 146.814H-95.3L-95.379 244.759L-181 287.312L-167.146 318.203L-95.406 282.56L-95.539 471.812C-95.539 473.259 -95.565 474.707 -95.645 476.182C-96.096 487.052 -95.698 524.526 -72.209 550.364C-57.532 566.506 -37.255 574.7 -11.988 574.727H-11.908C24.718 574.727 79.551 551.893 128.201 527.148C149.619 516.25 174.621 516.714 195.827 528.076C248.431 556.263 298.089 574.973 345.915 575H345.995C371.235 575 391.486 566.833 406.163 550.719C429.705 524.908 430.129 487.435 429.705 476.591C429.652 475.144 429.625 473.669 429.625 472.221L429.758 286.629L494.119 318.722V318.695Z" fill="#FFF5E3"/>
</svg>
