<svg width="1419" height="1512" viewBox="0 0 1419 1512" fill="none" xmlns="http://www.w3.org/2000/svg">
  <path d="M1861.65 166.498L1910 79.676L1637.55 -30.042L1637.73 -298.497H1524.76L1524.58 -75.527L909.51 -323.237C783.04 -374.177 637.8 -374.254 511.23 -323.467L-78.69 -86.821L-78.505 -317.014H-191.479L-191.757 -41.49L-490 78.216L-441.741 165.115L-191.849 64.847L-192.311 597.224C-192.311 601.296 -192.404 605.369 -192.681 609.518C-194.253 640.1 -192.866 745.51 -111.048 818.2C-59.923 863.6 10.709 886.65 98.721 886.73H98.998C226.579 886.73 417.581 822.5 587.04 752.89C661.65 722.23 748.74 723.54 822.6 755.5C1005.84 834.79 1178.81 887.42 1345.41 887.5H1345.69C1433.61 887.5 1504.14 864.53 1555.27 819.2C1637.27 746.59 1638.75 641.17 1637.27 610.67C1637.09 606.598 1637 602.449 1637 598.377L1637.46 76.295L1861.65 166.574V166.498Z" fill="#FFF5E3"/>
  <path d="M1861.65 790.998L1910 704.176L1637.55 594.458L1637.73 326.003H1524.76L1524.58 548.973L909.51 301.263C783.04 250.323 637.8 250.246 511.23 301.032L-78.69 537.679L-78.505 307.487H-191.479L-191.757 583.01L-490 702.716L-441.741 789.615L-191.849 689.347L-192.311 1221.72C-192.311 1225.8 -192.404 1229.87 -192.681 1234.02C-194.253 1264.6 -192.866 1370.01 -111.048 1442.7C-59.923 1488.1 10.709 1511.15 98.721 1511.23H98.998C226.579 1511.23 417.581 1447 587.04 1377.39C661.65 1346.73 748.74 1348.04 822.6 1380C1005.84 1459.29 1178.81 1511.92 1345.41 1512H1345.69C1433.61 1512 1504.14 1489.03 1555.27 1443.7C1637.27 1371.09 1638.75 1265.67 1637.27 1235.17C1637.09 1231.1 1637 1226.95 1637 1222.88L1637.46 700.795L1861.65 791.074V790.998Z" fill="#FFF5E3"/>
</svg>
