<svg width="831" height="1377" viewBox="0 0 831 1377" fill="none" xmlns="http://www.w3.org/2000/svg">
  <!-- 上部の波形 -->
  <path d="M1283.58 124.911L1320 43.859L1114.75 -58.568L1114.89 -309.183H1029.79L1029.65 -101.031L566.3 -332.28C471.02 -379.835 361.607 -379.907 266.262 -332.495L-178.147 -111.575L-178.007 -326.47H-263.114L-263.323 -69.255L-488 42.496L-451.645 123.619L-263.393 30.015L-263.741 527.014C-263.741 530.816 -263.811 534.617 -264.02 538.49C-265.204 567.038 -264.159 665.45 -202.523 733.3C-164.009 775.69 -110.799 797.21 -44.497 797.28H-44.288C51.823 797.28 195.711 737.32 323.371 672.33C379.575 643.71 445.181 644.93 500.828 674.77C638.87 748.8 769.17 797.93 894.67 798H894.88C961.12 798 1014.26 776.55 1052.77 734.23C1114.55 666.45 1115.66 568.042 1114.55 539.566C1114.41 535.765 1114.34 531.892 1114.34 528.09L1114.68 40.703L1283.58 124.982V124.911Z" fill="#FFF5E3"/>
  
  <!-- 下部の波形 -->
  <path d="M1283.58 707.911L1320 626.859L1114.75 524.432L1114.89 273.817H1029.79L1029.65 481.969L566.3 250.72C471.02 203.165 361.607 203.093 266.262 250.505L-178.147 471.425L-178.007 256.53H-263.114L-263.323 513.745L-488 625.496L-451.645 706.619L-263.393 613.015L-263.741 1110.01C-263.741 1113.82 -263.811 1117.62 -264.02 1121.49C-265.204 1150.04 -264.159 1248.45 -202.523 1316.3C-164.009 1358.69 -110.799 1380.21 -44.497 1380.28H-44.288C51.823 1380.28 195.711 1320.32 323.371 1255.33C379.575 1226.71 445.181 1227.93 500.828 1257.77C638.87 1331.8 769.17 1380.93 894.67 1381H894.88C961.12 1381 1014.26 1359.55 1052.77 1317.23C1114.55 1249.45 1115.66 1151.04 1114.55 1122.57C1114.41 1118.76 1114.34 1114.89 1114.34 1111.09L1114.68 623.703L1283.58 707.982V707.911Z" fill="#FFF5E3"/>
</svg>
