<svg width="1512" height="262" viewBox="0 0 1512 262" fill="none" xmlns="http://www.w3.org/2000/svg">
<mask id="mask0_6998_540" style="mask-type:alpha" maskUnits="userSpaceOnUse" x="0" y="0" width="1512" height="262">
<rect width="1512" height="262" fill="#D9D9D9"/>
</mask>
<g mask="url(#mask0_6998_540)">
<path d="M1908.65 527.998L1957 441.176L1684.55 331.458L1684.73 63.0033H1571.76L1571.58 285.973L956.51 38.263C830.04 -12.6774 684.8 -12.7542 558.23 38.0325L-31.69 274.679L-31.505 44.4865H-144.479L-144.757 320.01L-443 439.716L-394.741 526.615L-144.849 426.347L-145.311 958.724C-145.311 962.796 -145.404 966.869 -145.681 971.018C-147.253 1001.6 -145.866 1107.01 -64.048 1179.7C-12.923 1225.1 57.709 1248.15 145.721 1248.23H145.998C273.579 1248.23 464.581 1184 634.04 1114.39C708.65 1083.73 795.74 1085.04 869.6 1117C1052.84 1196.29 1225.81 1248.92 1392.41 1249H1392.69C1480.61 1249 1551.14 1226.03 1602.27 1180.7C1684.27 1108.09 1685.75 1002.67 1684.27 972.17C1684.09 968.098 1684 963.949 1684 959.877L1684.46 437.795L1908.65 528.074V527.998Z" fill="#FFF5E3"/>
<path d="M1908.65 1152.5L1957 1065.68L1684.55 955.958L1684.73 687.503H1571.76L1571.58 910.473L956.51 662.763C830.04 611.823 684.8 611.746 558.23 662.532L-31.69 899.179L-31.505 668.987H-144.479L-144.757 944.51L-443 1064.22L-394.741 1151.11L-144.849 1050.85L-145.311 1583.22C-145.311 1587.3 -145.404 1591.37 -145.681 1595.52C-147.253 1626.1 -145.866 1731.51 -64.048 1804.2C-12.923 1849.6 57.709 1872.65 145.721 1872.73H145.998C273.579 1872.73 464.581 1808.5 634.04 1738.89C708.65 1708.23 795.74 1709.54 869.6 1741.5C1052.84 1820.79 1225.81 1873.42 1392.41 1873.5H1392.69C1480.61 1873.5 1551.14 1850.53 1602.27 1805.2C1684.27 1732.59 1685.75 1627.17 1684.27 1596.67C1684.09 1592.6 1684 1588.45 1684 1584.38L1684.46 1062.3L1908.65 1152.57V1152.5Z" fill="#FFF5E3"/>
</g>
</svg>
