<svg width="1004" height="211" viewBox="0 0 1004 211" fill="none" xmlns="http://www.w3.org/2000/svg">
<mask id="mask0_6998_534" style="mask-type:alpha" maskUnits="userSpaceOnUse" x="0" y="0" width="1004" height="211">
<rect width="1004" height="211" fill="#D9D9D9"/>
</mask>
<g mask="url(#mask0_6998_534)">
<path d="M1370.58 492.911L1407 411.859L1201.75 309.432L1201.89 58.8165H1116.79L1116.65 266.969L653.3 35.7203C558.02 -11.8349 448.607 -11.9067 353.262 35.5051L-91.147 256.425L-91.007 41.5302H-176.114L-176.323 298.745L-401 410.496L-364.645 491.619L-176.393 398.015L-176.741 895.014C-176.741 898.816 -176.811 902.617 -177.02 906.49C-178.204 935.038 -177.159 1033.45 -115.523 1101.3C-77.009 1143.69 -23.799 1165.21 42.503 1165.28H42.712C138.823 1165.28 282.711 1105.32 410.371 1040.33C466.575 1011.71 532.181 1012.93 587.828 1042.77C725.87 1116.8 856.17 1165.93 981.67 1166H981.88C1048.12 1166 1101.26 1144.55 1139.77 1102.23C1201.55 1034.45 1202.66 936.042 1201.55 907.566C1201.41 903.765 1201.34 899.892 1201.34 896.09L1201.68 408.703L1370.58 492.982V492.911Z" fill="#FFF5E3"/>
<path d="M1370.58 1075.91L1407 994.859L1201.75 892.432L1201.89 641.817H1116.79L1116.65 849.969L653.3 618.72C558.02 571.165 448.607 571.093 353.262 618.505L-91.147 839.425L-91.007 624.53H-176.114L-176.323 881.745L-401 993.496L-364.645 1074.62L-176.393 981.015L-176.741 1478.01C-176.741 1481.82 -176.811 1485.62 -177.02 1489.49C-178.204 1518.04 -177.159 1616.45 -115.523 1684.3C-77.009 1726.69 -23.799 1748.21 42.503 1748.28H42.712C138.823 1748.28 282.711 1688.32 410.371 1623.33C466.575 1594.71 532.181 1595.93 587.828 1625.77C725.87 1699.8 856.17 1748.93 981.67 1749H981.88C1048.12 1749 1101.26 1727.55 1139.77 1685.23C1201.55 1617.45 1202.66 1519.04 1201.55 1490.57C1201.41 1486.76 1201.34 1482.89 1201.34 1479.09L1201.68 991.703L1370.58 1075.98V1075.91Z" fill="#FFF5E3"/>
</g>
</svg>
