<svg width="398" height="84" viewBox="0 0 398 84" fill="none" xmlns="http://www.w3.org/2000/svg">
<mask id="mask0_6996_531" style="mask-type:alpha" maskUnits="userSpaceOnUse" x="0" y="0" width="398" height="84">
<rect width="398" height="84" fill="#D9D9D9"/>
</mask>
<g mask="url(#mask0_6996_531)">
<path d="M530.119 187.695L544 156.831L465.784 117.828L465.837 22.3967H433.404L433.351 101.659L256.775 13.6019C220.467 -4.50661 178.772 -4.53393 142.437 13.52L-26.92 97.644L-26.867 15.8143H-59.2997L-59.3793 113.759L-145 156.312L-131.146 187.203L-59.4058 151.56L-59.5385 340.812C-59.5385 342.259 -59.5651 343.707 -59.6447 345.182C-60.0959 356.052 -59.6978 393.526 -36.209 419.364C-21.532 435.506 -1.255 443.7 24.012 443.727H24.092C60.718 443.727 115.551 420.893 164.201 396.148C185.619 385.25 210.621 385.714 231.827 397.076C284.431 425.263 334.089 443.973 381.915 444H381.995C407.235 444 427.486 435.833 442.163 419.719C465.705 393.908 466.129 356.435 465.705 345.591C465.652 344.144 465.625 342.669 465.625 341.221L465.758 155.629L530.119 187.722V187.695Z" fill="#FFF5E3"/>
</g>
</svg>
