<svg width="260" height="260" viewBox="0 0 260 260" fill="none" xmlns="http://www.w3.org/2000/svg">
<circle cx="130.722" cy="130.722" r="97.5" fill="#FFC3AA"/>
<g clip-path="url(#clip0_5423_1570)">
<path d="M94.4206 124.664C94.2574 124.745 94.0687 124.617 94.084 124.436C94.1751 123.357 94.4448 120.399 94.8135 118.456C95.2715 116.042 96.0728 113.876 96.0728 113.876L96.7978 114.086C96.7978 114.086 95.9945 117.974 95.7993 119.283C95.6291 120.424 95.3096 123.871 95.3096 123.871C94.797 124.216 94.4205 124.664 94.4205 124.664L94.4206 124.664ZM106.562 88.8526C107.06 88.9609 107.279 89.2042 107.344 89.7204C107.388 90.0639 107.433 90.4073 107.477 90.7507C107.595 91.6498 107.717 92.5796 107.806 93.4947C107.884 94.2933 108.202 94.9295 108.751 95.3858C109.329 95.8663 109.82 96.2134 110.296 96.4779C110.971 96.8528 111.659 97.04 112.357 97.04C113.184 97.04 114.024 96.7766 114.871 96.2502C115.466 95.8801 115.72 95.401 115.646 94.7853C115.604 94.443 115.566 94.0935 115.53 93.7557C115.473 93.2352 115.415 92.6969 115.343 92.1677C115.289 91.7692 115.436 91.6452 115.692 91.5742C115.982 91.4936 116.283 91.422 116.574 91.3529C116.767 91.3076 116.959 91.2609 117.151 91.2127C118.395 90.8968 118.687 90.4907 118.571 89.2378C118.49 88.3728 118.545 87.8038 119.063 87.2749C120.073 86.2448 120.062 85.7774 119.28 84.8805C119.206 84.7951 118.679 84.1269 118.594 83.9825C118.381 83.6205 118.18 83.2785 118.088 82.9181C117.92 82.2557 117.856 81.543 117.794 80.8538C117.784 80.7427 117.774 80.6315 117.764 80.5207C117.735 80.2098 117.669 79.8641 117.402 79.6575C117.205 79.5048 116.94 79.4579 116.592 79.5141L116.42 79.5419C116.42 79.5419 116.296 79.9622 116.276 80.043C115.97 81.3227 114.99 82.0951 113.837 81.9651C113.174 81.8903 113.046 82.4312 112.978 82.7219C112.613 84.2739 111.628 85.2356 109.966 85.6621C108.599 86.0129 107.264 85.8083 105.851 85.5917L105.794 85.583C105.209 85.4932 104.872 85.7203 104.735 86.2976C104.595 86.8876 104.664 87.4268 104.934 87.857C105.245 88.3503 105.792 88.6852 106.562 88.8526H106.562ZM103.438 203.033C103.093 202.836 102.749 202.637 102.405 202.437C100.939 201.588 99.424 200.71 97.844 200.034C96.5679 199.487 95.2215 199.065 93.9195 198.656C93.1471 198.413 92.3484 198.162 91.576 197.889C90.6352 197.557 89.7886 197.386 88.7144 197.636C85.439 198.397 82.3061 198.027 79.4029 196.536L79.1304 196.396C79.1304 196.396 78.8313 196.901 78.8279 197.235C78.8142 198.575 78.8816 199.726 79.3129 200.764C79.7269 201.76 80.3777 202.953 81.7475 203.336C83.1589 203.729 84.5966 203.929 85.6914 204.059C86.4791 204.153 87.2817 204.19 88.0578 204.225C88.6038 204.25 89.1683 204.276 89.7191 204.322C90.8617 204.416 92.0231 204.524 93.1462 204.629C94.3592 204.742 95.6134 204.859 96.8491 204.959C98.1608 205.065 99.5498 205.142 101.22 205.203C101.371 205.209 101.517 205.212 101.659 205.212C102.217 205.212 102.711 205.169 103.158 205.082C103.513 205.014 104.059 204.595 104.062 204.209C104.065 203.815 103.815 203.248 103.438 203.033ZM151.34 200.682C151.156 200.559 150.973 200.434 150.789 200.309C150.203 199.909 149.597 199.494 148.953 199.16C145.247 197.237 141.263 195.821 137.111 194.954C136.496 194.825 136.146 195.065 135.885 195.316C134.676 196.479 133.119 197.104 130.836 197.342C130.11 197.418 129.375 197.399 128.597 197.38C128.241 197.371 127.874 197.361 127.501 197.361H127.184L127.229 197.675C127.246 197.787 127.26 197.882 127.273 197.967C127.295 198.119 127.313 198.236 127.328 198.353C127.574 200.27 128.343 201.095 130.164 201.399C131.776 201.668 133.176 201.801 134.444 201.806C136.598 201.815 138.771 202.057 140.873 202.292C141.704 202.384 142.563 202.48 143.41 202.56C145.498 202.758 147.636 202.844 149.521 202.921C149.587 202.923 149.652 202.925 149.718 202.924C150.337 202.924 150.947 202.813 151.421 202.712C151.768 202.638 152.016 202.448 152.118 202.178C152.225 201.894 152.157 201.565 151.926 201.253C151.753 201.02 151.55 200.822 151.34 200.682H151.34ZM174.262 120.337C173.295 120.127 172.314 119.912 171.363 119.718C170.48 119.539 169.567 119.353 168.676 119.149C167.651 118.913 166.84 118.656 166.123 118.339C165.94 118.259 165.712 118.119 165.664 117.912C165.623 117.729 165.722 117.485 165.944 117.224C166.141 116.993 166.39 116.777 166.686 116.58C167.109 116.298 167.547 116.019 167.971 115.749C168.493 115.416 169.033 115.072 169.555 114.717C170.019 114.401 170.903 113.937 170.941 113.113C170.941 113.113 170.825 112.309 170.559 112.407C169.973 112.622 168.157 113.631 167.638 113.918C166.874 114.341 166.121 114.805 165.392 115.254C164.775 115.634 163.47 116.279 162.832 116.643C162.832 116.643 162.921 117 162.949 117.435C163.041 118.809 162.82 119.972 162.274 120.988C161.992 121.515 161.664 122.01 161.317 122.534C161.163 122.765 161.004 123.005 160.85 123.247L160.669 123.532L160.984 123.652C161.109 123.699 161.235 123.748 161.362 123.797C161.642 123.906 161.932 124.018 162.226 124.122C162.849 124.341 163.471 124.563 164.093 124.785C165.779 125.387 167.523 126.009 169.258 126.568C169.932 126.785 171.677 127.41 172.766 127.073C172.931 127.022 173.046 126.933 173.097 126.679C173.147 126.425 172.375 126.018 172.26 125.968C172.074 125.888 171.889 125.808 171.704 125.727C171.093 125.461 170.462 125.185 169.821 124.956C169.241 124.748 168.647 124.553 168.073 124.365C167.292 124.109 166.484 123.845 165.709 123.546C165.448 123.445 165.21 123.235 164.96 123.011C165.151 123.049 165.342 123.087 165.533 123.124C166.31 123.277 167.115 123.435 167.897 123.617C168.28 123.706 168.67 123.804 169.047 123.899C170.521 124.27 172.044 124.654 173.631 124.611C174.081 124.599 174.639 124.581 175.071 124.513C175.263 124.483 176.498 124.251 175.561 123.621C175.48 123.566 174.74 123.305 174.475 123.222C173.734 122.99 172.968 122.751 172.2 122.56C171.434 122.37 170.651 122.198 169.894 122.032C169.11 121.86 168.299 121.682 167.509 121.484C167.067 121.374 166.645 121.204 166.197 121.024C166.121 120.994 166.044 120.963 165.967 120.932C166.169 120.85 166.358 120.775 166.523 120.781C167.411 120.809 168.417 120.84 169.353 121.031C170.158 121.195 170.97 121.411 171.755 121.619C172.425 121.797 173.117 121.981 173.807 122.134C174.766 122.346 176.302 122.303 176.506 121.922C176.709 121.54 176.475 121.318 176.35 121.174C175.981 120.749 175.997 120.713 174.262 120.337ZM68.5729 140.137C68.5335 140.414 68.2838 140.589 67.9615 140.79C67.5241 141.061 64.0366 143.174 63.2783 143.549C62.8865 143.744 62.4632 143.884 62.0063 143.973C61.4325 144.084 60.9054 144.14 60.4146 144.14C59.6876 144.14 59.0398 144.017 58.4355 143.77C57.6136 143.433 57.1236 142.935 56.9373 142.248L56.8434 141.902C56.8434 141.902 56.5914 141.042 56.4062 140.814C56.0468 140.371 55.8798 139.811 55.9481 139.278L55.985 138.991C55.985 138.991 56.0124 138.205 55.8575 137.886C55.6527 137.463 55.6494 136.966 55.8481 136.486C56.0216 136.066 56.3884 135.703 56.7948 135.527C55.4431 134.378 56.3259 133.778 56.7724 133.591C56.9855 133.502 57.2231 133.467 57.4432 133.404C57.9354 133.263 58.4444 133.117 58.9611 133.024C60.96 132.663 62.9339 132.98 64.7842 133.335C65.0187 133.38 65.3872 133.637 65.4308 133.936C65.7075 135.837 66.5955 137.598 68.1455 139.318C68.4291 139.633 68.6121 139.86 68.5729 140.137V140.137ZM124.862 134.64C124.753 134.64 124.642 134.635 124.526 134.629C124.261 134.616 123.987 134.603 123.713 134.654C121.295 135.108 119.443 135.28 117.706 135.214C117.019 135.188 116.332 135.162 115.645 135.137C112.391 135.018 109.026 134.895 105.727 134.657C102.559 134.43 100.039 134.004 97.7957 133.317C97.6562 133.275 97.2839 133.237 97.2323 133.23C97.2323 133.23 97.0581 133.204 96.9998 133.197C96.8926 133.184 96.6833 133.157 96.5879 133.491C96.4925 133.825 96.6839 133.877 96.7796 133.916C96.8383 133.94 97.2054 134.084 97.3006 134.122C97.5046 134.202 97.7082 134.283 97.9112 134.365C101.165 135.69 104.577 136.36 108.068 136.36C108.368 136.36 108.669 136.355 108.97 136.345C110.211 136.304 111.478 136.317 112.703 136.33C113.48 136.339 114.284 136.347 115.076 136.342C115.54 136.339 116.004 136.337 116.467 136.336C118.238 136.331 120.068 136.326 121.866 136.217C122.604 136.172 123.326 135.956 124.025 135.747C124.333 135.655 124.65 135.56 124.961 135.483C125.025 135.467 125.082 135.428 125.12 135.373C125.158 135.319 125.175 135.253 125.167 135.187L125.135 134.885C125.127 134.818 125.095 134.755 125.045 134.71C124.995 134.665 124.929 134.64 124.862 134.64H124.862Z" fill="white"/>
<path d="M96.2233 114.529C95.9031 115.677 95.5151 116.812 95.3032 117.979C94.9665 119.833 94.7262 121.706 94.5238 123.58C94.4547 124.22 94.4208 124.663 94.4208 124.663C90.8077 128.787 86.1367 132.93 81.9476 136.434C79.429 138.54 76.567 140.109 73.3688 140.927C72.2286 141.219 70.9775 141.369 69.8232 141.222C68.9015 141.104 68.3541 141.464 67.7306 141.905C65.658 143.372 63.4621 144.589 60.943 145.086C60.331 145.207 59.663 145.23 59.0505 145.125C57.5035 144.86 56.4538 143.993 56.0776 142.397C55.997 142.055 55.8085 141.704 55.5769 141.438C54.8621 140.618 54.6551 139.724 55.001 138.69C55.0596 138.515 55.087 138.295 55.0365 138.123C54.6885 136.936 54.6679 135.832 55.7312 134.979C55.447 134.251 55.7014 133.68 56.4981 133.301C57.8508 132.657 59.2775 132.216 60.7626 132.067C61.7742 131.965 62.8067 132.091 63.8258 132.037C64.618 131.995 65.3506 131.96 65.9027 131.076C66.5963 129.967 67.5061 128.95 68.4822 128.07C71.1627 125.653 73.9512 123.356 76.6514 120.96C80.3602 117.669 83.6968 114.031 86.4445 109.894C87.6114 108.137 88.5915 106.257 89.6735 104.443C91.3826 101.578 93.5812 99.1384 96.2788 97.1876C98.2332 95.7742 100.474 94.9037 102.775 94.2207C104.13 93.8183 105.514 93.5095 106.96 93.1393L106.693 91.1721C105.982 91.2942 105.296 91.4968 104.605 91.5152C102.324 91.5759 101.094 90.7173 100.34 88.5466C99.7221 86.7662 99.8705 84.9839 100.503 83.1845C99.0473 82.3543 98.5396 81.0347 98.6581 79.4083C98.7814 77.7169 99.6136 76.6131 101.216 76.2574C101.11 75.2946 101.135 74.5725 101.339 73.7682C101.859 71.7173 103.725 70.5323 105.727 71.1638C105.852 71.2031 106.423 71.5276 106.509 71.5565C106.937 71.7001 107.314 71.5909 107.756 71.2824C108.167 70.9952 108.78 71.0085 109.289 70.8442C109.601 70.7433 109.938 70.6166 110.176 70.4039C111.546 68.7502 114.513 67.9531 116.46 70.1876C116.908 70.7019 117.181 71.5741 116.973 72.6191C116.973 72.6191 117.447 72.4967 117.754 72.4772C118.806 72.4102 119.96 73.1453 120.45 74.0672C120.944 74.9942 121.168 75.6311 121.048 76.7002C120.905 77.9692 120.093 79.0598 118.877 79.4787C118.677 79.5477 118.262 79.7022 118.262 79.7022C118.262 79.7022 118.612 81.6864 118.734 82.3098C118.882 83.0596 119.178 83.7291 119.734 84.2764C119.986 84.5242 120.22 84.7978 120.42 85.0883C120.771 85.5962 120.733 85.9917 120.335 86.4633C120.142 86.6917 119.929 86.9047 119.751 87.1443C119.39 87.6315 119.257 88.1705 119.363 88.7836C119.588 90.0931 119.324 90.6299 118.153 91.2396C117.691 91.4803 117.207 91.6944 116.711 91.8512C116.251 91.9968 116.023 92.2359 116.04 92.6257C116.044 92.7181 116.144 93.2381 116.144 93.2381C121.406 93.7305 125.848 95.9846 129.792 99.3846C132.03 101.313 134.266 103.254 136.618 105.037C140.386 107.893 144.711 109.592 149.28 110.693C151.735 111.285 154.204 111.817 156.664 112.39C158.389 112.793 160.015 113.454 161.498 114.425C161.99 114.746 162.406 115.182 162.782 115.502C164.767 114.408 165.986 113.723 167.969 112.645C168.293 112.469 169.417 111.962 169.762 111.822C170.362 111.58 171.01 111.697 171.332 112.148C171.678 112.633 171.642 113.309 171.31 113.927C170.551 115.34 169.295 116.091 167.877 116.656C167.618 116.759 167.353 116.856 167.114 116.995C166.953 117.09 166.801 117.166 166.693 117.387C166.584 117.608 166.922 117.719 167.071 117.76C167.984 118.014 168.901 118.262 169.829 118.455C171.564 118.814 172.58 119.018 174.305 119.414C174.826 119.534 176.064 119.947 176.495 120.285C177.17 120.812 177.315 121.86 176.839 122.572C176.757 122.696 176.518 122.925 176.518 122.925C176.518 122.925 176.746 123.132 176.816 123.27C177.161 123.945 176.999 124.653 176.283 124.941C175.593 125.218 175.268 125.206 174.524 125.339C174.292 125.38 173.593 125.419 173.324 125.419C173.324 125.419 173.676 126.169 173.714 126.709C173.74 127.076 173.376 127.494 173.041 127.541C172.34 127.641 171.692 127.696 171.047 127.59C169.819 127.389 168.595 127.116 167.4 126.767C164.986 126.063 159.843 124.388 159.843 124.388C159.843 124.388 159.728 124.504 159.586 124.607C157.218 126.334 154.526 126.513 151.729 126.378C145.079 126.058 139.06 123.626 133.142 120.874C131.826 120.262 130.62 119.418 129.355 118.695C128.793 118.374 128.212 118.087 127.458 117.689C127.535 118.369 127.583 118.905 127.658 119.436C128.143 122.863 128.596 126.29 127.821 129.736C127.512 131.107 127.148 132.463 126.39 133.668C126.218 133.942 125.742 134.64 125.742 134.64C125.742 134.64 126.165 136.055 126.493 136.849C127.076 138.263 127.636 139.689 128.158 141.128C130.748 148.26 132.448 155.633 134.053 163.031C134.68 165.921 135.391 168.796 135.915 171.705C136.454 174.701 136.864 177.722 137.236 180.744C137.582 183.564 137.792 186.4 138.087 189.227C138.257 190.86 138.29 192.465 137.433 194.03C138.088 194.3 138.698 194.568 139.32 194.805C141.78 195.745 144.284 196.581 146.689 197.641C148.269 198.337 149.723 199.326 151.201 200.235C151.669 200.523 152.078 200.941 152.435 201.366C153.04 202.085 152.826 202.952 151.943 203.261C151.372 203.461 150.735 203.599 150.137 203.572C147.204 203.445 144.274 203.265 141.345 203.08C138.284 202.886 135.224 202.677 132.165 202.451C131.253 202.384 130.332 202.312 129.443 202.115C127.272 201.634 126.252 200.254 126.356 198.035C126.367 197.807 126.391 197.402 126.391 197.402C126.391 197.402 126.144 197.158 126.002 197.012C125.303 196.289 124.758 195.452 124.436 194.457C123.897 192.79 123.696 191.082 123.538 189.351C123.372 187.532 123.135 185.717 122.858 183.912C122.374 180.759 121.902 177.602 121.3 174.47C120.83 172.019 120.266 169.576 119.579 167.177C117.906 161.342 115.812 155.679 112.315 150.638C112.102 150.332 111.937 149.993 111.728 149.683C111.155 148.835 110.252 148.738 109.634 149.554C109.167 150.169 108.781 150.881 108.517 151.607C107.782 153.626 107.155 155.684 106.438 157.709C105.303 160.916 104.094 164.096 102.985 167.311C102.18 169.643 101.439 171.999 100.753 174.368C99.3679 179.148 97.4159 183.706 95.4354 188.254C94.7489 189.831 94.0838 191.422 93.2898 192.944C92.6896 194.095 91.9282 195.167 91.1843 196.236C90.9605 196.558 90.5975 197.02 90.5975 197.02C90.5975 197.02 91.0967 197.168 91.4736 197.295C93.2742 197.904 95.0835 198.488 96.8955 199.063C99.0638 199.75 101.081 200.765 103.009 201.946C103.695 202.366 104.309 202.957 104.832 203.575C105.773 204.686 104.826 205.771 103.865 205.885C103.184 205.966 102.481 205.951 101.795 205.893C100.086 205.75 98.3792 205.565 96.6727 205.385C94.6335 205.17 92.5982 204.915 90.5561 204.734C89.3287 204.625 88.0921 204.609 86.8589 204.581C85.3255 204.546 83.7981 204.518 82.3095 204.061C78.7556 202.969 77.8215 199.701 78.3174 196.926C78.3337 196.835 78.4121 196.473 78.4121 196.473C78.4121 196.473 78.2423 196.379 78.1737 196.315C77.1805 195.394 76.8771 194.237 76.9899 192.949C77.1776 190.803 77.9776 188.819 78.709 186.824C79.2232 185.422 79.8595 184.065 80.3836 182.666C82.0201 178.297 83.7285 173.951 85.2258 169.535C87.5004 162.825 89.5118 156.03 91.2127 149.151C92.241 144.992 93.4681 140.899 94.9261 136.873C95.2502 135.978 96.096 133.262 96.096 133.262C96.096 133.262 95.1347 128.291 95.0525 126.534C94.9579 124.513 95.124 122.464 95.3543 120.447C95.5716 118.544 96.0205 116.668 96.3626 114.779C96.4421 114.457 96.3829 114.416 96.3655 114.398C96.3101 114.338 96.2379 114.478 96.2235 114.529L96.2233 114.529ZM116.636 79.7838C116.604 79.8938 116.569 79.9985 116.544 80.1055C116.216 81.4745 115.153 82.3884 113.807 82.2365C113.392 82.1898 113.318 82.4766 113.245 82.7834C112.84 84.5088 111.723 85.4933 110.034 85.9267C108.593 86.2963 107.172 86.0705 105.753 85.8529C105.279 85.7803 105.1 85.9497 105.002 86.3597C104.737 87.4761 105.298 88.2952 106.62 88.5829C107.26 88.7221 107.541 89.0871 107.617 89.6845C107.776 90.9447 107.956 92.2028 108.08 93.4664C108.147 94.1603 108.405 94.7398 108.927 95.1731C109.398 95.5646 109.896 95.9397 110.43 96.2364C111.895 97.0503 113.332 96.882 114.726 96.0155C115.177 95.7355 115.44 95.3741 115.373 94.8166C115.268 93.9459 115.189 93.072 115.071 92.2032C115.007 91.7332 115.17 91.4326 115.618 91.3081C116.103 91.1736 116.596 91.0689 117.083 90.945C118.193 90.6632 118.401 90.3787 118.297 89.2616C118.223 88.4645 118.23 87.7314 118.867 87.0812C119.828 86.1005 119.714 85.8786 118.836 84.798C118.364 84.2176 117.964 83.5385 117.823 82.9842C117.621 82.1936 117.567 81.3623 117.491 80.5447C117.443 80.0311 117.305 79.6755 116.636 79.7836L116.636 79.7838ZM79.2779 196.779C79.2779 196.779 79.1083 197.218 79.0845 197.541C78.9985 198.708 79.1101 199.558 79.5668 200.657C80.0221 201.753 80.647 202.742 81.8216 203.07C83.0911 203.424 84.412 203.629 85.7242 203.785C87.055 203.943 88.4045 203.936 89.7421 204.047C92.1199 204.243 94.4935 204.491 96.8716 204.683C98.3217 204.801 99.7763 204.874 101.23 204.927C101.855 204.95 102.495 204.93 103.106 204.811C103.377 204.759 103.786 204.418 103.788 204.205C103.79 203.887 103.57 203.423 103.302 203.27C101.473 202.226 99.6653 201.11 97.7364 200.285C95.7177 199.421 93.5619 198.881 91.4848 198.147C90.5866 197.829 89.7886 197.667 88.7769 197.902C85.5405 198.654 82.3563 198.36 79.2779 196.779L79.2779 196.779ZM127.501 197.634C127.547 197.95 127.577 198.133 127.6 198.317C127.824 200.06 128.471 200.837 130.209 201.126C131.606 201.359 133.032 201.524 134.445 201.53C137.467 201.543 140.442 202.002 143.436 202.285C145.462 202.477 147.499 202.562 149.533 202.645C150.141 202.669 150.765 202.569 151.364 202.442C151.916 202.324 152.046 201.873 151.706 201.415C151.563 201.223 151.386 201.041 151.188 200.909C150.411 200.391 149.652 199.831 148.826 199.402C145.098 197.467 141.172 196.081 137.055 195.221C136.601 195.126 136.332 195.266 136.075 195.513C134.618 196.915 132.785 197.413 130.865 197.614C129.78 197.727 128.673 197.634 127.501 197.634ZM176.01 121.908C176.155 121.867 176.339 121.643 176.037 121.34C175.735 121.038 174.835 120.751 174.199 120.603C172.346 120.17 170.47 119.84 168.615 119.415C167.729 119.212 166.84 118.955 166.012 118.589C165.259 118.257 165.196 117.678 165.736 117.045C165.962 116.779 166.242 116.545 166.534 116.35C167.482 115.719 168.458 115.129 169.4 114.488C169.801 114.216 170.598 113.512 170.521 112.921C170.445 112.329 168.506 113.75 167.771 114.157C166.367 114.935 163.163 116.883 163.163 116.883C163.163 116.883 163.199 117.037 163.224 117.416C163.309 118.706 163.133 119.968 162.517 121.116C162.098 121.897 161.574 122.621 161.082 123.393C161.482 123.545 161.896 123.713 162.317 123.861C164.656 124.685 166.983 125.545 169.342 126.305C170.339 126.627 172.429 126.847 172.741 126.76C173.052 126.673 172.278 126.273 172.152 126.219C171.348 125.874 170.551 125.507 169.729 125.213C168.363 124.723 166.963 124.322 165.61 123.801C165.153 123.625 164.333 123.272 164.39 122.882C164.448 122.493 166.819 123.083 167.959 123.348C169.831 123.782 171.776 124.479 173.726 124.426C174.357 124.409 175.424 124.23 175.509 124.101C175.577 123.999 175.644 123.921 175.192 123.73C174.175 123.421 173.165 123.081 172.134 122.825C170.577 122.439 168.998 122.139 167.442 121.749C166.774 121.582 165.351 121.017 165.312 120.725C165.274 120.432 166.193 120.494 166.532 120.505C167.494 120.535 168.47 120.569 169.408 120.761C170.907 121.066 172.372 121.533 173.867 121.864C174.587 122.024 175.532 122.041 176.01 121.908L176.01 121.908ZM65.8013 141.716C66.5336 141.297 67.1877 140.946 67.8168 140.555C68.4496 140.162 68.4375 140.051 67.9418 139.501C66.5121 137.914 65.4731 136.129 65.1594 133.974C65.1382 133.828 64.8979 133.635 64.7327 133.603C62.8406 133.24 60.9366 132.945 59.0101 133.293C58.4326 133.397 57.8671 133.568 57.2998 133.729C57.1477 133.772 56.7239 133.949 56.8134 134.148C56.9029 134.348 57.365 134.578 57.6653 134.621C58.7907 134.781 59.9255 134.88 61.0587 134.98C61.9405 135.058 62.8251 135.104 63.739 135.167C63.5978 135.873 63.043 135.834 62.6424 136.02C64.496 137.283 64.626 137.685 63.5439 138.882C64.1076 139.234 64.5628 139.665 64.4402 140.425C65.1705 140.511 65.6981 140.793 65.8013 141.716ZM97.1571 133.62C97.1461 133.656 97.149 133.695 97.1654 133.729C97.1818 133.763 97.2104 133.79 97.2455 133.804C97.5022 133.905 97.7595 134.005 98.0151 134.109C101.525 135.539 105.165 136.194 108.961 136.069C110.997 136.002 113.037 136.08 115.074 136.066C117.334 136.051 119.597 136.078 121.85 135.941C122.827 135.882 123.785 135.506 124.751 135.252C124.791 135.241 124.826 135.217 124.849 135.183C124.873 135.149 124.883 135.108 124.879 135.067L124.878 135.064C124.874 135.023 124.855 134.985 124.825 134.956C124.795 134.928 124.755 134.912 124.714 134.91C124.395 134.9 124.071 134.865 123.764 134.923C121.757 135.299 119.738 135.565 117.696 135.487C113.698 135.334 109.697 135.217 105.708 134.93C103.013 134.736 100.321 134.376 97.7156 133.578C97.5881 133.539 97.4518 133.529 97.3166 133.515C97.2819 133.511 97.2471 133.52 97.218 133.539C97.1889 133.558 97.1674 133.587 97.1571 133.62ZM63.0295 137.733C63.2298 137.638 63.2171 137.344 63.0074 137.273L63.0041 137.272C62.5494 137.12 62.0878 136.985 61.6213 136.874C60.3769 136.581 59.0064 137.084 57.8704 135.925C57.3017 135.344 56.3768 135.925 56.1019 136.589C55.7703 137.391 56.1202 138.194 56.9004 138.415C58.7043 138.925 60.4264 138.758 62.1289 138.116C62.4341 138 62.7345 137.872 63.0294 137.732L63.0295 137.733ZM57.2024 142.175C57.3873 142.857 57.9039 143.254 58.5398 143.514C59.652 143.97 60.8089 143.924 61.9543 143.702C63.1886 143.462 64.9036 142.438 64.9919 141.652C65.0213 141.39 64.4502 141.548 64.2361 141.579C62.6886 141.802 61.255 142.011 59.7578 142.16C58.9348 142.242 58.1595 142.237 57.2024 142.175ZM56.2207 139.311C56.1029 140.231 56.8173 141.171 57.6933 141.241C58.713 141.323 59.7505 141.423 60.7599 141.319C61.6102 141.231 62.3978 141.039 63.2603 140.602C63.3952 140.534 63.5752 140.285 63.5551 140.143C63.535 140.001 63.3017 139.806 63.1418 139.784C62.7039 139.725 62.2523 139.706 61.8116 139.741C60.6414 139.832 59.4715 139.95 58.3179 139.805C57.7851 139.739 56.4121 139.347 56.2207 139.311Z" fill="black"/>
</g>
<g clip-path="url(#clip1_5423_1570)">
<path d="M209.921 160.764C209.704 160.482 209.296 160.331 208.988 160.306C208.635 160.278 208.283 160.381 207.953 160.488C207.316 160.696 206.67 160.914 206.046 161.125C205.191 161.414 204.307 161.713 203.433 161.988C199.836 163.121 196.177 164.268 192.639 165.377C189.374 166.401 185.999 167.459 182.68 168.503C181.696 168.813 180.703 169.153 179.744 169.481C177.845 170.132 175.882 170.804 173.912 171.266C167.426 172.788 160.804 174.225 154.4 175.614C152.746 175.973 151.091 176.332 149.436 176.693C148.204 176.961 146.954 177.244 145.744 177.517C142.3 178.294 138.738 179.098 135.204 179.679C129.077 180.688 122.826 181.591 116.78 182.464C114.341 182.816 111.819 183.18 109.339 183.546L105.387 184.13C99.2601 185.035 92.925 185.972 86.692 186.876C85.3203 187.075 83.9182 187.239 82.5623 187.398C82.0162 187.462 76.3434 188.14 75.1422 188.325C72.5757 188.719 69.9219 189.126 67.3103 189.516C64.2554 189.971 61.1981 190.41 58.1384 190.832C57.004 190.988 55.8458 191.123 54.7258 191.254C54.1972 191.315 53.6686 191.377 53.1403 191.44C52.8288 191.478 52.5856 191.613 52.4553 191.82C52.3718 191.953 52.295 192.178 52.4029 192.493C52.5502 192.923 52.7789 193.332 53.047 193.645C54.5397 195.387 56.5101 197.674 58.5148 199.915C58.6584 200.076 63.7497 205.877 64.7959 206.984C65.9772 208.233 67.3031 209.377 68.5853 210.482C68.8506 210.711 69.1158 210.94 69.3798 211.169C71.0136 212.59 72.8603 213.71 74.8687 214.497C75.2199 214.635 75.5709 214.773 75.9218 214.911C77.2749 215.445 78.6741 215.997 80.0698 216.492C81.3938 216.962 82.7217 217.364 84.0166 217.688C87.0974 218.458 90.2866 218.567 93.3708 218.672C93.7158 218.684 94.0607 218.696 94.4055 218.709C96.3178 218.779 98.2743 218.814 100.29 218.814C103.926 218.814 107.755 218.7 111.863 218.469C112.282 218.445 112.701 218.422 113.12 218.399C115.621 218.262 118.206 218.12 120.74 217.866C123.56 217.583 126.417 217.22 129.181 216.868C130.165 216.743 131.182 216.613 132.183 216.49C138.214 215.743 144.34 214.526 150.391 212.872C155.198 211.558 161.451 209.616 167.18 206.231C170.86 204.057 174.208 201.985 177.417 199.897C179.044 198.838 180.702 197.565 182.345 196.115C186.668 192.299 189.836 188.913 192.313 185.458C193.568 183.706 194.888 181.954 196.164 180.259C196.727 179.512 197.308 178.739 197.877 177.977C198.087 177.697 198.297 177.417 198.508 177.139L198.867 176.663C198.94 176.565 204.174 169.65 205.213 168.323C206.833 166.254 208.507 164.114 209.813 161.752C209.85 161.684 210.168 161.086 209.921 160.764L209.921 160.764Z" fill="white"/>
<path d="M99.9799 220.019C96.1018 219.863 92.213 219.838 88.3479 219.523C81.362 218.954 75.0935 216.425 69.6362 212.028C65.047 208.329 60.832 204.215 56.7725 199.951C55.0195 198.109 53.4216 196.12 51.7734 194.181C51.4372 193.785 51.191 193.314 50.9027 192.877C50.4165 192.142 50.5961 191.063 51.3981 190.682C52.1459 190.326 52.9713 190.08 53.7891 189.934C58.1387 189.155 62.4865 188.355 66.8549 187.694C70.5218 187.138 74.2169 186.771 77.8979 186.308C82.5276 185.725 87.1593 185.157 91.7832 184.531C96.5547 183.885 101.321 183.197 106.084 182.491C110.791 181.794 115.493 181.064 120.194 180.324C124.986 179.569 129.788 178.862 134.56 177.992C140.971 176.824 147.376 175.613 153.747 174.248C160.483 172.805 167.199 171.251 173.882 169.578C180.964 167.806 187.947 165.685 194.88 163.377C199.254 161.921 203.777 160.913 208.237 159.718C208.723 159.587 209.231 159.534 209.732 159.471C210.86 159.327 211.631 160.204 211.309 161.294C210.947 162.52 210.167 163.511 209.411 164.515C208.759 165.381 208.107 166.251 207.52 167.161C204.06 172.538 200.445 177.796 196.254 182.647C193.842 185.439 191.587 188.367 189.241 191.217C188.384 192.258 187.545 193.331 186.564 194.248C185.227 195.496 183.787 196.639 182.349 197.773C179.518 200.007 176.494 201.953 173.306 203.642C173.008 203.8 172.696 203.945 172.433 204.15C168.079 207.528 163.121 209.716 157.952 211.476C151.197 213.776 144.261 215.369 137.249 216.648C130.143 217.943 122.974 218.726 115.774 219.266C110.517 219.661 105.258 219.961 99.9801 220.019L99.9799 220.019ZM198.647 176.496C197.315 176.996 196.146 177.496 194.939 177.877C187.185 180.326 179.306 182.323 171.386 184.141C166.408 185.284 161.37 186.164 156.357 187.153C150.346 188.338 144.347 189.59 138.318 190.673C131.825 191.838 125.307 192.861 118.793 193.906C115.649 194.41 112.496 194.883 109.334 195.263C104.442 195.851 99.5218 196.231 94.643 196.911C87.2594 197.94 79.9054 199.18 72.5301 200.271C69.3094 200.748 66.0674 201.081 62.8344 201.474C62.176 201.554 61.5144 201.609 60.7578 201.685C62.1998 203.441 63.4996 205.21 64.9965 206.794C66.4082 208.287 68.0062 209.608 69.5611 210.961C71.1706 212.361 72.9784 213.459 74.9698 214.24C76.6959 214.916 78.4157 215.612 80.1625 216.232C81.4486 216.688 82.7601 217.089 84.084 217.42C87.4741 218.268 90.9515 218.305 94.4161 218.433C100.231 218.646 106.042 218.519 111.848 218.193C114.805 218.027 117.768 217.887 120.713 217.591C124.533 217.208 128.339 216.687 132.15 216.216C138.294 215.455 144.347 214.238 150.318 212.606C156.136 211.016 161.823 209.076 167.041 205.993C170.492 203.954 173.908 201.851 177.267 199.665C178.987 198.545 180.624 197.267 182.163 195.908C185.807 192.692 189.241 189.269 192.089 185.296C193.901 182.769 195.798 180.304 197.657 177.811C197.958 177.408 198.263 177.006 198.647 176.496ZM67.3514 189.786C64.2956 190.242 61.2372 190.681 58.1766 191.103C56.5127 191.333 54.8416 191.51 53.1739 191.712C52.7589 191.762 52.5308 192.014 52.6638 192.403C52.7935 192.782 52.9965 193.162 53.2566 193.465C55.0597 195.57 56.873 197.665 58.7206 199.731C58.968 200.007 59.4124 200.204 59.7884 200.249C60.528 200.339 61.2895 200.363 62.0314 200.297C65.5396 199.983 69.0563 199.721 72.5473 199.267C78.2302 198.529 83.8999 197.683 89.5673 196.83C96.7172 195.754 103.857 194.612 111.005 193.523C120.454 192.084 129.908 190.681 139.356 189.238C147.996 187.918 156.558 186.215 165.009 183.971C167.961 183.187 170.901 182.353 173.875 181.662C175.861 181.2 177.939 181.108 179.901 180.574C185.66 179.008 191.403 177.371 197.108 175.616C198.992 175.036 200.694 174.07 201.912 172.28C204.372 168.662 207.441 165.475 209.572 161.617C209.684 161.414 209.8 161.055 209.703 160.93C209.552 160.734 209.228 160.6 208.966 160.579C208.663 160.555 208.337 160.651 208.039 160.748C206.529 161.241 205.031 161.772 203.516 162.249C196.6 164.428 189.679 166.587 182.762 168.764C179.832 169.686 176.956 170.833 173.975 171.533C165.838 173.442 157.661 175.179 149.495 176.96C144.754 177.994 140.033 179.162 135.249 179.949C126.647 181.366 118.006 182.543 109.38 183.817C101.831 184.931 94.2833 186.051 86.7319 187.147C84.7248 187.438 71.1653 189.218 67.3512 189.786L67.3514 189.786Z" fill="black"/>
</g>
<g clip-path="url(#clip2_5423_1570)">
<path d="M185.697 205.335C185.026 205.335 184.465 205.49 183.973 205.805C183.507 206.103 183.406 206.413 183.402 206.426C183.379 206.509 183.311 206.567 183.226 206.58C182.706 206.659 182.341 206.723 182.022 206.883C181.275 207.258 181.028 207.841 181.219 208.775C181.243 208.891 181.306 209.289 181.117 209.518C180.955 209.714 180.758 209.871 180.568 210.023C180.478 210.095 180.393 210.163 180.312 210.235C179.874 210.621 179.679 211.164 179.733 211.85C179.768 212.292 179.66 212.575 179.36 212.829C179.198 212.965 179.036 213.101 178.873 213.236C178.52 213.53 178.155 213.833 177.809 214.143C176.278 215.513 174.807 216.88 173.631 218.539C171.555 221.467 171.158 224.847 172.453 228.586C172.963 230.061 173.68 231.739 175.123 232.999C177.043 234.677 179.185 235.522 181.506 235.522C181.973 235.522 182.447 235.488 182.929 235.419C186.327 234.935 188.934 233.314 190.676 230.6C192.211 228.209 192.2 225.538 191.959 223.008C191.751 220.82 190.914 218.749 190.146 216.979C189.929 216.477 189.712 215.974 189.495 215.471C189.469 215.41 189.466 215.343 189.496 215.285C189.526 215.228 189.574 215.188 189.637 215.174C189.68 215.159 190.107 214.984 190.217 214.005C190.228 213.901 190.229 213.759 190.23 213.622C190.231 213.284 190.238 213.068 190.32 212.927C190.389 212.81 190.513 212.658 190.645 212.497C190.756 212.362 190.87 212.223 190.922 212.137C191.293 211.522 191.25 210.93 190.796 210.378C190.687 210.246 190.565 210.12 190.435 209.987C190.371 209.921 190.307 209.855 190.243 209.788C190.205 209.747 190.183 209.692 190.184 209.636C190.185 209.579 190.207 209.525 190.247 209.485C190.651 209.076 190.707 208.848 190.522 208.374C190.349 207.934 190.174 207.566 189.986 207.249C189.264 206.034 188.025 205.697 186.817 205.456C186.412 205.376 186.04 205.335 185.697 205.335Z" fill="white"/>
<path d="M190.401 209.638C190.601 209.85 190.794 210.034 190.963 210.239C191.473 210.859 191.523 211.559 191.107 212.249C190.985 212.451 190.624 212.836 190.507 213.036C190.413 213.198 190.467 213.719 190.432 214.028C190.297 215.227 189.694 215.384 189.694 215.384C189.694 215.384 190.198 216.554 190.345 216.892C191.195 218.852 191.972 220.854 192.174 222.987C192.429 225.66 192.389 228.333 190.858 230.717C189.003 233.606 186.305 235.157 182.959 235.634C179.919 236.067 177.275 235.168 174.98 233.163C173.595 231.952 172.831 230.342 172.248 228.657C171.003 225.061 171.203 221.586 173.454 218.412C174.639 216.741 176.142 215.343 177.665 213.98C178.171 213.527 178.701 213.1 179.22 212.662C179.469 212.451 179.547 212.236 179.517 211.866C179.465 211.206 179.626 210.549 180.169 210.071C180.43 209.84 180.731 209.644 180.95 209.379C181.05 209.257 181.044 208.998 181.007 208.818C180.802 207.821 181.068 207.118 181.925 206.688C182.27 206.514 182.648 206.447 183.194 206.364C183.194 206.364 183.303 205.975 183.856 205.621C184.783 205.028 185.825 205.036 186.86 205.242C188.167 205.503 189.428 205.884 190.172 207.137C190.389 207.503 190.568 207.897 190.723 208.294C190.946 208.861 190.859 209.174 190.401 209.638L190.401 209.638ZM181.443 213.547C181.08 213.471 180.784 213.362 180.48 213.262C180 213.103 179.581 213.296 179.173 213.567C177.477 214.695 176.117 216.172 174.841 217.733C173.943 218.833 173.298 220.078 172.864 221.431C172.124 223.738 172.087 226.056 172.752 228.388C173.349 230.484 174.782 231.915 176.463 233.163C177.559 233.976 178.785 234.464 180.126 234.608C181.841 234.792 183.57 234.999 185.262 234.44C189.003 233.205 191.516 229.814 191.696 225.719C191.853 222.173 190.64 219.002 188.911 216C188.403 215.116 187.615 214.719 186.503 214.613C186.487 214.758 186.466 215.011 186.462 215.142C186.333 219.287 186.208 223.432 186.076 227.577C186.063 227.974 186.052 228.381 185.959 228.764C185.794 229.45 185.291 229.711 184.644 229.425C184.068 229.171 183.518 228.849 182.981 228.518C182.542 228.247 182.104 228.076 181.603 228.281C180.707 228.649 180.027 228.365 179.483 227.617C179.405 227.51 179.31 227.414 179.224 227.313C178.773 226.779 178.199 226.591 177.518 226.696C177.198 226.745 176.878 226.809 176.555 226.836C175.525 226.922 175.032 226.325 175.387 225.348C175.608 224.742 175.921 224.16 176.258 223.608C178.129 220.549 179.782 217.377 181.214 214.089C181.289 213.917 181.36 213.744 181.443 213.547ZM181.858 213.608C181.782 213.838 181.736 214.009 181.67 214.171C181.17 215.401 180.711 216.649 180.152 217.851C179.648 218.936 179.041 219.973 178.468 221.025C177.684 222.465 176.887 223.899 176.1 225.338C175.851 225.793 175.982 226.002 176.495 225.976C176.73 225.964 176.964 225.909 177.199 225.903C178.083 225.879 178.908 225.998 179.455 226.826C179.6 227.045 179.796 227.234 179.983 227.422C180.338 227.777 180.764 227.913 181.238 227.721C182.448 227.231 183.545 227.538 184.602 228.167C184.977 228.39 185.197 228.302 185.228 227.873C185.322 226.534 185.465 225.193 185.467 223.853C185.471 221.293 185.388 218.733 185.345 216.174C185.335 215.588 185.344 215.002 185.344 214.407L181.858 213.608V213.608ZM181.653 210.325C181.469 210.34 181.102 210.385 180.759 210.496C180.572 210.557 180.268 210.906 180.219 211.071C180.028 211.717 180.178 212.478 181.142 212.742C181.313 212.789 181.481 212.845 181.653 212.885C183.591 213.327 185.525 213.784 187.468 214.198C188.022 214.316 188.603 214.341 189.171 214.34C189.483 214.34 189.773 214.16 189.838 213.797C189.906 213.414 189.883 213.057 189.488 212.835C189.23 212.691 188.993 212.507 188.727 212.385C187.896 212.006 187.067 211.617 186.216 211.288C184.809 210.744 183.357 210.187 181.653 210.325ZM190.246 212.341C190.929 211.827 190.611 211.205 190.253 210.827C188.638 209.121 186.775 207.813 184.44 207.311C183.628 207.136 182.812 207.025 182.087 207.644C181.661 208.008 181.837 208.753 181.913 209.175C181.913 209.175 182.261 209.187 182.537 209.223C184.083 209.424 184.895 209.635 185.863 209.919C187.182 210.305 188.83 210.875 190.246 212.341Z" fill="black"/>
</g>
<g clip-path="url(#clip3_5423_1570)">
<path d="M79.3331 210.378C79.2915 209.97 79.2569 209.552 79.2234 209.147C79.1365 208.096 79.0467 207.01 78.8226 205.961C78.4757 204.338 78.0571 202.706 77.6522 201.127C77.3955 200.126 77.13 199.09 76.8859 198.069C76.5259 196.564 76.1642 195.059 75.8026 193.554C74.5947 188.527 73.3458 183.329 72.1839 178.202C69.7241 167.347 67.2733 156.298 64.9034 145.613L64.0908 141.95C62.6684 135.539 61.2347 129.017 59.8482 122.711C59.1339 119.461 58.4196 116.212 57.7036 112.963C57.6305 112.631 57.5504 112.304 57.4654 111.957C57.4248 111.792 57.3833 111.622 57.3411 111.446C57.3323 111.409 57.3162 111.375 57.2936 111.345C57.2711 111.315 57.2426 111.29 57.2099 111.271C57.1773 111.253 57.1412 111.241 57.1039 111.237C57.0665 111.233 57.0288 111.237 56.9929 111.248L54.2988 112.085C54.2362 112.104 54.1826 112.145 54.1478 112.201C54.1129 112.256 54.0991 112.323 54.1087 112.387C54.1173 112.445 54.1243 112.499 54.131 112.551C54.1455 112.663 54.1591 112.769 54.184 112.877L55.185 117.22C56.4217 122.587 57.7005 128.136 58.964 133.593C62.392 148.399 65.9368 163.709 69.515 179.113C70.0907 181.592 70.7002 184.105 71.2895 186.536C71.4884 187.357 71.6873 188.177 71.8854 188.998C72.0649 189.742 72.2623 190.494 72.4531 191.221C72.8498 192.732 73.2599 194.295 73.526 195.849C74.4056 200.989 76.3228 205.743 78.1769 210.34C78.2461 210.512 78.3443 210.664 78.4581 210.841C78.5154 210.93 78.5804 211.031 78.6492 211.146C78.6765 211.192 78.7164 211.228 78.764 211.252C78.8117 211.275 78.8651 211.284 78.9178 211.278C78.9705 211.271 79.0202 211.25 79.0609 211.216C79.1015 211.182 79.1315 211.136 79.147 211.086C79.1779 210.985 79.2099 210.9 79.2381 210.826C79.2977 210.669 79.3492 210.534 79.3332 210.378L79.3331 210.378Z" fill="white"/>
<path d="M69.6508 210.756C69.7619 208.086 69.7841 205.035 70.0492 202.005C70.2488 199.726 70.7428 197.471 71.1418 195.212C71.2863 194.393 71.3369 193.603 71.1558 192.78C69.5635 185.535 67.9973 178.285 66.4099 171.04C63.1601 156.207 59.9042 141.376 56.6459 126.545C55.7113 122.29 53.4631 112.5 53.4631 112.5L52.2042 112.616C51.2572 112.703 50.307 112.767 49.3568 112.801C49.0487 112.812 48.7224 112.734 48.4275 112.631C46.6898 112.023 46.2488 110.187 47.5178 108.802C48.5309 107.695 49.7631 106.887 51.1408 106.306C53.5762 105.279 56.1166 104.681 58.7574 104.594C59.5304 104.569 60.3383 104.653 61.0813 104.861C62.6078 105.289 63.1261 106.68 62.3212 108.047C62.0784 108.459 61.7807 108.888 61.4014 109.162C60.5009 109.811 58.005 111.203 58.005 111.203C58.005 111.203 58.1235 111.666 58.1613 111.821C59.2472 116.262 60.9611 123.687 62.329 129.628C66.2396 146.613 70.1314 163.601 74.0425 180.585C74.7971 183.862 75.6433 187.118 76.3682 190.401C76.6078 191.486 77.2572 192.213 77.9889 192.929C79.2288 194.143 80.514 195.312 81.715 196.563C86.9699 202.037 90.5491 208.495 92.8653 215.69C94.5696 220.985 95.9868 226.349 96.8494 231.851C96.9218 232.313 96.9955 232.776 97.033 233.241C97.2021 235.337 96.2814 236.941 94.7018 238.202C92.2066 240.193 89.3516 241.466 86.286 242.29C85.474 242.509 84.6632 242.776 83.8344 242.875C82.9721 242.979 82.0833 242.972 81.2159 242.898C79.6229 242.762 78.8098 241.482 77.9321 240.401C76.4984 238.635 75.4403 236.622 74.5369 234.542C72.0822 228.888 70.5358 222.993 70.0008 216.847C69.8355 214.948 69.7785 213.04 69.6507 210.756L69.6508 210.756ZM54.3471 112.334C54.3739 112.513 54.4186 112.674 54.4513 112.816C56.0432 119.722 57.6327 126.628 59.2312 133.532C62.7445 148.706 66.2581 163.88 69.7822 179.051C70.5487 182.351 71.3574 185.641 72.1521 188.934C72.7045 191.224 73.4 193.488 73.7963 195.804C74.6591 200.845 76.5366 205.54 78.4312 210.238C78.5226 210.465 78.6806 210.665 78.8846 211.006C78.977 210.704 79.0748 210.549 79.0602 210.407C78.9105 208.941 78.8607 207.452 78.5543 206.019C77.9888 203.374 77.2484 200.766 76.619 198.134C75.0362 191.514 73.4206 184.901 71.9163 178.263C69.1799 166.188 66.5049 154.098 63.823 142.01C61.6798 132.351 59.5649 122.685 57.4357 113.023C57.3284 112.536 57.2043 112.053 57.0743 111.511C56.1237 111.858 55.4078 112.071 54.3471 112.334Z" fill="black"/>
</g>
<g clip-path="url(#clip4_5423_1570)">
<path d="M68.5455 140.356C68.506 140.635 68.2555 140.811 67.9322 141.013C67.4935 141.286 63.9954 143.413 63.2347 143.791C62.8417 143.986 62.4171 144.128 61.9589 144.217C61.3833 144.329 60.8546 144.385 60.3623 144.385C59.6331 144.385 58.9834 144.262 58.3772 144.013C57.5528 143.674 57.0613 143.173 56.8744 142.481L56.7802 142.132C56.7802 142.132 56.5275 141.267 56.3417 141.038C55.9812 140.592 55.8137 140.028 55.8822 139.491L55.9192 139.202C55.9192 139.202 55.9467 138.412 55.7913 138.09C55.5859 137.665 55.5826 137.164 55.7819 136.681C55.956 136.258 56.3239 135.893 56.7315 135.716C55.3756 134.559 56.2611 133.955 56.709 133.767C56.9227 133.678 57.1611 133.642 57.3818 133.579C57.8756 133.437 58.3861 133.29 58.9043 133.196C60.9094 132.833 62.8893 133.152 64.7453 133.51C64.9805 133.555 65.3501 133.813 65.3937 134.114C65.6713 136.028 66.5621 137.8 68.1168 139.532C68.4013 139.849 68.5848 140.077 68.5455 140.356V140.356Z" fill="white"/>
<path d="M66.1596 133.263C65.5139 132.529 64.3917 132.172 63.7836 132.205C62.7614 132.259 61.7258 132.133 60.711 132.235C59.2214 132.385 57.7904 132.828 56.4337 133.476C55.6345 133.858 55.3794 134.433 55.6644 135.166C54.5978 136.024 54.6185 137.136 54.9676 138.33C55.0182 138.504 54.9907 138.725 54.9319 138.902C54.585 139.942 54.7927 140.842 55.5095 141.668C55.7419 141.935 55.931 142.288 56.0117 142.632C56.389 144.239 57.4419 145.112 58.9936 145.379C59.608 145.485 60.278 145.461 60.8919 145.34C63.4187 144.839 65.6212 143.614 67.7001 142.137C68.3255 141.693 69.4689 140.771 69.2024 139.527C68.9344 138.276 66.8199 134.014 66.1595 133.263H66.1596ZM56.0362 136.787C56.3119 136.118 57.2397 135.534 57.8101 136.118C58.9496 137.285 60.3243 136.778 61.5724 137.074C62.0403 137.185 62.5033 137.321 62.9594 137.474L62.9626 137.475C63.173 137.547 63.1857 137.842 62.9848 137.938C62.689 138.078 62.3877 138.207 62.0815 138.323C60.3738 138.97 58.6465 139.138 56.8371 138.625C56.0545 138.403 55.7035 137.594 56.0362 136.787H56.0362ZM56.1553 139.527C56.3473 139.562 57.7244 139.957 58.2589 140.024C59.416 140.169 60.5895 140.051 61.7632 139.959C62.2053 139.924 62.6582 139.943 63.0974 140.003C63.2578 140.024 63.4918 140.221 63.5119 140.363C63.5321 140.506 63.3516 140.758 63.2164 140.826C62.3512 141.266 61.5612 141.459 60.7083 141.548C59.6958 141.652 58.6552 141.552 57.6324 141.47C56.7537 141.399 56.0371 140.452 56.1553 139.527ZM61.9063 143.946C60.7574 144.17 59.597 144.216 58.4814 143.757C57.8436 143.495 57.3254 143.095 57.14 142.409C58.0998 142.472 58.8777 142.477 59.7032 142.394C61.2048 142.244 62.6429 142.034 64.1951 141.809C64.4099 141.778 64.9827 141.619 64.9532 141.883C64.8646 142.674 63.1444 143.705 61.9063 143.946L61.9063 143.946ZM67.7868 140.779C67.1556 141.172 66.4996 141.525 65.765 141.947C65.6615 141.018 65.1324 140.735 64.3997 140.648C64.5228 139.882 64.0661 139.449 63.5007 139.094C64.5862 137.889 64.4558 137.485 62.5965 136.214C62.9983 136.027 63.5548 136.066 63.6964 135.355C62.7799 135.292 61.8925 135.246 61.0079 135.167C59.8714 135.066 58.7331 134.967 57.6043 134.806C57.303 134.763 56.8396 134.531 56.7497 134.33C56.6599 134.129 57.085 133.951 57.2376 133.908C57.8066 133.746 58.3738 133.574 58.9531 133.469C60.8855 133.118 62.7952 133.415 64.6931 133.781C64.8588 133.813 65.0999 134.008 65.1211 134.154C65.4358 136.324 66.4779 138.12 67.9121 139.717C68.4092 140.271 68.4214 140.383 67.7867 140.779L67.7868 140.779Z" fill="black"/>
</g>
<g clip-path="url(#clip5_5423_1570)">
<path d="M171.609 67.4709C169.946 67.4709 168.269 67.7008 166.588 68.1611C162.03 69.4083 158.847 72.4488 157.127 77.1978C156.597 78.6618 156.734 80.2329 156.866 81.7523L156.889 82.0193C157.049 83.8854 157.736 85.7232 158.989 87.638C159.588 88.5546 160.215 89.4767 160.822 90.3684C161.626 91.5514 162.458 92.7747 163.239 94.004C163.503 94.4198 163.993 95.2559 164.307 96.185C164.319 96.222 164.324 96.2613 164.32 96.3001C164.316 96.3389 164.304 96.3765 164.284 96.4103C164.265 96.4441 164.238 96.4733 164.206 96.496C164.175 96.5187 164.138 96.5344 164.1 96.542C163.222 96.7163 162.633 97.2334 162.525 97.9253C162.417 98.6209 162.622 99.2361 163.135 99.7541C163.182 99.8016 163.21 99.8647 163.214 99.9315C163.218 99.9983 163.197 100.064 163.156 100.117C162.254 101.264 162.382 101.906 163.725 102.977C163.77 103.013 163.802 103.062 163.818 103.117C163.834 103.172 163.832 103.23 163.812 103.284C163.591 103.904 163.584 104.41 163.79 104.788C163.998 105.169 164.434 105.438 165.084 105.589C165.224 105.621 165.682 105.653 165.938 105.666C165.994 105.669 166.047 105.688 166.091 105.722C166.136 105.756 166.169 105.803 166.186 105.856C166.187 105.861 166.358 106.381 166.697 106.721C167.008 107.033 167.449 107.263 168.044 107.424C170.621 108.122 174.108 107.57 175.654 106.978C176.338 106.715 176.851 106.195 176.9 105.875C176.941 105.606 176.896 105.418 176.896 105.417C176.862 105.278 176.939 105.133 177.075 105.088C177.686 104.886 178.254 104.348 178.057 103.647C177.949 103.265 177.757 103.013 177.755 103.011C177.732 102.98 177.715 102.945 177.706 102.907C177.696 102.869 177.695 102.83 177.702 102.792C177.71 102.754 177.725 102.717 177.747 102.685C177.769 102.654 177.798 102.627 177.831 102.607C178.914 101.959 179.071 101.539 178.116 99.8221C178.096 99.7872 178.085 99.7486 178.082 99.7089C178.079 99.6692 178.085 99.6293 178.099 99.592C178.113 99.5548 178.135 99.521 178.163 99.493C178.192 99.4651 178.226 99.4437 178.263 99.4303C179.026 99.1576 179.426 98.8947 179.353 98.2868C179.295 97.8064 179.112 97.3171 178.864 96.9779C178.643 96.6757 178.385 96.2066 178.694 95.6236C178.752 95.5146 178.809 95.4055 178.866 95.2961C179.182 94.693 179.508 94.0692 179.931 93.5187C180.556 92.7048 181.214 91.8967 181.85 91.1151C182.559 90.2438 183.292 89.3428 183.979 88.4341C186.194 85.5065 187.007 82.274 186.395 78.8267C185.534 73.9662 182.917 70.6163 178.62 68.8702C176.325 67.9377 173.98 67.4707 171.609 67.4707V67.4709Z" fill="white"/>
<path d="M178.356 99.6893C179.335 101.45 179.26 102.072 177.972 102.843C177.972 102.843 178.196 103.128 178.321 103.574C178.549 104.384 177.961 105.084 177.162 105.349C177.162 105.349 177.222 105.581 177.171 105.917C177.1 106.384 176.473 106.958 175.752 107.235C174.155 107.847 170.607 108.403 167.972 107.689C167.421 107.54 166.898 107.312 166.503 106.916C166.11 106.522 165.924 105.941 165.924 105.941C165.924 105.941 165.239 105.907 165.022 105.857C163.559 105.517 163.054 104.596 163.554 103.193C162.102 102.034 161.939 101.222 162.94 99.9479C162.38 99.3826 162.129 98.6881 162.254 97.8836C162.38 97.0771 163.059 96.4695 164.047 96.2736C163.797 95.5343 163.396 94.7639 163.007 94.1518C161.64 91.9997 160.155 89.923 158.759 87.7889C157.616 86.0422 156.797 84.1596 156.616 82.0433C156.474 80.3838 156.287 78.712 156.869 77.105C158.557 72.4456 161.679 69.2208 166.515 67.897C170.64 66.768 174.758 67.0058 178.723 68.6168C183.282 70.4691 185.818 74.0032 186.665 78.7796C187.308 82.4037 186.401 85.6877 184.198 88.6005C182.891 90.3282 181.468 91.9679 180.148 93.6866C179.666 94.3155 179.311 95.0475 178.936 95.753C178.745 96.1135 178.808 96.4377 179.085 96.8164C179.379 97.2172 179.565 97.7557 179.625 98.2549C179.728 99.1107 179.065 99.4357 178.356 99.6894L178.356 99.6893ZM168.839 96.3572C168.839 96.3572 168.438 94.0155 168.221 93.1654C167.396 89.9184 167.062 88.375 166.279 85.7641C165.683 83.7787 165.036 81.809 164.437 79.8246C164.377 79.6258 164.419 79.2873 164.552 79.1713C164.675 79.0632 165.015 79.0967 165.204 79.1858C166.408 79.7539 167.516 79.6109 168.575 78.8314C169.448 78.1892 170.432 77.9588 171.494 78.1616C172.227 78.3014 172.957 78.4713 173.673 78.6782C175.109 79.0929 176.161 78.9082 177.202 77.8462C177.401 77.6431 177.838 77.3106 178.11 77.2493C178.446 77.1737 178.896 77.7209 178.604 78.5149C178.494 78.8121 178.39 79.1136 178.313 79.4207C177.035 84.5166 175.696 88.8524 174.429 93.9511C174.234 94.7342 174.093 95.462 173.906 96.3546C175.211 96.4258 176.07 96.3216 177.09 96.2292C177.321 96.2082 177.601 96.0489 177.747 95.8646C178.348 95.103 178.928 94.3224 179.476 93.5209C180.529 91.978 181.596 90.4412 182.58 88.8545C183.376 87.5727 184.177 86.2716 184.769 84.8906C186.133 81.7071 185.987 78.5403 184.227 75.5221C183.609 74.4609 182.923 73.4236 182.153 72.4692C180.168 70.0118 177.498 68.8145 174.409 68.4221C172.584 68.1903 170.801 68.504 168.998 68.6743C166.52 68.9086 164.367 69.936 162.322 71.2399C160.975 72.0983 159.929 73.2717 159.189 74.6907C157.561 77.8155 157.335 81.0758 158.363 84.4233C159.264 87.3627 160.912 89.8924 162.761 92.3124C163.416 93.1692 164.059 94.0559 164.548 95.0108C164.917 95.7316 165.409 96.1405 166.156 96.2221C166.988 96.3127 167.829 96.3108 168.839 96.3571V96.3572ZM165.815 80.4666C168.192 85.587 169.439 90.8853 170.115 96.3342H173.041C173.795 92.0249 174.979 87.8579 176.133 83.6833C176.421 82.6402 176.713 81.5981 176.992 80.5527C177.139 80.0031 177.012 79.8197 176.552 79.8967C175.453 80.0809 174.364 80.0694 173.298 79.7144C171.961 79.2689 170.687 79.3058 169.408 79.9948C168.339 80.5704 167.167 80.8025 165.815 80.4666H165.815ZM177.829 98.8596C178.521 98.81 178.746 98.565 178.698 98.0277C178.649 97.4726 178.155 97.0222 177.622 97.0451C176.634 97.0876 175.645 97.1566 174.656 97.1665C171.202 97.2007 167.747 97.2058 164.292 97.2535C164.028 97.2571 163.65 97.4401 163.525 97.6557C163.062 98.4582 163.442 99.185 164.348 99.352C164.513 99.3824 164.682 99.4117 164.849 99.4121C166.79 99.4162 175.444 99.0304 177.829 98.8595L177.829 98.8596ZM176.498 102.091C178.124 101.97 178.316 101.58 177.46 100.194C177.354 100.022 177.056 99.8643 176.855 99.8732C175.399 99.9377 173.946 100.081 172.49 100.134C169.747 100.234 167.003 100.299 164.259 100.354C163.811 100.363 163.485 100.476 163.339 100.911C163.182 101.38 163.228 101.841 163.687 102.093C164.02 102.276 164.423 102.414 164.798 102.422C166.459 102.456 174.262 102.258 176.498 102.091L176.498 102.091ZM172.806 105.121C173.941 105.078 175.262 104.964 176.382 104.788C177.143 104.669 177.451 104.152 177.389 103.473C177.356 103.107 177.225 102.969 176.824 102.994C174.72 103.127 172.616 103.266 170.509 103.326C168.609 103.38 166.707 103.326 164.806 103.343C164.595 103.345 164.254 103.458 164.209 103.596C164.144 103.795 164.251 104.201 164.377 104.352C164.657 104.686 165.037 104.752 165.393 104.777C167.699 104.936 171.016 105.187 172.806 105.121L172.806 105.121ZM176.421 105.818C176.496 105.631 176.494 105.502 176.494 105.502C176.494 105.502 174.786 105.702 174.425 105.714C172.04 105.792 170.47 105.826 168.085 105.91C167.851 105.918 167.154 105.883 167.154 105.883C167.154 105.883 167.43 106.389 167.89 106.709C168.126 106.874 168.514 107.044 168.793 107.104C169.639 107.285 170.271 107.277 171.036 107.201C172.366 107.069 173.69 106.833 174.996 106.546C175.5 106.435 176.288 106.152 176.421 105.818ZM181.76 64.4816C181.959 64.36 182.151 64.1786 182.27 63.9787C183.176 62.4558 184.069 60.9253 184.945 59.3846C185.024 59.2447 185.024 58.9384 184.93 58.8497C184.796 58.7243 184.526 58.6605 184.339 58.6976C184.138 58.7378 183.93 58.8925 183.786 59.0522C182.509 60.4674 181.784 62.1759 181.22 63.9658C181.203 64.0178 181.21 64.0771 181.206 64.1331C181.199 64.5513 181.406 64.6969 181.76 64.4816ZM171.352 62.6093C171.349 62.5035 171.359 62.2523 171.351 62.0743C171.282 60.5643 171.213 59.0542 171.136 57.5445C171.113 57.0789 171.109 56.6053 171.013 56.1532C170.966 55.9356 170.776 55.5394 170.572 55.5646C170.369 55.5899 170.241 55.9677 170.226 56.1804C170.085 58.0725 170.186 59.9493 170.739 61.778C170.832 62.0862 171.057 62.4849 171.162 62.6593C171.267 62.8338 171.355 62.715 171.352 62.6093ZM156.629 61.3518C156.827 62.9899 157.933 63.9992 159.317 64.6855C159.475 64.764 159.929 64.76 159.989 64.5215C160.016 64.3165 159.937 64.0506 159.807 63.9105C158.957 62.9916 158.08 62.0982 157.207 61.2C157.097 61.0862 156.94 60.9686 156.739 60.8037C156.538 60.6388 156.611 61.2044 156.629 61.3518ZM154.438 70.9874C154.299 70.7938 153.763 70.3114 153.356 70.1529C152.388 69.7764 151.382 69.4958 150.38 69.2158C150.248 69.1789 149.952 69.3375 149.907 69.4662C149.821 69.7169 149.804 70.0048 150.199 70.1226C151.379 70.4739 152.546 70.8658 153.724 71.2203C153.918 71.2787 154.239 71.2486 154.356 71.2285C154.473 71.2085 154.578 71.1809 154.438 70.9874ZM191.889 69.0257C192.059 68.8518 192.245 68.3161 192.109 68.2223C191.973 68.1284 191.555 68.2048 191.338 68.3147C190.54 68.7188 189.762 69.1628 188.993 69.6191C188.833 69.714 188.69 69.8606 188.62 70.0838C188.55 70.307 188.956 70.3945 189.165 70.3738C189.373 70.3532 191.162 69.7718 191.889 69.0257Z" fill="black"/>
</g>
<g clip-path="url(#clip6_5423_1570)">
<path d="M173.581 217.934C173.626 217.934 173.671 217.945 173.711 217.967C173.751 217.988 173.785 218.019 173.81 218.057C174.808 219.569 176.407 220.307 177.952 221.022C181.363 222.598 184.62 223.598 187.909 224.08C188.113 224.11 188.318 224.142 188.524 224.175C189.58 224.341 190.671 224.514 191.658 224.342C195.529 223.668 198.885 222.05 201.634 219.533C204.521 216.888 205.902 213.58 205.739 209.7C205.664 207.931 205.329 206.207 204.742 204.576C203.256 200.445 200.763 197.856 197.122 196.661C196.921 196.595 196.731 196.509 196.547 196.426C196.437 196.376 196.332 196.329 196.226 196.286C193.316 195.107 190.44 194.855 187.435 195.515C184.213 196.223 181.345 197.639 178.031 199.547C176.159 200.624 174.841 201.721 173.884 202.999C173.815 203.091 173.652 203.343 173.595 203.433C173.574 203.466 173.546 203.495 173.513 203.516C173.48 203.538 173.442 203.552 173.403 203.557C173.364 203.563 173.324 203.56 173.286 203.549C173.248 203.538 173.213 203.518 173.183 203.493C172.746 203.112 172.433 202.958 172.168 202.993C171.801 203.042 171.366 203.471 170.759 204.383C170.738 204.415 170.711 204.442 170.679 204.463C170.647 204.483 170.611 204.497 170.573 204.503C170.536 204.508 170.497 204.507 170.461 204.497C170.424 204.487 170.39 204.47 170.36 204.446C169.814 204.012 169.4 203.843 169.093 203.93C168.788 204.018 168.513 204.397 168.277 205.058C168.195 205.288 168.126 205.531 168.058 205.767C168.026 205.879 167.994 205.991 167.961 206.102C167.942 206.164 167.902 206.218 167.848 206.253C167.794 206.288 167.729 206.304 167.664 206.296C166.808 206.19 166.51 206.349 166.146 207.105C165.9 207.617 165.72 208.127 165.612 208.622C165.165 210.665 165.12 212.727 165.478 214.75C165.771 216.406 166.434 217.051 168.106 217.305C168.154 217.313 168.2 217.333 168.238 217.363C168.275 217.394 168.304 217.434 168.322 217.479C168.537 218.048 168.826 218.431 169.205 218.651C169.506 218.826 169.721 218.681 170.14 218.308C170.232 218.226 170.328 218.14 170.427 218.065C170.48 218.025 170.547 218.005 170.613 218.01C170.68 218.015 170.743 218.044 170.79 218.092C171.355 218.671 171.765 218.925 172.121 218.913C172.472 218.902 172.858 218.63 173.372 218.03C173.398 218 173.43 217.976 173.466 217.959C173.502 217.943 173.541 217.934 173.581 217.934L173.581 217.934Z" fill="white"/>
<path d="M173.58 218.209C172.479 219.494 171.79 219.511 170.593 218.284C170.141 218.629 169.697 219.254 169.067 218.889C168.613 218.625 168.294 218.181 168.065 217.577C166.416 217.326 165.541 216.686 165.207 214.798C164.839 212.714 164.892 210.629 165.343 208.564C165.462 208.023 165.658 207.486 165.898 206.987C166.32 206.11 166.746 205.907 167.698 206.024C167.803 205.674 167.894 205.314 168.019 204.966C168.554 203.466 169.298 203.251 170.531 204.232C171.687 202.494 172.289 202.35 173.363 203.286C173.363 203.286 173.574 202.955 173.664 202.835C174.79 201.332 176.276 200.24 177.893 199.309C180.893 197.583 183.946 196.001 187.376 195.248C190.46 194.57 193.425 194.855 196.328 196.032C196.623 196.151 196.906 196.302 197.207 196.401C201.232 197.722 203.613 200.628 205 204.483C205.605 206.164 205.938 207.902 206.013 209.689C206.182 213.692 204.764 217.038 201.819 219.735C198.941 222.372 195.51 223.95 191.705 224.612C190.478 224.826 189.139 224.537 187.869 224.351C184.372 223.839 181.04 222.751 177.837 221.271C176.227 220.527 174.612 219.77 173.58 218.209H173.58ZM173.59 213.666C173.59 214.309 173.645 214.902 173.723 215.461C173.886 216.638 174.168 217.751 175.2 218.423C176.62 219.349 178.082 220.227 179.593 220.995C182.079 222.256 184.786 222.815 187.522 223.221C189.19 223.469 190.86 223.62 192.523 223.145C193.762 222.791 195.024 222.513 196.25 222.12C200.218 220.85 202.948 218.266 204.079 214.235C205.649 208.641 204.255 203.712 200.358 199.469C199.082 198.08 197.478 197.16 195.668 196.617C193.139 195.858 190.595 195.693 187.98 196.221C182.907 197.244 178.464 199.438 174.761 203.075C174.593 203.239 174.043 204.071 173.977 204.286C173.663 205.312 173.545 205.849 173.397 207.395C173.381 207.572 173.391 207.759 173.391 207.997C173.692 207.91 176.488 207.409 177.626 207.241C179.283 206.998 180.937 206.733 182.598 206.529C184.465 206.3 186.342 206.152 188.21 205.925C190.101 205.695 191.988 205.423 193.872 205.14C194.221 205.088 194.507 205.131 194.614 205.444C194.682 205.645 194.641 205.971 194.513 206.135C193.246 207.761 193.255 209.459 194.157 211.229C194.42 211.744 194.706 212.251 194.923 212.786C195.235 213.553 195.115 214.299 194.48 214.833C193.757 215.441 193.454 216.162 193.486 217.088C193.506 217.665 193.175 217.938 192.595 217.905C192.355 217.891 192.111 217.845 191.881 217.774C190.654 217.396 189.451 216.915 188.202 216.636C184.816 215.881 181.412 215.202 178.012 214.508C176.57 214.213 175.12 213.956 173.59 213.666V213.666ZM173.415 212.886C173.966 212.951 174.397 212.969 174.813 213.056C180.069 214.157 184.302 215.053 189.556 216.158C190.011 216.254 191.923 216.902 192.383 216.916C192.574 216.922 192.635 216.152 192.696 215.943C192.94 215.106 193.231 214.922 193.665 214.331C193.959 213.929 194.111 213.551 193.951 213.094C193.805 212.674 193.618 212.265 193.417 211.867C192.746 210.544 192.303 209.179 192.589 207.67C192.673 207.227 192.772 206.787 192.881 206.267L173.415 208.377V212.886V212.886ZM170.695 211.608C170.726 212.142 170.698 213.051 170.85 213.929C171.047 215.06 171.365 216.173 171.684 217.279C171.767 217.565 171.962 217.926 172.423 217.762C173.083 217.528 173.23 217.303 173.123 216.737C172.337 212.589 172.193 208.43 172.905 204.254C172.937 204.067 172.941 203.765 172.715 203.644C172.489 203.524 172.157 203.739 172.062 203.897C171.787 204.354 171.546 204.852 171.4 205.364C170.853 207.284 170.734 209.261 170.695 211.608V211.608ZM170.206 217.488C169.649 215.908 169.474 214.302 169.44 212.672C169.389 210.182 169.523 207.711 170.195 205.294C170.342 204.765 169.845 204.413 169.559 204.389C169.429 204.378 169.063 204.483 168.904 204.788C168.701 205.178 168.607 205.618 168.579 206.051C168.472 207.723 168.296 209.407 168.387 211.073C168.498 213.095 168.812 215.11 169.121 217.115C169.257 217.992 169.411 218 170.206 217.488L170.206 217.488Z" fill="black"/>
</g>
<g clip-path="url(#clip7_5423_1570)">
<path d="M166.941 198.32C166.252 198.32 165.591 198.358 164.949 198.434C161.338 198.857 157.178 199.679 153.701 202.557C153.573 202.664 153.444 202.77 153.315 202.876C151.739 204.173 150.251 205.398 149.368 207.271C147.407 211.435 147.566 215.101 149.855 218.479C150.012 218.711 150.164 218.95 150.31 219.18C150.45 219.399 150.593 219.626 150.74 219.843C151.717 221.291 152.162 222.862 152.064 224.512C151.985 225.839 151.878 227.184 151.775 228.486C151.753 228.765 151.731 229.044 151.709 229.324C151.636 230.245 151.661 231.204 152.326 231.976C152.351 232.005 152.369 232.039 152.38 232.076C152.392 232.112 152.395 232.151 152.39 232.188C152.386 232.226 152.373 232.263 152.354 232.296C152.334 232.328 152.308 232.357 152.277 232.379C150.941 233.331 150.771 234.309 151.689 235.756C151.726 235.814 151.739 235.885 151.727 235.953C151.714 236.022 151.676 236.082 151.62 236.124C151.597 236.14 151.574 236.157 151.552 236.174C151.5 236.213 151.448 236.252 151.394 236.289C150.88 236.647 150.588 237.084 150.549 237.553C150.511 238.012 150.721 238.478 151.155 238.9C151.393 239.131 151.668 239.325 151.959 239.53C152.108 239.635 152.263 239.744 152.411 239.858C152.913 240.243 153.958 240.64 153.968 240.644C154.032 240.668 154.085 240.715 154.116 240.776C155.119 242.742 156.772 243.824 159.169 244.084C160.737 244.254 162.055 243.84 163.086 242.854C163.241 242.706 163.415 242.486 163.417 242.483C163.442 242.451 163.474 242.425 163.511 242.407C163.548 242.389 163.589 242.379 163.63 242.379C163.651 242.378 165.783 242.357 166.677 242.197C168.148 241.935 168.484 241.454 168.242 239.96C168.231 239.892 168.246 239.822 168.284 239.764C168.322 239.707 168.381 239.666 168.448 239.65C169.399 239.42 170.057 238.932 170.253 238.311C170.408 237.821 170.254 237.278 169.819 236.783C169.778 236.736 169.754 236.677 169.752 236.615C169.749 236.553 169.767 236.491 169.803 236.441C169.893 236.317 169.978 236.195 170.062 236.075C170.247 235.811 170.422 235.562 170.619 235.321C170.72 235.196 170.821 235.072 170.922 234.947C171.461 234.282 172.018 233.594 172.606 232.949L172.692 232.855C173.546 231.918 174.429 230.949 175.386 230.083C175.996 229.531 176.676 229.048 177.334 228.581C177.568 228.415 177.81 228.243 178.045 228.072C179.715 226.848 181.293 225.305 182.87 223.356C185.037 220.679 185.915 217.705 185.556 214.263C185.117 210.061 183.212 206.439 179.734 203.189C177.779 201.363 175.34 200.203 173.009 199.17C172.746 199.054 172.442 198.963 172.051 198.886C170.135 198.507 168.468 198.32 166.941 198.32L166.941 198.32Z" fill="white"/>
<path d="M170.025 236.601C171.17 237.907 170.513 239.432 168.512 239.916C168.773 241.523 168.37 242.174 166.725 242.467C165.798 242.632 163.632 242.653 163.632 242.653C163.632 242.653 163.447 242.888 163.276 243.052C162.147 244.132 160.723 244.528 159.14 244.356C156.936 244.117 155.034 243.178 153.871 240.9C153.871 240.9 152.785 240.491 152.244 240.076C151.818 239.748 151.347 239.469 150.964 239.097C149.939 238.1 150.066 236.878 151.238 236.064C151.313 236.012 151.385 235.956 151.457 235.902C150.434 234.291 150.693 233.171 152.118 232.155C151.403 231.325 151.354 230.33 151.435 229.302C151.561 227.7 151.695 226.099 151.79 224.496C151.888 222.854 151.431 221.357 150.512 219.996C150.21 219.547 149.932 219.081 149.628 218.633C147.105 214.909 147.263 211.095 149.12 207.153C150.103 205.066 151.833 203.747 153.526 202.346C156.835 199.606 160.792 198.645 164.917 198.161C167.333 197.877 169.729 198.146 172.104 198.616C172.449 198.685 172.799 198.777 173.12 198.919C175.554 199.997 177.974 201.169 179.921 202.988C183.17 206.023 185.353 209.683 185.828 214.234C186.194 217.732 185.295 220.796 183.084 223.528C181.64 225.313 180.059 226.935 178.207 228.293C177.318 228.944 176.384 229.549 175.57 230.286C174.592 231.172 173.7 232.157 172.809 233.134C172.118 233.892 171.479 234.698 170.831 235.494C170.552 235.836 170.309 236.209 170.026 236.602L170.025 236.601ZM166.612 235.288C168.9 235.788 169.685 235.656 170.813 234.096C171.535 233.096 172.273 232.105 173.052 231.15C173.46 230.65 173.938 230.19 174.446 229.789C176.104 228.482 177.808 227.233 179.461 225.92C181.172 224.561 182.604 222.953 183.73 221.061C185.168 218.644 185.565 216.057 185.017 213.342C184.427 210.417 182.979 207.844 181.058 205.642C177.508 201.575 172.933 199.313 167.511 199.356C163.174 199.39 159.028 200.611 155.133 202.56C152.263 203.996 150.46 206.353 149.527 209.378C148.656 212.205 148.904 214.915 150.58 217.424C150.86 217.843 151.112 218.283 151.417 218.684C153.085 220.885 153.534 223.369 153.196 226.057C153.037 227.316 152.928 228.582 152.817 229.847C152.751 230.6 153.085 231.169 153.764 231.479C154.676 231.895 156.673 232.73 156.673 232.73C156.673 232.73 157.042 229.185 157.183 227.664C157.33 226.085 157.443 224.503 157.601 222.925C157.781 221.127 158.029 219.335 158.183 217.535C158.335 215.772 158.379 214 158.534 212.238C158.572 211.813 158.763 211.202 159.066 211.057C159.363 210.914 159.934 211.182 160.312 211.398C161.576 212.119 162.79 212.927 164.057 213.643C165.42 214.414 166.886 214.923 168.461 215.013C170.065 215.104 171.674 215.108 173.277 215.217C174.165 215.277 175.07 215.385 175.919 215.634C176.966 215.942 177.341 216.888 176.877 217.873C176.625 218.408 176.29 218.921 175.912 219.377C173.151 222.698 170.998 226.422 168.801 230.115C167.838 231.734 167.051 233.439 166.612 235.288L166.612 235.288ZM159.714 212.353C159.514 212.196 159.445 212.512 159.431 212.614C159.136 214.797 158.795 216.976 158.565 219.166C158.28 221.875 158.091 224.594 157.854 227.308C157.711 228.943 157.283 232.959 157.283 232.959C157.283 232.959 160.219 233.881 161.355 234.162C162.402 234.421 164.972 234.935 164.972 234.935C164.972 234.935 165.715 232.871 166.099 232.109C168.371 227.591 170.984 223.283 174.121 219.306C174.464 218.871 175.003 218.097 175.141 217.911C175.278 217.725 174.66 217.36 174.452 217.293C172.798 216.758 171.675 216.672 170.175 216.677C166.812 216.689 163.857 215.52 161.184 213.552C160.647 213.157 159.803 212.422 159.714 212.352L159.714 212.353ZM168.571 238.552C168.973 238.47 169.347 238.287 169.381 237.823C169.414 237.367 169.103 237.114 168.703 236.973C168.492 236.899 168.276 236.838 168.059 236.786C166.99 236.532 165.928 236.237 164.849 236.041C160.992 235.339 157.211 234.362 153.487 233.141C153.19 233.043 152.671 233.283 152.409 233.53C152.21 233.716 152.109 234.232 152.225 234.479C152.42 234.892 152.754 235.371 153.149 235.534C154.471 236.082 155.817 236.624 157.205 236.942C159.182 237.395 161.205 237.642 163.207 237.987C164.639 238.233 168.226 238.623 168.571 238.552L168.571 238.552ZM164.401 241.503C164.902 241.497 165.722 241.4 166.52 241.232C166.8 241.173 167.179 240.843 167.226 240.584C167.306 240.153 166.872 239.981 166.493 239.895C166.221 239.834 165.942 239.79 165.664 239.771C162.899 239.58 160.178 239.119 157.515 238.362C155.976 237.925 154.464 237.393 152.943 236.892C152.487 236.742 152.051 236.687 151.708 237.09C151.347 237.512 151.441 237.984 151.727 238.385C151.95 238.697 152.237 238.991 152.556 239.199C152.926 239.44 153.347 239.634 153.772 239.755C157.141 240.715 160.572 241.548 164.401 241.503V241.503Z" fill="black"/>
</g>
<g clip-path="url(#clip8_5423_1570)">
<path d="M141.469 206.561C141.3 206.561 141.129 206.562 140.956 206.564C138.597 206.595 136.476 207.398 134.474 209.017C132.675 210.473 131.181 212.257 130.033 214.323C128.393 217.273 127.152 220.644 126.239 224.628C125.868 226.245 125.532 227.973 125.844 229.768C125.856 229.839 125.84 229.911 125.8 229.97C125.76 230.029 125.698 230.07 125.628 230.084C123.919 230.432 122.862 231.203 122.2 232.584C121.614 233.806 121.454 234.954 122.096 236.058C122.397 236.576 121.926 236.683 121.517 236.507C119.743 235.74 118.382 239.436 120.37 241.918C120.596 242.2 120.583 242.748 120.356 243.16C118.985 245.65 125.451 250.353 127.653 249.094C129.477 248.052 134.385 248.887 134.138 247.288C133.526 246.955 133.882 246.083 134.292 246.241C135.419 246.676 137.088 246.327 137.447 246.201C138.451 245.849 139.017 245.127 139.237 243.961C139.266 243.809 139.319 243.555 139.319 243.555C139.33 243.505 139.354 243.458 139.39 243.421C139.426 243.384 139.471 243.358 139.521 243.345C143.419 242.377 147.363 240.847 150.926 238.921C153.243 237.668 156.157 235.855 158.134 232.933C159.894 230.332 161.643 227.154 161.273 223.313C160.783 218.231 159.055 214.688 155.836 212.164C155.794 212.131 155.414 211.803 155.414 211.803C153.914 210.542 152.364 209.238 150.579 208.367C148.031 207.123 145.204 206.561 141.469 206.561Z" fill="white"/>
<path d="M125.574 229.815C125.26 228.006 125.579 226.279 125.971 224.567C126.802 220.946 127.981 217.45 129.793 214.189C130.951 212.106 132.446 210.305 134.301 208.804C136.242 207.234 138.401 206.324 140.953 206.29C144.338 206.245 147.626 206.62 150.7 208.12C152.612 209.053 154.219 210.441 155.837 211.8C155.894 211.848 155.947 211.902 156.006 211.948C159.684 214.832 161.114 218.802 161.546 223.286C161.908 227.032 160.357 230.137 158.361 233.087C156.521 235.806 153.887 237.632 151.057 239.162C147.483 241.094 143.543 242.629 139.588 243.612C139.588 243.612 139.535 243.862 139.507 244.012C139.164 245.829 138.016 246.582 136.219 246.715C135.274 246.784 134.599 246.462 133.917 246.006C131.65 244.49 129.366 242.994 127.161 241.39C125.2 239.963 123.589 238.133 122.183 236.184C121.42 235.126 121.309 233.808 121.953 232.465C122.698 230.91 123.924 230.151 125.574 229.815L125.574 229.815ZM135.783 239.78C136.671 240.507 137.167 241.066 138.33 241.752C139.412 242.391 140.695 242.642 141.896 242.361C144.456 241.761 146.888 240.804 149.191 239.54C152.56 237.69 155.324 235.092 157.917 232.305C159.088 231.047 159.757 229.502 160.091 227.817C160.435 226.075 160.446 224.313 160.23 222.567C160.088 221.41 159.926 220.188 159.437 219.153C158.069 216.256 156.41 213.545 153.912 211.415C151.223 209.122 148.343 207.343 144.691 207.19C141.282 207.047 138.121 207.829 135.337 209.827C133.219 211.348 131.699 213.412 130.48 215.696C128.446 219.506 127.427 223.602 126.848 227.866C126.651 229.317 126.881 230.576 127.533 231.659C127.722 231.972 128.721 233.266 129.699 234.174C129.834 233.911 129.921 233.746 130.003 233.58C131.733 230.061 133.434 226.527 135.209 223.031C135.772 221.922 136.468 220.862 137.233 219.88C137.646 219.349 138.147 218.906 138.755 218.576C139.199 218.335 139.894 218.527 140.245 218.913C140.746 219.464 141.225 220.046 141.635 220.667C142.671 222.234 143.844 223.371 145.936 223.542C148.708 223.768 150.564 225.374 151.258 228.16C151.285 228.269 151.32 228.375 151.356 228.481C151.633 229.295 151.485 229.732 150.751 230.17C150.383 230.39 150.004 230.593 149.616 230.778C144.643 233.151 140.203 236.345 135.783 239.78V239.78ZM134.941 238.98C135.124 238.833 136.196 237.85 136.72 237.402C139.041 235.424 141.563 233.722 144.238 232.247C146.043 231.251 147.671 230.541 149.533 229.65C149.919 229.466 150.33 229.276 150.045 228.772C149.872 228.466 149.715 228.146 149.534 227.842C148.944 226.851 148.273 225.948 147.133 225.511C146.227 225.165 145.344 224.762 144.44 224.411C142.973 223.841 141.862 222.862 141.043 221.532C140.711 220.993 140.389 220.446 140.051 219.911C139.723 219.393 139.412 219.308 138.892 219.62C138.639 219.772 138.382 219.957 138.206 220.188C137.654 220.914 137.047 221.621 136.627 222.423C134.531 226.423 130.29 234.754 130.29 234.754C130.29 234.754 133.471 237.587 134.941 238.98L134.941 238.98Z" fill="black"/>
<path d="M134.437 247.903C134.41 249.514 132.717 250.576 131.226 250.011C127.63 248.647 124.659 246.397 122.039 243.62C121.198 242.728 120.214 241.978 119.64 240.848C119.138 239.857 118.79 238.851 119.04 237.729C119.285 236.632 120.262 236.05 121.266 236.384C121.381 236.422 121.506 236.48 121.584 236.566C122.597 237.689 123.591 238.829 124.611 239.945C126.459 241.967 128.517 243.76 130.756 245.329C131.76 246.033 132.86 246.609 133.95 247.176C134.336 247.377 134.485 247.593 134.437 247.903ZM120.356 243.16C122.567 245.171 124.24 247.035 127.653 249.095C127.303 249.417 126.625 249.938 125.98 249.901C125.646 249.882 125.299 249.886 124.983 249.792C123.085 249.223 121.507 248.157 120.33 246.565C119.521 245.471 119.599 244.123 120.356 243.16Z" fill="black"/>
</g>
<g clip-path="url(#clip9_5423_1570)">
<path d="M106.144 244.259C106.208 244.259 106.27 244.281 106.319 244.322C106.369 244.364 106.402 244.421 106.413 244.484C106.589 245.446 107.16 246.032 108.112 246.224C110.209 246.647 112.122 246.239 113.8 245.012C114.691 244.359 115.658 243.26 115.202 241.724C115.098 241.376 114.826 240.809 114.823 240.803C114.797 240.75 114.789 240.69 114.801 240.632C114.812 240.574 114.841 240.521 114.885 240.481C114.891 240.475 115.499 239.918 115.739 239.566C116.48 238.479 116.44 237.546 115.622 236.794C115.477 236.661 115.038 236.348 114.881 236.239C114.83 236.203 114.792 236.151 114.775 236.091C114.757 236.031 114.761 235.966 114.785 235.908C115.622 233.883 115.425 233.421 114.195 232.659C114.163 232.64 114.136 232.614 114.115 232.583C114.093 232.552 114.078 232.518 114.071 232.481C114.063 232.445 114.063 232.407 114.071 232.37C114.078 232.334 114.093 232.299 114.115 232.269C114.324 231.969 114.545 231.676 114.758 231.391C115.227 230.768 115.669 230.18 116.008 229.53C118.618 224.531 119.319 219.38 118.092 214.221C117.122 210.143 114.967 207.213 111.504 205.264C106.904 202.675 102.439 201.919 97.8549 202.953C94.346 203.744 91.5207 205.508 89.4573 208.197C87.4742 210.781 86.248 213.37 85.7084 216.112L85.6484 216.416C85.3503 217.923 85.0419 219.481 85.1155 220.977C85.2548 223.813 86.3277 226.478 88.2182 228.683C90.7756 231.666 93.4345 233.786 96.3466 235.162C97.2774 235.602 99.7424 236.722 99.7673 236.733C99.8318 236.763 99.8825 236.816 99.9087 236.882C99.9349 236.948 99.9346 237.021 99.9078 237.087C99.8812 237.153 99.2647 238.737 100.511 239.828C100.704 239.997 100.958 240.11 101.227 240.231C101.368 240.293 101.513 240.358 101.657 240.434C101.695 240.455 101.728 240.484 101.753 240.52C101.778 240.555 101.795 240.596 101.801 240.64C101.806 240.683 101.802 240.727 101.788 240.768C101.773 240.809 101.749 240.846 101.718 240.876C101.624 240.965 101.473 241.115 101.428 241.173C101.113 241.577 100.981 242.008 101.047 242.421C101.113 242.835 101.373 243.205 101.8 243.492C102.337 243.853 103.026 244.123 103.691 244.231C104.231 244.319 104.787 244.299 105.375 244.278C105.626 244.268 105.887 244.259 106.144 244.259H106.144Z" fill="white"/>
<path d="M114.339 232.426C115.764 233.309 115.875 233.991 115.038 236.014C115.038 236.014 115.617 236.417 115.807 236.592C116.691 237.404 116.811 238.479 115.965 239.721C115.704 240.104 115.07 240.684 115.07 240.684C115.07 240.684 115.353 241.272 115.465 241.646C115.904 243.126 115.161 244.356 113.961 245.233C112.194 246.526 110.192 246.924 108.057 246.493C107.057 246.291 106.352 245.675 106.144 244.533C105.311 244.533 104.46 244.635 103.647 244.502C102.952 244.389 102.23 244.112 101.646 243.72C100.648 243.049 100.47 241.955 101.211 241.004C101.289 240.904 101.529 240.677 101.529 240.677C101.113 240.458 100.663 240.326 100.33 240.034C98.9153 238.796 99.6537 236.983 99.6537 236.983C99.6537 236.983 97.1728 235.856 96.2294 235.41C92.9768 233.873 90.3197 231.556 88.01 228.862C86.0922 226.625 84.9858 223.929 84.8415 220.991C84.7613 219.359 85.1196 217.684 85.4393 216.059C86.0263 213.076 87.3972 210.431 89.2397 208.03C91.4237 205.184 94.34 203.464 97.7946 202.685C102.712 201.576 107.263 202.562 111.638 205.025C115.31 207.092 117.411 210.175 118.358 214.157C119.65 219.587 118.811 224.755 116.251 229.657C115.739 230.638 114.991 231.494 114.339 232.426ZM110.802 232.021C111.477 231.81 112.121 231.62 112.756 231.42C114.619 230.834 115.902 229.697 116.514 227.82C117.982 223.323 118.185 218.799 117.087 214.171C116.182 210.356 113.974 207.72 110.518 206.01C107.872 204.701 105.096 203.758 102.208 203.228C98.821 202.606 95.7247 203.429 93.0143 205.58C92.2982 206.148 91.6478 206.799 90.9455 207.385C89.4997 208.592 88.475 210.096 87.8947 211.871C87.3491 213.539 86.8654 215.227 86.4446 216.931C85.2712 221.685 86.4631 225.806 89.9374 229.234C91.0516 230.334 92.2406 231.372 93.4834 232.322C95.6583 233.986 98.052 235.154 100.885 235.126C101.41 235.12 101.597 235.028 101.597 235.028C101.597 235.028 99.949 231.954 99.7808 231.664C97.1458 227.117 95.9114 224.344 93.8723 219.498C93.7017 219.092 94.0038 218.535 94.3309 218.373C94.7423 218.171 95.2633 218.189 95.7061 218.113C96.7525 217.933 97.5293 217.508 97.9696 216.325C98.0537 216.1 98.539 215.321 98.9965 215.165C99.8309 214.879 100.725 215.116 101.359 215.378C102.417 215.815 103.588 215.49 105.175 215.011C106.074 214.74 106.679 214.711 107.181 214.825C107.538 214.906 107.819 215.177 107.859 215.82C107.92 216.786 107.948 217.766 108.133 218.712C108.738 221.806 109.416 224.885 110.048 227.974C110.319 229.303 110.546 230.641 110.802 232.021ZM102.995 234.704C105.181 233.974 110.134 232.287 110.134 232.287C110.134 232.287 109.103 227.57 108.716 225.556C108.169 222.702 107.699 219.832 107.164 216.975C106.936 215.752 106.12 215.394 105.02 215.999C104.63 216.214 104.29 216.518 103.918 216.766C103.251 217.211 102.567 217.357 101.819 216.92C101.451 216.705 101.047 216.544 100.647 216.392C99.646 216.012 99.2283 216.149 98.6506 217.039C97.933 218.145 97.0119 218.85 95.6053 218.742C94.9802 218.695 94.8086 218.929 94.8845 219.544C95.0346 220.759 95.5829 221.819 96.1859 222.855C97.3797 224.905 98.58 226.952 99.7867 228.995C100.879 230.843 101.853 232.789 102.995 234.704L102.995 234.704ZM104.477 243.721C105.768 243.737 107.018 243.437 108.212 243.099C109.622 242.701 110.968 242.078 112.345 241.559C113.468 241.136 114.325 240.372 115.042 239.441C115.714 238.569 115.63 238.134 114.715 237.522C114.591 237.44 114.461 237.332 114.324 237.312C114.145 237.287 113.884 237.418 113.755 237.513C110.956 239.559 107.835 240.424 104.392 240.629C103.687 240.671 102.903 240.77 102.369 241.047C102.157 241.157 101.861 241.649 101.843 241.913C101.789 242.682 102.164 243.196 102.913 243.423C103.424 243.577 103.959 243.715 104.477 243.722L104.477 243.721ZM103.093 239.149C106.126 239.308 109.242 238.043 112.059 237.018C112.453 236.874 113.097 236.588 113.431 236.325C114.469 235.509 114.636 234.795 114.079 233.597C113.929 233.274 113.448 233.025 113.106 233.145C112.791 233.257 112.49 233.407 112.174 233.515C108.679 234.701 105.213 235.979 101.594 236.761C101.19 236.848 100.649 236.968 100.645 237.537C100.638 238.238 100.902 238.615 101.445 238.843C102.007 239.08 102.481 239.117 103.093 239.149L103.093 239.149Z" fill="black"/>
</g>
<g clip-path="url(#clip10_5423_1570)">
<path d="M131.564 194.339C130.716 194.339 130.006 194.535 129.384 194.932C128.795 195.308 128.668 195.7 128.663 195.717C128.634 195.82 128.548 195.894 128.441 195.91C127.783 196.01 127.321 196.091 126.919 196.293C125.975 196.766 125.662 197.502 125.904 198.681C125.934 198.828 126.014 199.33 125.774 199.619C125.57 199.866 125.321 200.065 125.081 200.257C124.968 200.348 124.86 200.434 124.757 200.524C124.203 201.011 123.957 201.697 124.026 202.563C124.07 203.121 123.933 203.479 123.554 203.799C123.35 203.971 123.144 204.142 122.939 204.312C122.492 204.683 122.031 205.066 121.593 205.458C119.658 207.187 117.799 208.913 116.312 211.007C113.688 214.702 113.187 218.969 114.823 223.689C115.469 225.551 116.374 227.669 118.198 229.26C120.625 231.378 123.332 232.445 126.267 232.445C126.857 232.445 127.457 232.402 128.065 232.315C132.361 231.704 135.656 229.657 137.858 226.231C139.798 223.214 139.783 219.842 139.479 216.649C139.216 213.886 138.158 211.272 137.188 209.038C136.913 208.403 136.639 207.769 136.365 207.133C136.332 207.057 136.328 206.972 136.366 206.899C136.404 206.827 136.465 206.776 136.545 206.759C136.599 206.74 137.138 206.519 137.277 205.283C137.292 205.152 137.293 204.973 137.293 204.8C137.295 204.373 137.304 204.101 137.408 203.922C137.495 203.775 137.652 203.583 137.818 203.38C137.958 203.21 138.103 203.034 138.168 202.926C138.637 202.149 138.583 201.402 138.009 200.705C137.871 200.538 137.717 200.38 137.554 200.212C137.472 200.128 137.391 200.044 137.311 199.96C137.262 199.908 137.235 199.839 137.236 199.768C137.237 199.697 137.265 199.628 137.315 199.578C137.826 199.062 137.897 198.773 137.663 198.175C137.445 197.62 137.223 197.156 136.985 196.755C136.073 195.221 134.506 194.796 132.98 194.492C132.468 194.39 131.998 194.339 131.564 194.339Z" fill="white"/>
<path d="M137.51 199.772C137.763 200.041 138.007 200.273 138.22 200.531C138.865 201.314 138.929 202.198 138.402 203.069C138.248 203.324 137.793 203.809 137.645 204.062C137.525 204.266 137.593 204.924 137.549 205.315C137.379 206.828 136.616 207.025 136.616 207.025C136.616 207.025 137.254 208.503 137.439 208.93C138.514 211.404 139.495 213.931 139.752 216.624C140.073 219.998 140.023 223.372 138.088 226.381C135.744 230.028 132.333 231.987 128.104 232.588C124.261 233.135 120.919 232 118.018 229.469C116.267 227.941 115.302 225.908 114.564 223.78C112.991 219.242 113.244 214.855 116.089 210.848C117.586 208.739 119.486 206.974 121.411 205.254C122.051 204.682 122.721 204.143 123.378 203.59C123.692 203.324 123.79 203.052 123.753 202.585C123.687 201.752 123.891 200.922 124.576 200.319C124.907 200.028 125.286 199.78 125.563 199.445C125.691 199.292 125.682 198.965 125.636 198.737C125.377 197.478 125.713 196.591 126.796 196.048C127.232 195.83 127.71 195.745 128.4 195.64C128.4 195.64 128.538 195.148 129.237 194.702C130.408 193.953 131.726 193.964 133.034 194.224C134.686 194.553 136.28 195.034 137.221 196.616C137.495 197.078 137.721 197.575 137.918 198.076C138.199 198.792 138.089 199.187 137.51 199.772L137.51 199.772ZM126.187 204.707C125.728 204.611 125.354 204.474 124.97 204.347C124.363 204.147 123.833 204.391 123.317 204.733C121.173 206.156 119.455 208.02 117.842 209.991C116.707 211.379 115.891 212.952 115.343 214.659C114.407 217.571 114.361 220.498 115.201 223.442C115.957 226.087 117.768 227.894 119.893 229.469C121.277 230.495 122.827 231.111 124.522 231.293C126.69 231.525 128.876 231.786 131.015 231.081C135.742 229.523 138.919 225.242 139.148 220.072C139.345 215.595 137.813 211.594 135.627 207.803C134.984 206.688 133.989 206.186 132.582 206.053C132.563 206.235 132.536 206.556 132.531 206.72C132.368 211.953 132.21 217.185 132.043 222.417C132.027 222.919 132.013 223.433 131.896 223.916C131.687 224.783 131.051 225.111 130.233 224.75C129.505 224.429 128.81 224.024 128.131 223.605C127.576 223.263 127.022 223.047 126.39 223.307C125.257 223.771 124.397 223.413 123.71 222.468C123.611 222.333 123.491 222.213 123.383 222.084C122.813 221.411 122.087 221.172 121.226 221.305C120.821 221.368 120.416 221.448 120.008 221.482C118.706 221.591 118.083 220.837 118.532 219.604C118.811 218.839 119.207 218.105 119.633 217.408C121.997 213.546 124.087 209.542 125.897 205.392C125.992 205.175 126.082 204.955 126.187 204.707ZM126.712 204.784C126.615 205.075 126.557 205.29 126.474 205.495C125.842 207.048 125.261 208.623 124.555 210.141C123.918 211.51 123.151 212.819 122.427 214.146C121.435 215.965 120.428 217.774 119.433 219.591C119.118 220.166 119.284 220.429 119.933 220.396C120.23 220.381 120.525 220.313 120.823 220.304C121.94 220.274 122.983 220.425 123.674 221.469C123.858 221.746 124.105 221.985 124.342 222.222C124.79 222.67 125.329 222.842 125.928 222.6C127.458 221.98 128.844 222.368 130.18 223.162C130.655 223.444 130.933 223.333 130.971 222.791C131.091 221.1 131.271 219.408 131.274 217.716C131.278 214.485 131.173 211.254 131.119 208.023C131.107 207.284 131.118 206.544 131.118 205.792L126.712 204.784V204.784ZM126.452 200.64C126.22 200.658 125.756 200.715 125.323 200.856C125.086 200.932 124.701 201.373 124.64 201.582C124.399 202.398 124.588 203.357 125.807 203.691C126.023 203.75 126.235 203.822 126.453 203.871C128.902 204.43 131.347 205.007 133.803 205.529C134.503 205.678 135.237 205.709 135.956 205.708C136.35 205.708 136.716 205.481 136.798 205.022C136.885 204.54 136.856 204.089 136.356 203.809C136.03 203.627 135.73 203.394 135.394 203.24C134.344 202.761 133.296 202.271 132.22 201.856C130.441 201.168 128.607 200.465 126.452 200.64ZM137.315 203.185C138.178 202.536 137.775 201.75 137.323 201.273C135.282 199.12 132.927 197.47 129.975 196.835C128.948 196.614 127.918 196.474 127.002 197.255C126.463 197.715 126.685 198.656 126.782 199.188C126.782 199.188 127.222 199.203 127.57 199.248C129.524 199.503 130.55 199.769 131.774 200.127C133.442 200.615 135.525 201.334 137.315 203.185Z" fill="black"/>
</g>
<g clip-path="url(#clip11_5423_1570)">
<path d="M84.1353 222.86C83.0663 216.91 78.0599 211.904 72.2312 210.955C70.7646 210.717 69.2239 210.708 67.7339 210.699C67.2449 210.696 66.7393 210.693 66.2428 210.682C65.3428 210.662 64.4412 210.746 63.595 210.835C61.9988 211.001 60.1191 211.206 58.2789 211.465C57.7117 211.545 56.8643 211.74 56.1168 211.913C55.6658 212.017 55.2398 212.116 54.9003 212.184C54.8492 212.194 54.7961 212.189 54.7475 212.17C54.6989 212.151 54.6566 212.119 54.6257 212.077C54.5948 212.035 54.5765 211.985 54.573 211.933C54.5694 211.881 54.5808 211.829 54.6057 211.783C54.6108 211.747 54.6186 211.638 54.5879 211.387C54.5612 211.169 54.3712 210.869 54.115 210.641C53.3808 209.987 51.6998 210.048 51.0411 210.775C50.4579 211.419 49.7314 210.931 49.9635 210.444C50.0081 210.35 49.924 210.008 49.7429 209.818C49.3109 209.363 48.6112 209.101 47.9406 209.101C47.8232 209.101 47.704 209.109 47.5841 209.125C46.7829 209.236 46.0311 209.435 45.6555 210.068C45.4341 210.441 44.8809 210.254 44.965 210.028C45.0857 209.703 44.6615 209.599 44.2944 209.622C43.9066 209.646 43.3928 209.803 43.2496 209.862C42.3063 210.248 41.6915 211.147 41.149 211.94C40.0926 213.484 39.4997 214.904 39.3868 216.159C39.3114 216.998 39.5402 217.712 40.0861 218.341C40.2219 218.497 40.6764 218.97 40.8556 218.896C40.9423 218.86 41.0792 218.783 41.3271 218.91C41.5749 219.037 41.5425 219.303 41.5186 219.635C41.4664 220.361 41.8563 221.194 42.0495 221.524C42.4183 222.155 43.0381 222.532 43.7081 222.409C43.8575 222.382 44.3205 222.252 44.4931 222.019C44.6772 221.771 45.5099 221.91 45.2699 222.576C45.0737 223.119 45.6064 223.974 45.7061 224.135C46.1382 224.834 46.9711 225.267 47.8379 225.189C48.2778 225.149 48.501 224.984 48.5032 224.982C48.5511 224.944 48.6107 224.923 48.6722 224.923C48.6868 224.923 48.7016 224.924 48.7165 224.926C48.7928 224.939 48.8591 224.984 48.9014 225.048C49.2473 225.577 49.73 226.294 50.1969 226.987C50.712 227.752 51.2446 228.543 51.6219 229.122C52.9326 231.136 54.2521 233.191 55.5282 235.179L56.3577 236.471C57.9376 238.931 59.6665 240.56 61.7988 241.599C63.7652 242.557 65.9034 243.023 68.3352 243.023C72.5675 243.023 75.8658 240.753 76.4841 240.298C77.7544 239.363 79.1756 237.909 80.193 236.503C80.4418 236.159 80.7069 235.823 80.9633 235.498C81.6763 234.595 82.3496 233.742 82.7552 232.675C83.8109 229.9 84.8005 226.563 84.1353 222.86Z" fill="white"/>
<path d="M68.3352 243.298C65.9961 243.298 63.7891 242.874 61.6786 241.846C59.2747 240.674 57.5428 238.824 56.1268 236.619C54.5521 234.168 52.9814 231.714 51.392 229.272C50.6703 228.163 49.3962 226.306 48.6719 225.199C48.6719 225.199 48.4035 225.414 47.8624 225.462C46.6733 225.569 45.53 224.818 45.2115 223.687C45.118 223.355 45.1128 222.917 45.2526 222.613C46.8735 219.086 48.5187 215.57 50.1884 212.066C50.4415 211.535 50.801 211.033 51.1984 210.597C51.963 209.757 53.4536 209.685 54.2973 210.436C54.5588 210.669 54.8202 211.026 54.8602 211.354C54.9225 211.865 54.8465 211.915 54.8465 211.915C55.7568 211.733 57.3236 211.322 58.2407 211.194C60.0106 210.945 61.7885 210.748 63.5664 210.562C64.4568 210.469 65.356 210.388 66.2489 210.408C68.2605 210.452 70.3031 210.364 72.2753 210.685C78.2585 211.658 83.335 216.855 84.4053 222.812C85.0314 226.296 84.2369 229.552 83.0116 232.773C82.4373 234.283 81.3311 235.398 80.4153 236.664C79.4065 238.058 77.9772 239.54 76.6467 240.519C75.4003 241.436 72.2327 243.298 68.3352 243.298V243.298ZM53.767 214.608C54.6342 214.844 55.427 215.058 56.2185 215.276C59.9471 216.305 63.6737 217.341 67.4048 218.36C68.8287 218.749 70.2706 219.073 71.6895 219.478C72.813 219.799 73.0285 220.462 72.3673 221.409C72.0469 221.868 71.7222 222.331 71.3453 222.743C69.5363 224.717 68.6617 227.096 68.2094 229.688C68.0305 230.712 67.7396 231.724 67.4198 232.715C67.1835 233.448 66.7612 234.101 66.081 234.526C65.9555 234.605 65.7575 234.637 65.6354 234.63C64.8841 234.587 64.261 234.087 63.7175 233.639C62.6385 232.749 61.6044 231.789 60.651 230.765C58.5961 228.559 56.4477 226.46 54.0693 224.604C52.9687 223.746 51.8494 222.911 50.7157 222.048C50.4538 222.608 49.9238 223.659 49.6027 224.21C49.6027 224.21 49.7071 224.633 50.0399 225.197C51.501 227.674 52.9253 230.172 54.3926 232.645C55.7245 234.889 57.3387 236.91 59.2074 238.743C62.8508 242.316 67.2326 242.997 71.9858 241.959C75.0498 241.291 77.3336 239.216 79.2051 236.892C82.2157 233.154 83.6627 228.769 83.1234 223.931C82.6818 219.969 80.9259 216.664 77.5215 214.392C74.9474 212.674 72.1273 211.781 69.0128 211.605C65.0634 211.381 61.1723 211.538 57.3577 212.426C56.4775 212.631 54.3801 213.323 54.3801 213.323C54.3801 213.323 53.9543 214.195 53.7668 214.608H53.767ZM70.7507 220.868C70.8503 220.417 68.0096 219.925 67.7996 219.864C64.4291 218.892 63.2843 218.713 59.9208 217.717C57.8823 217.114 53.2448 215.626 53.2448 215.626L51.2491 220.62C51.2491 220.62 52.5466 221.717 52.9955 222.137C53.8412 222.929 54.62 223.798 55.5081 224.537C58.1573 226.741 60.5966 229.157 62.9309 231.685C63.4377 232.234 63.9707 232.759 64.528 233.257C64.6687 233.382 64.9567 233.424 65.156 233.388C65.7412 233.282 66.0338 232.824 66.1826 232.308C66.6991 230.517 67.2432 228.73 67.6653 226.915C68.1074 225.015 68.4697 223.474 69.8303 222.011C70.0574 221.767 70.6511 221.319 70.7507 220.868V220.868ZM41.8127 221.663C42.2426 222.398 43.0116 222.759 43.7831 222.618C44.5937 222.469 45.4802 220.089 45.834 219.359C47.2496 216.439 48.5681 213.374 49.9634 210.444C50.0598 210.242 49.994 209.836 49.8445 209.662C48.6982 208.329 46.3103 208.64 45.5585 210.254C44.3012 212.953 43.0978 215.678 41.907 218.407C41.6428 219.013 41.4438 219.655 41.4663 220.361C41.4814 220.833 41.5847 221.273 41.8126 221.663H41.8127ZM39.8789 218.521C40.079 218.751 40.4651 218.913 40.7859 218.914C40.9814 218.914 41.0986 218.522 41.1654 218.283C41.9214 215.573 42.9204 212.976 44.5725 210.666C44.7809 210.374 45.1442 209.917 44.9618 209.618C44.8132 209.375 44.4963 209.339 44.2833 209.348C43.8559 209.365 43.3182 209.538 43.1457 209.608C42.145 210.018 41.5032 210.937 40.9226 211.785C39.9779 213.166 39.2444 214.679 39.1135 216.134C39.0224 217.148 39.3511 217.913 39.8789 218.521Z" fill="black"/>
</g>
<defs>
<clipPath id="clip0_5423_1570">
<rect width="122.295" height="137.127" fill="white" transform="translate(54.8228 68.8145)"/>
</clipPath>
<clipPath id="clip1_5423_1570">
<rect width="160.749" height="60.564" fill="white" transform="translate(50.634 159.455)"/>
</clipPath>
<clipPath id="clip2_5423_1570">
<rect width="20.806" height="30.6253" fill="white" transform="translate(171.487 205.117)"/>
</clipPath>
<clipPath id="clip3_5423_1570">
<rect width="50.264" height="138.363" fill="white" transform="translate(46.7886 104.59)"/>
</clipPath>
<clipPath id="clip4_5423_1570">
<rect width="14.4887" height="13.2527" fill="white" transform="translate(54.7539 132.193)"/>
</clipPath>
<clipPath id="clip5_5423_1570">
<rect width="42.2987" height="52.4613" fill="white" transform="translate(149.857 55.5625)"/>
</clipPath>
<clipPath id="clip6_5423_1570">
<rect width="41.0627" height="29.8013" fill="white" transform="translate(164.964 194.887)"/>
</clipPath>
<clipPath id="clip7_5423_1570">
<rect width="38.1787" height="46.35" fill="white" transform="translate(147.729 198.045)"/>
</clipPath>
<clipPath id="clip8_5423_1570">
<rect width="42.642" height="43.878" fill="white" transform="translate(118.957 206.286)"/>
</clipPath>
<clipPath id="clip9_5423_1570">
<rect width="34.1273" height="44.4273" fill="white" transform="translate(84.8301 202.233)"/>
</clipPath>
<clipPath id="clip10_5423_1570">
<rect width="26.2993" height="38.6593" fill="white" transform="translate(113.602 194.062)"/>
</clipPath>
<clipPath id="clip11_5423_1570">
<rect width="45.526" height="34.4707" fill="white" transform="translate(39.0981 208.826)"/>
</clipPath>
</defs>
</svg>
