<svg width="260" height="260" viewBox="0 0 260 260" fill="none" xmlns="http://www.w3.org/2000/svg">
<circle cx="130.723" cy="130.723" r="97.5" fill="#FFC3AA"/>
<g clip-path="url(#clip0_5423_1551)">
<path d="M84.581 153.182C83.8711 157.681 86.3188 162.53 83.547 165.391C78.367 170.748 72.0251 173.411 64.7501 174.801C64.133 173.762 63.4702 172.049 63.1632 170.558C61.5475 158.764 71.2354 156.216 72.3547 149.046C73.1069 146.485 72.0716 143.893 71.8129 141.037C71.109 122.415 93.8505 113.314 103.388 125.491C108.256 130.281 97.749 138.176 94.6967 139.947C90.9568 142.26 86.8827 142.43 82.2818 142.814C75.6769 145.128 78.3991 152.78 84.581 153.182Z" fill="white"/>
<path d="M174.943 140.752C181.629 134.172 181.736 146.154 175.679 147.536C175.007 147.825 174.738 148.111 174.686 148.815C174.738 151.693 175.708 154.17 175.533 156.96C172.822 161.545 168.079 167.566 162.303 166.202C157.696 162.271 163.986 153.625 156.232 152.582C153.41 149.802 157.675 144.394 151.646 144.241C151.301 144.023 151.289 143.685 151.288 143.004C151.466 139.56 154.879 137.795 154.671 134.246C153.379 117.867 156.46 129.153 160.171 131.566C161.84 132.902 163.586 132.985 165.496 134.046C168.435 137.079 170.387 140.197 174.943 140.752L174.943 140.752Z" fill="white"/>
<path d="M106.054 130.957C106.869 133.448 106.697 136.497 107.294 139.424C107.922 141.592 111.961 142.937 110.444 145.851C105.946 148.574 109.805 150.374 108.442 154.031C107.691 155.952 105.167 155.841 104.093 157.562C102.873 158.651 104.664 161.126 102.872 161.211C96.8322 160.9 86.6757 162.894 87.113 160.801C86.8339 158.331 87.703 154.927 86.8819 152.695C82.5136 152.269 79.6634 150.237 81.9624 145.91C83.1076 143.374 85.2175 143.767 87.8684 143.607C95.4568 142.6 102.56 136.537 106.054 130.957Z" fill="white"/>
<path d="M25.2237 129.524C26.3059 129.115 26.8425 127.956 26.8336 126.048C27.108 126.092 27.3681 126.135 27.7007 126.189C25.7695 132.107 31.0592 131.676 33.988 127.999C31.9904 126.245 31.4915 128.532 29.5629 129.605C28.4359 130.542 29.0622 128.268 29.3254 126.899C30.1347 124.112 31.9144 122.72 34.2448 120.905C39.2702 120.164 29.9609 139.253 29.7038 140.945C26.2243 139.57 22.2903 139.966 18.6772 142.056C18.8312 137.778 19.9416 133.894 20.4463 129.87C21.4541 131.661 25.1145 132.686 25.2237 129.524Z" fill="white"/>
<path d="M162.755 226.017C164.705 226.19 172.158 229.351 171.368 226.713C167.702 224.985 162 225.439 158.463 221.937C161.007 222.137 172.416 226.583 171.462 223.807C167.631 221.864 161.574 222.738 157.664 219.718C162.604 218.556 168.141 221.335 173.479 221.556C178.144 217.929 165.753 216.292 164.056 214.42C169.836 213.628 175.487 217.133 181.036 219.081C176.833 221.342 175.601 226.804 177.456 231.226C172.699 230.584 166.323 228.907 162.755 226.017Z" fill="white"/>
<path d="M177.721 231.429L177.433 231.39C172.613 230.739 166.198 229.02 162.649 226.145L162.228 225.804L162.769 225.852C163.349 225.904 164.365 226.201 165.54 226.545C167.64 227.16 170.517 228.002 171.144 227.378C171.262 227.26 171.29 227.081 171.227 226.83C169.897 226.217 168.304 225.887 166.619 225.537C163.661 224.924 160.602 224.289 158.345 222.054L158.024 221.737L158.476 221.772C159.297 221.837 160.971 222.319 162.908 222.878C166.131 223.808 170.546 225.081 171.267 224.332C171.3 224.297 171.399 224.195 171.323 223.923C169.718 223.127 167.735 222.821 165.637 222.497C162.783 222.057 159.832 221.602 157.561 219.849L157.287 219.637L157.625 219.557C160.638 218.848 163.925 219.599 167.102 220.326C169.184 220.802 171.335 221.293 173.423 221.388C174.115 220.838 174.424 220.314 174.342 219.831C174.11 218.46 170.978 217.39 168.216 216.446C166.235 215.769 164.524 215.184 163.932 214.531L163.721 214.299L164.033 214.256C168.367 213.662 172.647 215.466 176.785 217.211C178.201 217.807 179.664 218.424 181.091 218.925L181.445 219.049L181.115 219.226C177.221 221.321 175.681 226.564 177.609 231.162L177.721 231.428L177.721 231.429ZM163.395 226.298C166.9 228.83 172.691 230.384 177.194 231.023C175.419 226.462 176.904 221.354 180.64 219.116C179.312 218.635 177.963 218.067 176.655 217.515C172.677 215.838 168.568 214.104 164.446 214.54C165.171 215.055 166.709 215.581 168.324 216.133C171.314 217.155 174.406 218.211 174.671 219.776C174.776 220.399 174.41 221.042 173.581 221.686L173.533 221.724L173.471 221.721C171.333 221.633 169.144 221.132 167.027 220.648C163.874 219.928 160.889 219.245 158.057 219.803C160.221 221.328 162.998 221.756 165.688 222.171C167.841 222.503 169.874 222.816 171.537 223.66L171.597 223.69L171.619 223.754C171.735 224.092 171.698 224.363 171.508 224.56C170.709 225.391 167.401 224.519 162.815 223.196C161.244 222.743 159.848 222.34 158.961 222.175C161.109 224.057 163.942 224.645 166.687 225.214C168.421 225.574 170.059 225.913 171.439 226.564L171.506 226.596L171.527 226.666C171.649 227.075 171.6 227.393 171.38 227.612C170.612 228.375 167.867 227.572 165.446 226.862C164.686 226.64 163.956 226.426 163.395 226.298L163.395 226.298Z" fill="white"/>
<path d="M28.0082 125.301C25.5104 123.411 24.3381 118.353 24.7225 115.204C26.708 116.365 29.2441 123.52 28.0082 125.301Z" fill="white"/>
<path d="M25.0468 127.951C23.591 125.136 22.0503 122.128 22.4792 118.539C23.9707 120.475 25.6478 125.945 25.0468 127.951Z" fill="white"/>
<path d="M21.0809 123.316C21.5462 125.718 23.8261 128.141 23.5487 130.793C21.8191 129.818 20.0161 124.702 21.0809 123.316Z" fill="white"/>
<path d="M145.445 224.818V196.212L115.057 177.555L122.733 170.559L139.65 162.786L169.35 157.033H181.036L192.594 160.92L205.909 169.16L215.62 178.177L226.585 193.102L232.068 208.338L231.52 218.716L228.935 224.818L222.474 231.6L215.013 234.574L200.622 236.614L181.036 233.524L177.831 229.735L177.126 226.528L178.477 221.864L186.936 219.241L203.97 219.474L210.256 217.783L211.665 214.306L212.135 210.67L208.258 203.557L203.559 201.867L199.976 218.12L199.917 220.523L161.384 225.246L145.445 224.818Z" fill="white"/>
<path d="M171.558 219.306C169.223 217.783 165.697 217.395 163.473 215.246C162.849 212.996 165.321 212.37 167.389 212.542C172.197 213.382 176.386 215.636 180.844 217.622C182.168 218.758 182.993 218.586 184.938 218.392C189.677 218.208 193.531 218.771 198.28 218.251C199.275 218.371 198.864 217.467 199.07 216.447C199.867 211.388 200.902 207.045 201.533 201.82C201.664 200.657 202.222 200.714 203.518 200.689C209.68 200.766 213.114 207.789 212.798 213.339C212.132 227.177 191.524 220.479 183.563 221.508C167.879 225.34 186.272 235.652 193.902 234.723C267.521 240.44 216.603 159.149 177.609 158.7C174.78 161.86 172.307 166.302 167.36 166.916C161.461 167.847 158.269 167.015 157.908 160.918C144.757 161.959 131.079 165.757 120.455 173.871C130.253 179.166 139.548 185.893 147.51 193.859C149.079 197.75 147.674 203.042 147.924 207.525C147.265 212.921 149.429 226.881 146.702 226.556C142.629 228.236 145.623 218.258 144.862 216.413C140.604 212.571 134.826 210.068 130.707 205.703C130.909 230.555 133.462 226.592 125.207 226.951C107.104 227.61 88.2156 226.125 70.8884 227.628C66.6688 198.535 75.3873 204.385 56.0389 203.283C28.4255 200.047 8.4935 167.375 16.9734 142.636C16.7785 135.844 19.0871 128.478 19.8068 121.638C21.4739 120.882 20.9622 117.799 21.9141 117.505C22.3938 116.995 23.2535 117.604 23.3058 116.354C23.2685 115.374 23.69 114.679 25.0715 114.806C28.5795 114.902 28.5447 119.772 29.9115 122.615C31.0115 121.676 32.4438 119.912 34.3513 119.986C44.0718 119.507 31.9372 137.274 30.9727 140.98C35.93 147.349 33.6424 155.384 35.6291 162.746C39.4554 172.86 51.3127 176.664 61.3949 175.175C54.9968 157.792 70.6743 155.597 70.2181 144.874C62.7813 116.694 106.483 110.276 109.745 132.291C108.686 144.408 113.342 140.181 112.31 145.577C112.069 146.687 110.842 146.728 110.339 147.614C110.122 150.169 112.412 153.51 110.155 155.734C108.968 156.907 106.43 156.7 106.03 158.685C103.893 167.51 112.262 170.017 118.233 172.825C120.149 171.293 122.772 169.121 125.161 167.833C150.189 154.303 163.284 162.66 156.934 153.791C155.707 153.298 153.317 152.862 153.257 150.872C153.125 140.191 148.937 148.544 149.248 141.495C154.828 132.839 151.443 134.362 152.857 128.142C152.953 126.85 154.297 125.423 153.663 124.059C151.422 121.222 149.569 116.619 151.856 113.135C160.193 102.911 166.763 112.731 171.963 117.594C174.525 119.145 178.36 118.824 181.348 120.243C188.31 122.807 188.903 128.042 191.029 133.558C199.414 145.852 189.754 155.562 177.722 153.698C178.148 154.844 177.218 156.514 179.455 156.398C185.118 157.451 189.831 158.094 195.097 160.553C215.802 171.762 239.672 199.025 231.445 220.34C223.442 239.95 202.939 238.699 187.614 237.034C179.981 234.045 172.44 232.559 164.901 229.141C161.506 227.648 160.088 225.466 157.786 222.711C152.897 213.756 167.654 219.147 171.558 219.306ZM84.5808 153.182C78.5776 152.431 76.3092 146.923 81.0249 143.259C84.2446 142.439 87.5077 142.296 91.083 141.667C98.9481 138.481 111.065 128.7 99.8993 122.214C89.8402 116.057 75.6844 123.223 72.8029 134.162C70.2296 141.078 73.9333 145.125 71.894 150.772C68.4472 157.591 61.0142 162.492 63.2943 171.141C64.0164 172.421 63.6018 174.777 65.4092 174.656C72.6423 173.327 79.3813 170.082 84.3589 164.505C85.5034 161.279 84.133 156.953 84.5807 153.182L84.5808 153.182ZM174.942 140.752C170.692 140.309 168.181 136.999 165.496 134.046C155.219 131.214 155.752 120.956 154.293 127.996C153.957 130.186 154.602 131.807 154.67 134.246C155.248 137.691 149.897 141.073 151.646 144.241C152.866 144.739 154.891 144.362 155.006 146.063C155.613 149.358 153.99 152.687 158.737 153.415C162.74 155.888 158.016 164.437 162.967 166.436C169.034 166.757 173.156 161.155 175.633 156.565C175.595 153.874 174.536 151.072 174.786 148.255C184.268 143.241 179.42 135.101 174.942 140.752ZM106.054 130.957C103.611 135.192 99.1177 139.068 94.376 141.329C89.433 145.348 83.2964 141.509 81.5022 146.789C79.9641 153.34 84.8623 151.279 87.1365 153.11C87.4317 156.075 86.8507 158.719 87.2149 161.717C112.04 160.919 99.5756 162.325 105.222 156.418C106.693 155.88 107.984 155.114 108.624 153.633C109.404 148.745 106.047 149.144 110.628 145.501C111.669 142.013 106.665 141.382 107.003 137.731C106.752 135.325 106.802 133.507 106.054 130.958V130.957ZM25.2236 129.524C25.1986 132.504 21.5994 131.846 20.4461 129.869C19.9414 133.893 18.8308 137.778 18.677 142.056C26.5585 137.454 29.5093 142.904 30.1789 139.717C31.2429 136.646 39.4641 118.253 33.7795 121.24C32.0206 122.621 30.2931 124.162 29.4782 126.407C29.3344 127.399 27.9157 130.985 30.012 129.324C31.3202 128.552 32.1233 126.237 33.9881 127.999C31.1954 131.419 25.8004 132.478 27.7008 126.188C27.3682 126.134 27.1083 126.092 26.8337 126.047C26.8426 127.956 26.306 129.115 25.2238 129.524L25.2236 129.524ZM162.754 226.017C166.218 228.831 172.612 230.596 177.455 231.227C175.76 227.138 176.609 221.341 181.036 219.082C175.518 217.054 169.049 213.512 164.056 214.421C166.004 216.207 179.279 218.651 172.81 221.601C167.73 221.005 162.578 218.695 157.664 219.719C161.086 222.063 166.444 222.489 170.615 223.253C175.251 227.106 159.481 221.902 158.463 221.937C164.306 227.01 172.159 224.819 171.357 227.368C170.546 228.842 164.318 226.058 162.755 226.017L162.754 226.017ZM203.348 203.85C203.776 208.522 200.949 213.912 201.997 218.097C219.333 218.782 208.166 204.167 203.348 203.85ZM28.0083 125.301C29.1073 122.618 26.8027 116.721 24.7226 115.204C24.2861 118.21 25.639 123.662 28.0083 125.301ZM25.0468 127.951C25.5184 125.427 24.0808 120.845 22.4792 118.539C22.0692 121.773 23.4127 124.931 25.0468 127.951ZM21.081 123.316C20.1304 125.136 21.7426 129.707 23.5489 130.793C23.8041 128.077 21.7205 126.156 21.081 123.316Z" fill="black"/>
<path d="M45.4465 96.6247C44.8129 98.6218 44.8322 101.948 43.1526 103.427C41.6884 103.154 38.6245 106.863 35.4267 111.477C33.3271 114.164 33.5364 116.337 33.131 118.633C31.7673 121.683 29.8321 124.576 28.9038 121.312C27.8815 118.208 28.9171 116.328 29.3585 113.661C29.6154 109.94 29.0912 105.053 28.2495 102.652C27.4629 99.1821 25.1187 102.385 25.5174 98.741C26.1559 96.9379 25.0834 94.2102 27.3292 93.4385C33.1577 94.1314 39.5475 94.9568 45.4465 96.6247Z" fill="white"/>
<path d="M31.7726 120.945C32.2551 119.145 32.7156 117.427 33.1985 115.627C28.2637 113.977 29.5915 116.626 28.3343 119.808C26.6795 117.52 30.5067 114.138 26.7922 112.851C21.1214 108.575 22.8385 96.6315 24.4888 92.4285C27.6887 91.263 31.9814 92.7977 35.4294 93.23C39.6739 94.4659 44.5817 94.2445 48.0637 97.1468C46.6999 103.484 44.6354 111.01 37.9115 114.483C36.8622 115.017 36.0608 115.161 34.7041 115.452C33.1032 116.605 34.5132 120.312 31.7726 120.945ZM45.4461 96.6249C40.4418 95.2393 35.2654 94.4019 29.8943 93.7543C26.9209 93.444 26.1529 92.6229 25.8326 96.3661C26.0826 97.5589 24.1301 100.567 26.6292 100.695C46.0686 103.536 43.1965 106.072 45.4461 96.6249Z" fill="black"/>
<path d="M23.4322 131.323C23.2727 131.533 22.9199 132.174 22.7672 132.375C25.5253 133.367 28.9055 134.682 31.881 133.742C31.1625 132.719 28.3873 133.275 28.7894 131.371C29.0793 131.272 28.8193 129.616 30.0846 130.571C29.5674 132.172 32.7642 132.36 32.4564 134.727C31.8256 136.956 23.4558 133.981 22.0348 133.424C20.498 131.708 21.0002 130.608 23.4322 131.323Z" fill="black"/>
</g>
<defs>
<clipPath id="clip0_5423_1551">
<rect width="218.11" height="145.89" fill="white" transform="translate(15 92)"/>
</clipPath>
</defs>
</svg>
