<svg width="260" height="260" viewBox="0 0 260 260" fill="none" xmlns="http://www.w3.org/2000/svg">
<circle cx="130.722" cy="130.722" r="97.5" fill="#FFC3AA"/>
<g clip-path="url(#clip0_5423_1624)">
<path d="M146.302 64.9846L215.241 62.2334L219.207 196.916L147.6 199.767L146.302 64.9846Z" fill="white"/>
<path d="M219.207 196.916C198.839 198.509 178.178 199.269 157.63 200.425C142.344 201.304 146.626 202.17 146.094 189.269C145.825 147.774 146.724 106.27 146.302 64.9845C169.06 63.1909 192.283 63.0672 215.241 62.2332C216.919 62.091 215.963 65.2071 216.254 66.4419C217.014 87.2841 216.642 111.66 217.724 111.224C216.766 118.202 217.838 125.8 217.74 133.057C218.281 154.392 218.603 175.55 219.207 196.916H219.207ZM215.688 110.912C215.532 95.2644 215.071 79.4937 214.737 63.6646C209.261 63.341 203.134 64.1699 197.397 64.1438C178.939 65.109 183.471 61.6581 183.516 72.865C184.251 86.3634 184.78 99.2405 185.487 112.772C202.802 112.596 210.365 110.153 215.688 110.912ZM177.069 113.769C176.42 97.4293 175.703 81.1351 175.407 64.7547C166.091 65.0426 156.717 65.3787 147.351 65.4739C147.676 82.1355 147.252 99.1376 147.726 115.852C164.491 116.753 170.719 113.954 177.069 113.769ZM190.698 165.048C209.707 162.901 203.307 138.648 200.992 125.882C201.277 123.609 199.303 122.329 198.72 120.078C198.183 119.274 198.386 118.021 197.04 118.314C192.45 118.762 188.419 119.097 183.792 119.453C173.576 120.871 165.691 119.695 164.468 122.707C163.483 124.125 162.394 125.414 162.089 127.163C162.922 129.433 162.605 131.729 162.506 134.198C161.224 146.62 162.539 154.234 169.023 161.998C178.128 168.995 182.46 165.057 173.809 163.565C173.037 163.188 172.687 162.469 172.509 161.548C172.582 156.506 169.912 158.774 169.947 156.124C170.161 154.72 171.17 153.979 171.217 152.385C170.883 149.721 170.579 147.343 171.554 144.667C174.297 137.074 185.379 135.473 191.369 139.606C198.032 143.75 200.231 152.907 196.718 159.756C194.459 160.835 192.338 161.931 189.641 161.83L190.698 165.048H190.698ZM147.6 199.767C167.935 198.604 163.225 200.946 165.46 191.852C166.287 186.898 168.577 179.052 165.769 176.23C159.088 173.388 154.618 167.369 151.877 160.807C144.223 141.644 153.428 132.401 153.035 122.128L147.61 122.513C147.642 148.164 147.461 173.915 147.6 199.767ZM217.569 195.763C217.398 173.854 216.585 151.806 216.19 129.703C215.613 113.349 218.055 116.715 209.014 117.252C210.003 119.044 210.247 121.194 210.191 123.217C212.184 127.609 213.262 132.261 214.614 136.951C216.179 144.994 215.366 153.054 213.178 160.915C211.569 165.435 208.47 168.594 205.76 172.414C203.814 175.402 203.543 178.479 203.256 182.016C202.924 185.275 202.293 188.113 202.285 191.456C202.738 193.271 200.801 196.809 202.085 196.708C207.316 196.298 212.314 196.267 217.569 195.763L217.569 195.763ZM184.111 114.009C181.067 56.1393 183.656 65.4142 179.514 64.6412C176.478 64.9637 175.761 63.7083 176.263 67.1568C177.011 79.7805 177.688 91.9044 178.042 104.577C178.266 106.461 178.348 108.883 178.273 110.913C178.41 111.724 179.135 114.862 177.846 114.775C165.35 116.578 160.746 117.794 150.038 117.421C147.891 117.605 147.31 117.02 147.608 119.551C147.766 120.04 147.276 121.19 147.823 121.441C149.639 121.337 151.313 121.065 153.266 120.923C162.831 120.041 171.85 119.183 181.424 118.301C219.11 114.671 215.732 116.709 215.809 113.456C217.047 110.157 203.133 113.745 201.725 113.399C195.759 113.761 190.216 114.013 184.111 114.009V114.009ZM170.824 156.509C170.998 156.922 171.402 157.415 171.918 157.651C173.95 158.085 173.256 160.322 173.717 162.003C174.893 165.512 179.935 161.467 179.381 166.596C179.289 167.414 179.825 167.797 180.419 168.492C184.366 171.993 188.162 169.642 189.362 165.63C188.746 162.966 187.683 160.668 186.456 158.087C185.205 156.263 189.902 156.936 187.831 153.229C187.132 152.46 186.577 152.589 185.438 152.644C179.797 152.622 174.993 145.666 173.813 141.911C170.78 145.006 171.5 149.065 172.093 152.98C172.046 154.35 170.915 155.02 170.824 156.509L170.824 156.509ZM201.777 117.869C201.889 119.82 200.212 119.32 199.319 118.11C198.964 118.205 198.331 118.129 199.04 118.86C200.157 120.369 200.432 122.198 202.004 123.523C204.064 122.287 206.716 121.306 209.262 122.183C208.447 114.972 206.357 117.963 201.777 117.869V117.869ZM164.677 121.243C163.085 120.614 162.864 122.161 161.639 122.558C160.572 122.602 161.29 121.481 160.275 121.517C158.127 121.711 156.005 121.846 153.682 122.09C154.07 123.198 153.757 124.282 154.085 125.311C156.701 124.621 159.131 125.021 161.526 126.323C162.023 124.289 163.313 122.743 164.677 121.243ZM200.955 118.899L201.027 117.877L199.923 118.137L200.955 118.899ZM161.311 122.098C161.625 121.911 161.888 121.78 162.053 121.452C161.721 121.282 161.482 121.419 161.211 121.53L161.311 122.098Z" fill="black"/>
<path d="M149.391 200.92C147.835 200.92 146.962 200.745 146.457 200.245C145.759 199.553 145.828 198.276 145.954 195.957C146.041 194.339 146.161 192.123 146.043 189.272C145.917 169.79 146.05 149.994 146.179 130.849C146.325 109.238 146.475 86.8898 146.252 64.9854L146.251 64.9385L146.298 64.9348C162.254 63.6773 178.697 63.2337 194.599 62.8045C201.372 62.6218 208.376 62.4327 215.239 62.1835C215.531 62.1587 215.767 62.2308 215.939 62.3981C216.396 62.8428 216.337 63.8705 216.28 64.8646C216.245 65.4721 216.212 66.0459 216.302 66.4309C216.605 74.6934 216.727 83.4104 216.834 91.1012C216.982 101.669 217.11 110.795 217.68 111.174C217.691 111.181 217.697 111.181 217.705 111.178L217.785 111.145L217.773 111.231C217.166 115.654 217.379 120.408 217.584 125.006C217.703 127.66 217.826 130.403 217.79 133.058C218.026 142.365 218.224 151.795 218.415 160.914C218.661 172.692 218.917 184.871 219.257 196.915L219.258 196.962L219.211 196.966C205.387 198.048 191.191 198.757 177.462 199.443C170.959 199.768 164.235 200.105 157.632 200.476C156.394 200.547 155.276 200.619 154.289 200.682C152.165 200.818 150.579 200.92 149.391 200.92ZM146.353 65.0312C146.575 86.9212 146.425 109.254 146.28 130.85C146.151 149.994 146.017 169.79 146.143 189.269C146.261 192.124 146.141 194.342 146.054 195.962C145.93 198.252 145.862 199.513 146.528 200.173C147.386 201.024 149.547 200.885 154.283 200.582C155.27 200.518 156.388 200.447 157.627 200.376C164.23 200.004 170.954 199.668 177.457 199.343C191.169 198.658 205.348 197.949 219.156 196.87C218.816 184.842 218.561 172.679 218.315 160.916C218.124 151.797 217.926 142.368 217.69 133.059C217.726 130.405 217.603 127.663 217.484 125.01C217.279 120.429 217.067 115.691 217.666 111.277C217.651 111.273 217.637 111.266 217.625 111.258C217.039 110.868 216.911 103.714 216.734 91.1026C216.626 83.4123 216.504 74.696 216.204 66.4442C216.111 66.0547 216.144 65.4739 216.18 64.8588C216.235 63.8874 216.293 62.8828 215.869 62.4701C215.717 62.3219 215.513 62.2609 215.245 62.2836C208.379 62.5331 201.375 62.722 194.602 62.9049C178.717 63.3336 162.291 63.7768 146.353 65.0312ZM147.55 199.82L147.549 199.767C147.466 184.247 147.498 168.522 147.53 153.314C147.551 143.211 147.572 132.764 147.559 122.513V122.466L153.082 122.075L153.084 122.126C153.216 125.571 152.259 128.945 151.245 132.516C149.178 139.798 146.836 148.052 151.923 160.789C154.124 166.058 158.317 173.006 165.789 176.184L165.805 176.195C168.131 178.533 166.978 184.329 166.052 188.986C165.848 190.011 165.656 190.979 165.509 191.86C165.11 193.484 164.935 194.723 164.794 195.719C164.467 198.037 161.837 199.273 156.904 199.425C154.658 199.494 151.583 199.589 147.602 199.817L147.55 199.82ZM147.66 122.56C147.672 132.796 147.651 143.227 147.63 153.314C147.598 168.504 147.566 184.211 147.649 199.714C151.605 199.488 154.664 199.394 156.901 199.325C161.778 199.174 164.375 197.968 164.695 195.705C164.836 194.707 165.011 193.465 165.411 191.84C165.557 190.962 165.75 189.993 165.954 188.967C166.874 184.338 168.02 178.578 165.74 176.273C158.244 173.079 154.038 166.111 151.83 160.827C146.73 148.058 149.078 139.786 151.149 132.489C152.155 128.943 153.106 125.593 152.986 122.182L147.66 122.56L147.66 122.56ZM202.034 196.761C201.896 196.761 201.788 196.716 201.714 196.629C201.448 196.315 201.654 195.478 201.893 194.508C202.15 193.467 202.441 192.287 202.236 191.468L202.235 191.456C202.24 189.248 202.512 187.295 202.799 185.228C202.944 184.191 203.093 183.119 203.205 182.011C203.481 178.624 203.741 175.424 205.718 172.387C206.428 171.386 207.172 170.421 207.892 169.487C209.976 166.783 211.945 164.229 213.13 160.898C215.543 152.232 216.012 144.401 214.565 136.961C214.281 135.977 214.004 134.975 213.736 134.007C212.697 130.249 211.716 126.701 210.145 123.238L210.14 123.228L210.141 123.216C210.209 120.77 209.826 118.828 208.97 117.277L208.931 117.207L209.011 117.203C210.684 117.103 211.989 116.903 212.942 116.756C214.352 116.54 215.129 116.421 215.584 116.814C216.167 117.318 216.16 118.598 216.142 121.692C216.131 123.595 216.116 126.202 216.24 129.702C216.396 138.459 216.622 147.347 216.84 155.942C217.173 169.016 217.516 182.534 217.619 195.763L217.619 195.809L217.573 195.813C214.652 196.094 211.76 196.23 208.963 196.362C206.726 196.467 204.412 196.576 202.089 196.759C202.071 196.76 202.052 196.761 202.034 196.761ZM202.335 191.45C202.543 192.293 202.25 193.482 201.991 194.532C201.768 195.436 201.558 196.289 201.79 196.564C201.853 196.638 201.948 196.669 202.081 196.658C204.406 196.476 206.72 196.367 208.959 196.261C211.739 196.13 214.614 195.995 217.518 195.718C217.415 182.504 217.072 169.002 216.74 155.945C216.522 147.35 216.296 138.462 216.139 129.704C216.016 126.204 216.031 123.596 216.042 121.691C216.059 118.719 216.067 117.363 215.518 116.89C215.098 116.527 214.338 116.644 212.957 116.856C212.018 117 210.736 117.197 209.096 117.298C209.933 118.851 210.308 120.785 210.241 123.207C211.813 126.673 212.794 130.223 213.833 133.98C214.1 134.948 214.377 135.949 214.662 136.938C216.114 144.397 215.644 152.243 213.226 160.928C212.034 164.278 210.061 166.838 207.972 169.548C207.253 170.481 206.509 171.445 205.801 172.443C203.839 175.457 203.58 178.645 203.305 182.02C203.192 183.131 203.043 184.204 202.899 185.241C202.612 187.303 202.341 189.251 202.335 191.45L202.335 191.45ZM184.297 170.249C183.229 170.249 181.882 169.857 180.385 168.53C180.273 168.4 180.169 168.286 180.068 168.175C179.613 167.677 179.253 167.284 179.331 166.591C179.448 165.508 179.321 164.768 178.943 164.331C178.47 163.786 177.656 163.757 176.795 163.726C175.583 163.683 174.21 163.634 173.669 162.019C173.53 161.515 173.495 160.965 173.46 160.433C173.379 159.181 173.302 157.999 171.907 157.7L171.896 157.697C171.322 157.434 170.934 156.903 170.777 156.529L170.773 156.518L170.774 156.506C170.82 155.744 171.134 155.194 171.438 154.662C171.737 154.139 172.019 153.645 172.042 152.978L171.992 152.655C171.412 148.843 170.812 144.902 173.776 141.876L173.835 141.817L173.86 141.896C174.364 143.501 175.748 146.231 177.989 148.643C179.656 150.439 182.302 152.582 185.438 152.595C185.552 152.589 185.666 152.583 185.779 152.576C186.682 152.523 187.227 152.491 187.867 153.196L187.874 153.205C189.1 155.4 187.995 156.091 187.108 156.646C186.709 156.895 186.365 157.111 186.301 157.419C186.263 157.602 186.327 157.811 186.497 158.059C187.827 160.858 188.813 163.035 189.41 165.619L189.413 165.632L189.409 165.645C188.73 167.917 187.26 169.577 185.478 170.085C185.094 170.194 184.696 170.249 184.297 170.249L184.297 170.249ZM171.933 157.603C173.397 157.919 173.476 159.137 173.56 160.426C173.595 160.954 173.63 161.499 173.765 161.99C174.283 163.536 175.562 163.581 176.798 163.626C177.682 163.657 178.518 163.687 179.019 164.266C179.416 164.725 179.551 165.489 179.431 166.602C179.358 167.249 179.687 167.609 180.142 168.108C180.244 168.219 180.349 168.333 180.457 168.46C182.103 169.919 183.832 170.449 185.451 169.988C187.197 169.491 188.638 167.861 189.31 165.628C188.715 163.059 187.732 160.891 186.41 158.108C186.228 157.844 186.159 157.609 186.203 157.398C186.276 157.048 186.637 156.822 187.055 156.561C187.906 156.029 188.964 155.366 187.79 153.259C187.183 152.594 186.686 152.623 185.786 152.676C185.677 152.682 185.562 152.689 185.441 152.695C182.267 152.682 179.597 150.521 177.916 148.711C175.701 146.326 174.318 143.631 173.79 142.006C170.927 144.988 171.519 148.877 172.092 152.64L172.142 152.972C172.119 153.673 171.831 154.178 171.525 154.712C171.229 155.231 170.922 155.768 170.875 156.5C171.039 156.884 171.427 157.37 171.933 157.603ZM177.551 166.068C176.056 166.068 172.952 165.082 168.992 162.039L168.984 162.031C165.746 158.154 163.782 154.285 162.803 149.856C161.877 145.669 161.769 140.838 162.455 134.193C162.471 133.787 162.494 133.379 162.516 132.984C162.627 130.969 162.733 129.066 162.041 127.18L162.037 127.168L162.039 127.154C162.3 125.658 163.115 124.519 163.978 123.312C164.127 123.104 164.276 122.895 164.423 122.684C165.232 120.707 168.744 120.518 174.058 120.232C176.933 120.078 180.191 119.902 183.785 119.404C189.063 118.998 192.901 118.668 197.035 118.265C198.013 118.051 198.211 118.642 198.421 119.268C198.51 119.536 198.603 119.814 198.761 120.05L198.768 120.065C199.005 120.979 199.474 121.733 199.927 122.463C200.587 123.523 201.21 124.525 201.042 125.881C201.229 126.914 201.443 128.018 201.668 129.186C202.583 133.919 203.721 139.809 203.927 145.337C204.169 151.807 203.11 156.555 200.689 159.851C198.5 162.831 195.14 164.597 190.703 165.098L190.663 165.103L189.57 161.777L189.642 161.78C192.183 161.876 194.2 160.908 196.334 159.884L196.681 159.718C200.265 152.71 197.873 143.71 191.342 139.649C188.041 137.371 183.135 136.789 178.842 138.165C175.279 139.308 172.707 141.623 171.601 144.685C170.635 147.334 170.925 149.651 171.26 152.335L171.266 152.379C171.24 153.278 170.914 153.911 170.599 154.524C170.338 155.031 170.091 155.511 169.996 156.131C169.982 157.208 170.411 157.435 170.955 157.723C171.688 158.111 172.6 158.595 172.559 161.544C172.759 162.576 173.149 163.185 173.824 163.517C176.918 164.052 178.422 164.904 178.54 165.511C178.571 165.671 178.501 165.812 178.343 165.91C178.181 166.01 177.913 166.068 177.551 166.068L177.551 166.068ZM169.057 161.963C173.935 165.71 177.478 166.327 178.29 165.825C178.414 165.749 178.464 165.65 178.441 165.531C178.334 164.975 176.835 164.138 173.8 163.615L173.787 163.61C173.075 163.264 172.666 162.631 172.459 161.558L172.458 161.553V161.548C172.5 158.655 171.654 158.207 170.908 157.812C170.357 157.52 169.881 157.268 169.896 156.123C169.994 155.48 170.256 154.97 170.51 154.478C170.82 153.876 171.141 153.253 171.166 152.384L171.161 152.347C170.823 149.651 170.532 147.322 171.507 144.651C172.623 141.559 175.218 139.222 178.811 138.07C183.133 136.684 188.073 137.271 191.397 139.565C194.598 141.556 196.911 144.784 197.908 148.654C198.891 152.472 198.484 156.422 196.762 159.779L196.754 159.794L196.378 159.974C194.251 160.994 192.242 161.958 189.71 161.882L190.732 164.994C195.12 164.49 198.443 162.74 200.608 159.791C206.049 152.384 203.46 138.987 201.57 129.205C201.344 128.034 201.13 126.927 200.942 125.892L200.941 125.884L200.942 125.876C201.108 124.552 200.493 123.563 199.842 122.516C199.386 121.782 198.914 121.024 198.673 120.099C198.51 119.853 198.416 119.572 198.325 119.3C198.114 118.668 197.947 118.168 197.051 118.364C192.91 118.768 189.072 119.098 183.795 119.503C180.201 120.002 176.94 120.178 174.063 120.332C168.973 120.606 165.295 120.804 164.514 122.727L164.509 122.736C164.36 122.95 164.21 123.161 164.06 123.371C163.206 124.564 162.4 125.691 162.14 127.158C162.834 129.059 162.728 130.968 162.616 132.989C162.594 133.384 162.572 133.792 162.555 134.2C161.201 147.325 162.902 154.59 169.057 161.962L169.057 161.963ZM161.558 126.399L161.501 126.368C159.035 125.026 156.613 124.696 154.097 125.36L154.051 125.372L154.037 125.327C153.878 124.827 153.868 124.329 153.857 123.801C153.846 123.248 153.834 122.677 153.635 122.107L153.614 122.047L153.677 122.04C155.107 121.89 156.471 121.781 157.79 121.675C158.603 121.61 159.444 121.542 160.27 121.467C160.813 121.448 160.903 121.75 160.983 122.016C161.064 122.29 161.134 122.527 161.63 122.509C162.078 122.362 162.389 122.056 162.689 121.761C163.196 121.263 163.674 120.793 164.696 121.197L164.763 121.223L164.714 121.277C163.343 122.785 162.07 124.306 161.574 126.336L161.558 126.399ZM156.585 124.927C158.229 124.927 159.851 125.366 161.492 126.249C161.998 124.252 163.243 122.748 164.591 121.264C163.677 120.931 163.251 121.349 162.76 121.832C162.449 122.137 162.128 122.453 161.655 122.607L161.641 122.609C161.062 122.633 160.969 122.32 160.886 122.045C160.807 121.78 160.739 121.551 160.276 121.567C159.453 121.642 158.612 121.71 157.798 121.775C156.499 121.879 155.156 121.987 153.75 122.134C153.935 122.699 153.946 123.258 153.957 123.799C153.967 124.303 153.977 124.78 154.118 125.251C154.949 125.035 155.769 124.928 156.585 124.928L156.585 124.927ZM201.998 123.585L201.971 123.561C201.008 122.75 200.521 121.737 200.05 120.758C199.748 120.129 199.435 119.479 199 118.89C198.735 118.618 198.634 118.435 198.677 118.304C198.724 118.163 198.919 118.131 199.108 118.1C199.176 118.089 199.246 118.078 199.306 118.062L199.339 118.053L199.359 118.08C199.909 118.826 200.735 119.268 201.239 119.085C201.596 118.956 201.765 118.537 201.727 117.872L201.724 117.818L201.778 117.819C202.972 117.844 203.983 117.66 204.875 117.498C206.094 117.276 207.057 117.101 207.78 117.64C208.559 118.219 209.017 119.577 209.311 122.178L209.32 122.257L209.245 122.231C207.142 121.506 204.714 121.955 202.029 123.566L201.998 123.585V123.585ZM199.299 118.167C199.243 118.18 199.183 118.19 199.124 118.199C198.965 118.225 198.8 118.252 198.773 118.335C198.753 118.396 198.789 118.53 199.076 118.825C199.522 119.427 199.836 120.082 200.141 120.715C200.603 121.675 201.08 122.668 202.008 123.462C204.676 121.869 207.096 121.415 209.202 122.111C208.915 119.624 208.457 118.268 207.72 117.72C207.031 117.208 206.088 117.379 204.893 117.596C204.01 117.757 203.01 117.939 201.829 117.92C201.865 118.78 201.549 119.08 201.273 119.18C200.727 119.377 199.883 118.942 199.299 118.167V118.167ZM161.274 122.179L161.154 121.499L161.191 121.484C161.219 121.472 161.246 121.461 161.274 121.449C161.511 121.348 161.757 121.244 162.075 121.407L162.12 121.43L162.097 121.474C161.941 121.786 161.7 121.927 161.422 122.091L161.274 122.179ZM161.267 121.561L161.348 122.019L161.371 122.005C161.632 121.851 161.841 121.729 161.984 121.475C161.73 121.365 161.536 121.447 161.313 121.542L161.267 121.561ZM147.813 121.492L147.801 121.487C147.429 121.316 147.49 120.801 147.55 120.303C147.584 120.014 147.616 119.742 147.56 119.567C147.43 118.47 147.468 117.968 147.697 117.705C147.927 117.441 148.344 117.432 148.976 117.419C149.281 117.413 149.626 117.406 150.034 117.371C158.604 117.67 163.339 116.939 171.185 115.728C173.134 115.427 175.343 115.086 177.839 114.726L177.844 114.725L177.849 114.725C178.031 114.738 178.172 114.683 178.282 114.56C178.794 113.983 178.446 112.119 178.278 111.223C178.256 111.104 178.236 111.001 178.223 110.922L178.222 110.916L178.222 110.911C178.299 108.852 178.21 106.428 177.992 104.584C177.63 91.6384 176.914 78.998 176.212 67.1601C176.002 65.7165 176.016 65.1324 176.27 64.8496C176.503 64.5912 176.93 64.6077 177.578 64.6326C178.083 64.652 178.711 64.6763 179.508 64.5916L179.516 64.5908L179.523 64.5921C180.108 64.7014 180.552 64.6076 180.909 64.5321C181.235 64.4632 181.493 64.4087 181.692 64.565C182.213 64.9753 182.266 66.7191 182.488 74.0582C182.704 81.2193 183.067 93.1995 184.158 113.959C190.705 113.962 196.47 113.667 201.721 113.349L201.729 113.348L201.736 113.35C202.15 113.452 203.764 113.191 205.632 112.888C209.497 112.262 214.79 111.404 215.772 112.604C215.957 112.83 215.986 113.12 215.859 113.465C215.853 113.736 215.871 113.969 215.887 114.175C215.918 114.582 215.941 114.876 215.744 115.104C215.29 115.631 213.769 115.737 208.11 116.132C203.161 116.478 194.879 117.056 181.429 118.351C176.543 118.801 171.722 119.252 167.06 119.689C162.584 120.108 157.955 120.541 153.271 120.973C152.36 121.039 151.506 121.134 150.68 121.226C149.711 121.334 148.797 121.436 147.825 121.491L147.813 121.492L147.813 121.492ZM150.036 117.471C149.632 117.506 149.284 117.514 148.978 117.52C148.373 117.532 147.974 117.54 147.773 117.771C147.567 118.007 147.535 118.504 147.658 119.545C147.719 119.732 147.685 120.015 147.649 120.315C147.595 120.771 147.539 121.244 147.832 121.391C148.796 121.335 149.706 121.234 150.668 121.127C151.495 121.035 152.351 120.94 153.262 120.873C157.945 120.442 162.574 120.008 167.051 119.589C171.713 119.153 176.534 118.701 181.419 118.252C194.87 116.956 203.154 116.378 208.103 116.032C213.586 115.65 215.241 115.534 215.668 115.039C215.838 114.842 215.817 114.58 215.787 114.183C215.77 113.973 215.752 113.735 215.758 113.455L215.762 113.438C215.881 113.121 215.859 112.869 215.694 112.668C214.749 111.513 209.489 112.365 205.648 112.987C203.703 113.302 202.164 113.552 201.72 113.45C196.456 113.769 190.676 114.062 184.11 114.059H184.063L184.06 114.012C182.967 93.223 182.604 81.2281 182.388 74.0613C182.172 66.9394 182.114 65.0253 181.629 64.644C181.467 64.5166 181.242 64.5643 180.93 64.6303C180.566 64.7073 180.113 64.803 179.512 64.6922C178.711 64.7767 178.081 64.7524 177.574 64.7328C176.955 64.7089 176.546 64.6932 176.345 64.9166C176.117 65.17 176.109 65.7544 176.312 67.1499C177.014 78.9928 177.73 91.6341 178.092 104.576C178.31 106.419 178.399 108.847 178.323 110.91C178.336 110.988 178.355 111.088 178.376 111.205C178.547 112.116 178.902 114.013 178.357 114.626C178.228 114.771 178.057 114.838 177.848 114.826C175.355 115.185 173.148 115.526 171.2 115.827C163.349 117.039 158.61 117.77 150.036 117.471L150.036 117.471ZM200.999 118.994L199.805 118.113L201.081 117.813L200.999 118.993L200.999 118.994ZM200.039 118.161L200.911 118.804L200.972 117.942L200.039 118.161ZM154.04 116.079C152.109 116.079 150.012 116.025 147.723 115.902L147.676 115.9L147.675 115.854C147.417 106.745 147.426 97.4065 147.434 88.375C147.441 80.8445 147.448 73.0577 147.3 65.4754L147.299 65.4247L147.35 65.4242C155.203 65.3444 163.176 65.0915 170.887 64.847C172.395 64.7992 173.9 64.7515 175.405 64.7049L175.455 64.7033L175.456 64.7541C175.711 78.8446 176.287 93.1166 176.844 106.919C176.936 109.201 177.028 111.484 177.119 113.768L177.121 113.818L177.07 113.82C175 113.88 172.927 114.221 170.526 114.617C166.654 115.254 161.64 116.079 154.04 116.079H154.04ZM147.774 115.804C159.032 116.406 165.395 115.359 170.51 114.518C172.895 114.125 174.957 113.786 177.017 113.721C176.927 111.454 176.835 109.188 176.744 106.923C176.188 93.137 175.612 78.8816 175.357 64.8069C173.87 64.8528 172.381 64.9001 170.891 64.9473C163.196 65.1914 155.239 65.4437 147.401 65.524C147.548 73.0916 147.541 80.8607 147.534 88.3751C147.526 97.3905 147.518 106.713 147.774 115.804ZM185.439 112.823L185.436 112.775C185.115 106.631 184.827 100.53 184.548 94.6297C184.213 87.5543 183.867 80.2379 183.466 72.868C183.456 70.5094 183.249 68.8076 183.097 67.5649C182.918 66.097 182.82 65.2884 183.228 64.8296C183.732 64.2648 185.002 64.2727 187.784 64.29C189.995 64.3037 193.023 64.3226 197.394 64.094C199.849 64.1049 202.408 63.9579 204.884 63.8155C208.187 63.6257 211.602 63.4293 214.74 63.6147L214.786 63.6174L214.787 63.6637C214.887 68.3842 214.999 73.1748 215.108 77.8077C215.364 88.6837 215.628 99.93 215.737 110.911L215.738 110.97L215.68 110.961C213.211 110.61 210.21 110.954 206.058 111.431C201.287 111.978 194.752 112.728 185.487 112.822L185.439 112.823L185.439 112.823ZM186.554 64.3851C184.643 64.3851 183.699 64.4521 183.303 64.8965C182.925 65.3213 183.022 66.114 183.197 67.5529C183.349 68.798 183.556 70.5033 183.566 72.8652C183.967 80.2329 184.313 87.5494 184.648 94.625C184.926 100.51 185.214 106.595 185.534 112.721C194.769 112.625 201.285 111.878 206.046 111.331C210.174 110.857 213.166 110.514 215.636 110.854C215.527 99.892 215.263 88.6666 215.008 77.8103C214.899 73.1926 214.787 68.4179 214.688 63.7124C211.568 63.5319 208.173 63.7271 204.89 63.9159C202.413 64.0583 199.85 64.2057 197.397 64.1944C193.025 64.4231 189.996 64.4043 187.784 64.3904C187.335 64.3876 186.926 64.3851 186.554 64.3851H186.554Z" fill="black"/>
</g>
<g clip-path="url(#clip1_5423_1624)">
<path d="M49.1304 69.0833L122.196 67.459L126.638 149.41L49.1365 149.522L49.1304 69.0833Z" fill="white"/>
<path d="M49.1368 149.522C48.6896 124.139 48.2492 98.6872 47.9343 73.2056C48.168 70.6728 47.2697 67.008 48.5469 67.2608C91.0074 68.2372 120.989 65.7597 122.196 67.4587C123.811 85.8759 124.425 104.634 125.747 123.267C126.2 130.311 126.585 137.03 126.944 144.058C126.71 145.898 128.178 149.273 126.639 149.409C100.652 149.49 75.0411 150.099 49.1368 149.522ZM106.682 101.318C110.245 104.569 100.324 109.494 100.515 111.234C106.682 117.25 108.367 122.1 110.665 128.6C112.709 135.453 116.565 143.546 110.796 148.217C112.696 148.218 114.587 148.324 116.533 148.259C111.795 112.275 122.883 112.549 116.268 106.698C112.077 102.433 108.553 97.9748 105.829 92.5847C103.077 87.6877 101.524 82.4931 100.23 76.9414C97.7854 67.777 101.046 68.6765 95.553 68.7967C87.1731 68.9662 79.2275 68.8646 70.9062 69.1814C73.6188 83.5407 63.9144 97.3204 54.4776 106.871C54.2777 108.615 55.6983 111.221 53.7166 111.258C56.2658 113.445 56.6565 116.739 57.3194 119.935C59.6957 129.426 59.6329 138.526 59.7136 148.18H65.1036C62.6589 146.398 61.9608 144.368 61.5148 141.42C60.1803 135.3 62.2601 129.851 65.3802 124.671C64.3873 117.139 67.5874 111.601 71.7618 106.453C75.2237 102.358 71.9228 95.921 76.2217 91.9279C81.6291 84.4548 97.1463 85.1099 100.115 91.9783C101.284 94.7827 99.2091 97.7109 100.513 100.576C101.476 99.292 103.203 97.5597 105.007 98.3656C106.393 99.0638 108.494 99.2645 106.682 101.318L106.682 101.318ZM99.8035 68.7239C101.327 82.1056 107.084 95.4986 116.859 105.134C119.528 108.173 119.91 108.771 123.195 107.362C122.698 99.0013 122.172 90.6994 121.721 82.2343C120.399 66.8814 122.193 68.3464 118.252 68.4299C111.959 68.5295 106.04 68.625 99.8034 68.7239H99.8035ZM69.8623 69.1945C63.0743 68.9633 55.908 69.8005 49.1306 69.0831C49.1871 75.209 49.4465 81.5815 49.5386 87.838C50.1243 93.4347 48.8579 107.634 50.6847 106.257C51.5834 106.032 52.7711 106.515 53.3137 105.899C55.5721 103.676 58.0758 101.313 60.0125 98.4774C66.0808 89.9884 71.67 79.8675 69.8623 69.1945ZM83.4024 103.882C80.4191 103.263 80.4337 100.703 82.8069 99.5486C84.892 98.9353 86.9625 99.1285 89.1626 98.2601C92.3554 97.4115 99.7802 92.8808 98.0833 90.788C93.9592 84.9205 82.3064 87.6567 78.6516 91.3777C73.496 96.4372 75.7498 100.153 74.6309 104.62C71.2237 110.398 66.0774 115.352 66.8186 122.61C69.5882 118.967 72.974 116.196 76.9639 113.883C79.0862 112.882 80.8282 111.358 83.1902 112.487C83.5881 109.829 83.5135 106.714 83.4023 103.882H83.4024ZM123.482 111.817C122.155 112.166 119.751 111.323 119.081 112.845C115.205 123.827 116.344 135.593 117.66 147.019C117.838 147.686 117.715 148.442 118.724 148.305C121.076 148.354 123.225 148.416 125.708 148.399L123.482 111.817ZM50.6577 148.203H58.3964C58.1013 138.307 58.0325 128.265 55.6654 118.431C54.8855 114.67 54.7336 110.431 49.9873 111.454L50.6577 148.203ZM92.167 113.918C92.1705 109.26 95.9466 111.623 97.4372 109.693C98.1399 108.146 97.5675 105.499 98.5484 104.411C101.919 103.756 98.3893 101.253 98.5369 99.2696C98.6001 97.2721 99.1229 95.3199 98.9456 93.2115C90.3998 103.682 80.878 97.1173 82.6303 102.938C83.1984 103.516 84.2596 103.166 84.7521 103.973C84.9938 107.036 84.6452 109.839 84.8789 112.976L84.6412 112.993C86.7234 114.125 89.7983 115.282 92.1671 113.918H92.167ZM92.0518 142.627C94.407 141.867 98.4364 144.512 98.8928 147.217C100.885 141.326 88.6923 138.82 86.8152 143.206C87.5328 144.837 87.7087 146.421 86.8552 148.219C91.8982 148.194 91.1477 142.767 96.5364 148.408C99.863 148.019 92.4089 143.951 91.2411 144.264C92.5759 143.236 96.5482 145.169 97.1939 146.473C97.648 146.954 97.3135 148.347 98.0864 148.512C99.4405 145.627 94.5139 143.299 92.0517 142.627H92.0518ZM106.603 101.745C104.791 102.938 103.451 105.125 101.766 106.713C99.4429 107.134 106.478 100.298 106.518 99.4683C104.476 99.7204 103.071 101.682 101.756 103.295C96.9452 106.619 101.988 110.118 95.7748 110.994C97.8314 113.512 100.019 110.524 101.667 108.99C103.683 106.615 106.592 104.336 106.603 101.745ZM104.933 98.8292C104.112 98.2706 99.8098 100.382 101.282 102.001C102.532 100.893 103.55 99.6608 104.933 98.8292Z" fill="black"/>
<path d="M73.5935 149.817C65.4488 149.817 57.2729 149.754 49.1353 149.572L49.0872 149.571L49.0863 149.523C48.611 122.543 48.1923 98.1781 47.8838 73.2066C47.9663 72.3099 47.9063 71.2538 47.8535 70.3219C47.7729 68.9008 47.7032 67.6736 48.1217 67.3095C48.2358 67.2103 48.382 67.1775 48.5564 67.212C70.3222 67.7118 88.5319 67.3104 101.828 67.0173C114.599 66.7358 121.633 66.5807 122.237 67.4301L122.245 67.4412L122.246 67.4548C123.196 78.2874 123.81 89.4327 124.404 100.211C124.821 107.772 125.252 115.59 125.796 123.264C126.236 130.093 126.628 136.894 126.994 144.056C126.908 144.737 127.053 145.622 127.193 146.477C127.38 147.618 127.557 148.696 127.175 149.188C127.051 149.348 126.872 149.439 126.643 149.46C118.606 149.485 110.485 149.562 102.63 149.636C93.0865 149.726 83.363 149.817 73.5934 149.817H73.5935ZM49.1858 149.473C67.0668 149.871 85.1459 149.7 102.629 149.535C110.484 149.461 118.606 149.385 126.638 149.36C126.837 149.342 126.988 149.266 127.095 149.127C127.451 148.669 127.278 147.612 127.094 146.494C126.953 145.631 126.807 144.739 126.894 144.053C126.528 136.9 126.136 130.099 125.696 123.271C125.152 115.597 124.721 107.778 124.304 100.217C123.71 89.4437 123.096 78.3046 122.147 67.478C121.518 66.6838 114.094 66.8475 101.83 67.1178C88.5331 67.4107 70.3221 67.8121 48.5454 67.3114C48.3924 67.2819 48.2782 67.3063 48.1875 67.3852C47.8062 67.717 47.8779 68.9796 47.9537 70.3163C48.0068 71.2516 48.0669 72.3117 47.984 73.2107C48.2925 98.1615 48.7108 122.513 49.1858 149.473ZM98.1146 148.57L98.0757 148.562C97.5912 148.458 97.5134 147.922 97.4383 147.404C97.3879 147.057 97.3358 146.697 97.1572 146.508L97.1487 146.496C96.7326 145.656 94.8418 144.514 93.2578 144.148C92.6973 144.018 91.9547 143.932 91.4403 144.198C92.5982 144.239 95.996 146.012 97.0655 147.191C97.3751 147.532 97.4906 147.815 97.4088 148.033C97.3246 148.258 97.0329 148.401 96.542 148.458L96.5171 148.461L96.4998 148.443C93.206 144.995 92.2491 145.705 90.8005 146.779C89.9107 147.439 88.8034 148.26 86.8551 148.27L86.7753 148.27L86.8096 148.198C87.58 146.575 87.5675 145.042 86.769 143.227L86.7602 143.207L86.7687 143.187C87.2593 142.041 88.4949 141.271 90.2479 141.02C91.8522 140.791 93.7077 141.016 95.3384 141.64C96.7089 142.164 97.7799 142.914 98.4357 143.81C99.1795 144.826 99.3538 146.01 98.9401 147.233L98.8763 147.422L98.8431 147.226C98.6184 145.894 97.4813 144.462 95.8754 143.486C94.5769 142.698 93.2337 142.384 92.2363 142.628C94.2049 143.199 97.2773 144.654 98.1332 146.506C98.4461 147.183 98.4457 147.865 98.1317 148.534L98.1147 148.57L98.1146 148.57ZM97.2353 146.445C97.4315 146.658 97.4854 147.03 97.5376 147.39C97.6087 147.88 97.676 148.344 98.0579 148.454C98.3413 147.825 98.336 147.184 98.042 146.548C97.1752 144.673 93.9768 143.205 92.0383 142.676L91.8756 142.632L92.0361 142.58C93.0746 142.245 94.5293 142.552 95.9274 143.401C97.4804 144.344 98.6022 145.713 98.9033 147.016C99.543 144.81 98.2107 142.845 95.3025 141.734C93.6872 141.116 91.8501 140.892 90.2621 141.119C88.5555 141.364 87.3517 142.105 86.8695 143.207C87.6603 145.015 87.6808 146.55 86.934 148.169C88.8003 148.138 89.8747 147.341 90.7406 146.698C92.1759 145.634 93.2134 144.864 96.5549 148.356C96.9905 148.302 97.246 148.181 97.3148 147.998C97.3813 147.821 97.2695 147.565 96.9912 147.258C95.8062 145.953 92.0175 144.108 91.2539 144.313L91.0112 144.378L91.2103 144.225C91.7502 143.809 92.6341 143.9 93.2805 144.05C94.9133 144.428 96.7946 145.568 97.2354 146.445L97.2353 146.445ZM124.85 148.452C123.102 148.452 121.501 148.417 119.82 148.379C119.458 148.371 119.093 148.363 118.723 148.355C117.873 148.471 117.784 147.963 117.691 147.425C117.669 147.295 117.646 147.161 117.611 147.032C116.176 134.583 115.294 123.422 119.033 112.829C119.495 111.781 120.716 111.816 121.898 111.851C122.481 111.868 123.032 111.884 123.468 111.769L123.528 111.753L125.761 148.449L125.708 148.449C125.418 148.451 125.132 148.452 124.85 148.452L124.85 148.452ZM118.717 148.255C119.095 148.263 119.46 148.271 119.822 148.279C121.757 148.322 123.585 148.362 125.654 148.349L123.435 111.881C122.996 111.983 122.46 111.967 121.895 111.951C120.747 111.918 119.56 111.883 119.127 112.866C115.396 123.435 116.278 134.584 117.71 147.014C117.744 147.14 117.767 147.276 117.79 147.408C117.882 147.939 117.955 148.359 118.717 148.255ZM115.172 148.33C114.425 148.33 113.686 148.314 112.962 148.299C112.252 148.284 111.517 148.268 110.795 148.267H110.654L110.764 148.178C115.688 144.192 113.591 137.789 111.564 131.596C111.241 130.609 110.907 129.588 110.617 128.614L110.566 128.47C108.259 121.946 106.592 117.233 100.48 111.27L100.467 111.257L100.465 111.239C100.394 110.595 101.566 109.606 103.05 108.353C104.975 106.728 107.37 104.706 107.404 102.943C107.415 102.357 107.161 101.823 106.648 101.355L106.611 101.322L106.644 101.285C107.184 100.672 107.404 100.194 107.316 99.8224C107.196 99.3196 106.522 99.0512 105.809 98.7669C105.531 98.6564 105.245 98.5422 104.984 98.4108C103.169 97.6003 101.429 99.4382 100.553 100.606L100.502 100.674L100.467 100.597C99.7948 99.1196 100.015 97.6114 100.227 96.1529C100.428 94.7782 100.635 93.3566 100.068 91.9979C98.8604 89.2034 95.4257 87.2373 90.8809 86.7392C85.88 86.1912 79.4203 87.5923 76.2617 91.9576C73.9968 94.0627 73.8475 96.8819 73.703 99.6084C73.5744 102.035 73.4417 104.544 71.7996 106.486C67.8832 111.315 64.4004 116.86 65.4292 124.665L65.4315 124.682L65.4225 124.697C62.8575 128.956 60.1007 134.704 61.5632 141.409C62.0187 144.42 62.7221 146.382 65.1325 148.14L65.257 148.231H59.6632L59.6628 148.181C59.6585 147.659 59.6545 147.139 59.6506 146.62C59.5816 137.517 59.5165 128.919 57.2701 119.947C57.1972 119.596 57.128 119.245 57.0589 118.895C56.4838 115.983 55.9408 113.233 53.6833 111.297L53.5834 111.211L53.715 111.208C54.0888 111.201 54.3501 111.102 54.5139 110.905C54.8646 110.483 54.7265 109.653 54.5803 108.774C54.472 108.124 54.36 107.451 54.4272 106.865L54.4292 106.848L54.4413 106.836C63.4515 97.7173 73.6132 83.7846 70.8564 69.1911L70.8455 69.1339L70.9037 69.1317C75.9654 68.9389 80.9922 68.9001 85.8533 68.8627C89.0072 68.8384 92.2684 68.8132 95.5515 68.7469C96.1051 68.7347 96.5794 68.7143 96.9605 68.6979C99.0474 68.6079 99.0681 68.6234 99.1781 70.3686C99.2534 71.5624 99.3793 73.5604 100.278 76.9289C101.397 81.7279 102.936 87.3367 105.872 92.5606C108.348 97.4592 111.662 101.94 116.303 106.663C119.143 109.175 118.727 110.627 117.723 114.134C116.374 118.844 113.864 127.612 116.582 148.252L116.589 148.307L116.534 148.309C116.079 148.324 115.624 148.33 115.172 148.33ZM110.935 148.167C111.613 148.169 112.299 148.184 112.964 148.199C114.108 148.223 115.29 148.249 116.475 148.211C113.767 127.59 116.277 118.819 117.627 114.107C118.647 110.542 119.029 109.208 116.234 106.736C111.583 102.003 108.264 97.5141 105.783 92.6079C102.843 87.375 101.301 81.7578 100.181 76.9533C99.2799 73.5768 99.1536 71.5726 99.078 70.3751C99.0251 69.5354 98.9985 69.1139 98.7464 68.9248C98.4901 68.7326 97.9804 68.7546 96.965 68.7984C96.5833 68.8148 96.1085 68.8353 95.5537 68.8474C92.2699 68.9139 89.0084 68.939 85.8542 68.9634C81.0125 69.0007 76.0062 69.0393 70.9658 69.2301C73.6929 83.8396 63.5376 97.7702 54.525 106.894C54.4637 107.462 54.5733 108.121 54.6793 108.758C54.8294 109.66 54.9712 110.512 54.5911 110.97C54.4272 111.167 54.1818 111.276 53.8429 111.303C56.0483 113.26 56.612 116.114 57.1573 118.876C57.2264 119.226 57.2955 119.576 57.3679 119.925C59.6166 128.907 59.6819 137.511 59.7508 146.619C59.7547 147.122 59.7585 147.625 59.7627 148.13H64.9507C62.6105 146.375 61.9157 144.41 61.4646 141.428C59.997 134.699 62.7555 128.934 65.3275 124.661C64.8689 121.161 65.2807 117.886 66.5861 114.65C67.6373 112.044 69.2214 109.506 71.7223 106.422C73.3432 104.505 73.4752 102.013 73.6029 99.6033C73.7483 96.857 73.8988 94.0172 76.1869 91.8918C77.6124 89.92 79.8501 88.3868 82.6515 87.4654C85.1936 86.6293 88.12 86.3361 90.8918 86.6399C95.473 87.1419 98.9381 89.1304 100.161 91.9591C100.738 93.3441 100.529 94.7796 100.326 96.1678C100.12 97.5862 99.9059 99.0522 100.524 100.478C101.433 99.2847 103.181 97.4963 105.027 98.3206C105.286 98.4509 105.571 98.5643 105.846 98.674C106.584 98.9682 107.281 99.2461 107.413 99.7995C107.508 100.197 107.292 100.693 106.751 101.315C107.263 101.795 107.516 102.344 107.504 102.945C107.47 104.754 105.055 106.792 103.115 108.43C101.725 109.603 100.523 110.617 100.563 111.211C106.681 117.184 108.35 121.905 110.66 128.436L110.712 128.584C111.003 129.558 111.337 130.578 111.66 131.565C112.66 134.62 113.694 137.78 113.859 140.682C114.044 143.921 113.087 146.372 110.935 148.168L110.935 148.167ZM58.4478 148.254H50.6081L49.9361 111.414L49.9765 111.406C51.3395 111.112 52.3939 111.23 53.2002 111.766C54.6485 112.731 55.0449 114.866 55.4645 117.126C55.5436 117.553 55.6255 117.993 55.7143 118.422C57.8672 127.365 58.1226 136.585 58.3696 145.502C58.3946 146.403 58.4195 147.303 58.4463 148.202L58.4478 148.254ZM50.7067 148.154H58.3444C58.3182 147.272 58.2937 146.389 58.2692 145.505C58.0224 136.593 57.7672 127.378 55.6164 118.444C55.5271 118.013 55.4451 117.571 55.3659 117.145C54.9502 114.906 54.5577 112.791 53.1446 111.85C52.3699 111.334 51.3536 111.218 50.038 111.495L50.7068 148.154H50.7067ZM66.7813 122.742L66.7684 122.616C66.2001 117.05 69.1432 112.745 71.9894 108.582C72.8707 107.293 73.7822 105.96 74.5837 104.601C74.9305 103.213 74.9508 101.877 74.9704 100.586C75.0134 97.7581 75.0579 94.8342 78.6163 91.3422C80.8029 89.1159 86.2941 86.9693 91.351 87.3843C94.4063 87.635 96.7485 88.8021 98.1242 90.7595C98.3933 91.0912 98.4526 91.5006 98.2985 91.9735C97.5353 94.3164 91.7868 97.6147 89.1753 98.3089C87.9319 98.8001 86.7148 98.9537 85.5377 99.1024C84.646 99.215 83.724 99.3314 82.8209 99.5971C81.6811 100.152 81.0389 101.065 81.1525 101.976C81.2637 102.869 82.1085 103.563 83.4125 103.833L83.4509 103.841L83.4524 103.881C83.5606 106.638 83.6423 109.805 83.2396 112.495L83.2296 112.562L83.1684 112.533C81.292 111.636 79.7894 112.446 78.1986 113.303C77.8071 113.514 77.4022 113.732 76.9852 113.929C72.7705 116.372 69.4568 119.223 66.8583 122.641L66.7813 122.742ZM90.0599 87.4328C85.4148 87.4328 80.675 89.3894 78.6871 91.4133C75.1575 94.877 75.1154 97.6508 75.0707 100.587C75.0509 101.887 75.0306 103.23 74.6793 104.633L74.6738 104.646C73.8697 106.01 72.956 107.346 72.0722 108.639C69.1282 112.945 66.3463 117.013 66.8558 122.479C69.4506 119.095 72.7501 116.268 76.9385 113.84C77.3568 113.642 77.7605 113.425 78.1509 113.215C79.7476 112.354 81.2567 111.541 83.1502 112.414C83.5384 109.76 83.4599 106.645 83.3535 103.924C82.0274 103.638 81.1684 102.917 81.0528 101.989C80.9337 101.034 81.5973 100.082 82.7847 99.5041C83.7034 99.2331 84.6296 99.1161 85.5251 99.0031C86.696 98.8553 87.9067 98.7023 89.1438 98.2141C91.7432 97.5228 97.4491 94.2572 98.203 91.9426C98.3458 91.5042 98.2923 91.1265 98.044 90.8202C96.6838 88.8853 94.3673 87.7328 91.3427 87.4846C90.916 87.4499 90.488 87.4327 90.0599 87.433V87.4328ZM89.7076 114.586C87.927 114.586 86.0664 113.826 84.6168 113.038L84.4664 112.956L84.8247 112.93C84.7127 111.386 84.7405 109.905 84.7674 108.472C84.7946 107.022 84.8228 105.523 84.7025 103.99C84.441 103.57 84.0234 103.484 83.5817 103.392C83.2262 103.319 82.8585 103.242 82.594 102.973L82.5854 102.965L82.5818 102.953C82.2939 101.996 82.298 101.343 82.5948 100.896C83.0668 100.185 84.2357 100.061 85.8536 99.8887C89.1582 99.5369 94.1521 99.0054 98.9064 93.1803L98.9849 93.0841L98.9953 93.2079C99.1034 94.4935 98.9507 95.733 98.8032 96.9317C98.7089 97.6976 98.6114 98.4897 98.5867 99.2719C98.5337 99.9845 98.9622 100.762 99.3766 101.515C99.8239 102.327 100.246 103.094 99.9762 103.671C99.7992 104.049 99.3405 104.306 98.5742 104.457C98.0554 105.046 97.9888 106.088 97.9183 107.19C97.861 108.085 97.8018 109.011 97.4826 109.714L97.4766 109.724C96.8984 110.473 95.9796 110.59 95.091 110.704C93.614 110.893 92.2189 111.072 92.2168 113.919V113.948L92.1917 113.962C91.4205 114.406 90.5734 114.586 89.7077 114.586H89.7076ZM84.8167 113.031C86.9308 114.155 89.8572 115.171 92.1166 113.89C92.1286 110.982 93.6281 110.79 95.0783 110.604C95.9447 110.493 96.8406 110.379 97.3936 109.667C97.703 108.982 97.7615 108.068 97.818 107.183C97.8902 106.056 97.9583 104.99 98.5107 104.378L98.5219 104.365L98.5384 104.362C99.281 104.218 99.7215 103.978 99.8853 103.628C100.134 103.097 99.7232 102.352 99.2887 101.563C98.8672 100.798 98.4314 100.007 98.4865 99.2663C98.5113 98.4817 98.6091 97.6874 98.7036 96.9192C98.8457 95.7643 98.9926 94.5714 98.9049 93.3401C94.1486 99.1061 89.1667 99.6368 85.8643 99.9883C84.2737 100.158 83.1244 100.28 82.6785 100.951C82.4007 101.37 82.3994 101.993 82.6743 102.912C82.9168 103.152 83.2498 103.221 83.6022 103.294C84.0488 103.386 84.5107 103.482 84.7945 103.948L84.8007 103.958L84.8017 103.97C84.9236 105.512 84.8953 107.018 84.8679 108.474C84.8407 109.92 84.8126 111.416 84.9286 112.973L84.9323 113.023L84.8167 113.031ZM97.5014 112.017C97.4719 112.017 97.4425 112.017 97.4131 112.015C96.8127 111.987 96.2483 111.654 95.7355 111.026L95.6791 110.957L95.7673 110.945C99.0642 110.48 99.1528 109.272 99.265 107.743C99.361 106.436 99.4802 104.809 101.721 103.258C101.833 103.121 101.946 102.981 102.06 102.839C103.263 101.345 104.626 99.6516 106.512 99.4188L106.571 99.4115L106.568 99.471C106.553 99.7791 105.761 100.714 104.471 102.213C102.969 103.957 101.1 106.128 101.369 106.598C101.415 106.678 101.54 106.701 101.742 106.667C102.398 106.047 103.011 105.325 103.604 104.627C104.521 103.547 105.469 102.431 106.575 101.704L106.653 101.652L106.653 101.746C106.644 103.746 104.907 105.582 103.227 107.358C102.712 107.902 102.179 108.465 101.705 109.023C101.463 109.249 101.216 109.498 100.955 109.762C99.9073 110.821 98.7229 112.017 97.5014 112.017ZM95.8704 111.031C96.3541 111.599 96.8611 111.889 97.4178 111.915C98.6249 111.973 99.8255 110.761 100.884 109.691C101.146 109.427 101.393 109.177 101.632 108.954C102.104 108.398 102.638 107.834 103.154 107.289C104.794 105.556 106.488 103.765 106.551 101.841C105.491 102.561 104.571 103.644 103.681 104.692C103.083 105.396 102.465 106.124 101.8 106.75L101.789 106.761L101.775 106.763C101.514 106.81 101.353 106.772 101.281 106.648C100.999 106.154 102.394 104.471 104.395 102.147C105.39 100.991 106.333 99.8954 106.455 99.5277C104.645 99.7883 103.314 101.442 102.138 102.902C102.023 103.046 101.908 103.188 101.795 103.327L101.784 103.337C99.577 104.862 99.4643 106.396 99.365 107.75C99.2504 109.31 99.16 110.546 95.8703 111.031L95.8704 111.031ZM120.66 108.129C119.417 108.129 118.651 107.255 117.06 105.44L116.821 105.167C112.069 100.483 108.155 94.8257 105.191 88.3551C102.362 82.1794 100.533 75.5766 99.7533 68.7301L99.7471 68.6751L99.8024 68.6742C102.694 68.6284 105.516 68.5833 108.339 68.5381C111.607 68.486 114.875 68.4337 118.251 68.3803C118.615 68.3726 118.927 68.3532 119.203 68.336C119.923 68.2914 120.357 68.2645 120.638 68.5192C121.055 68.8969 121.089 69.8332 121.179 72.3353C121.253 74.4034 121.366 77.5288 121.771 82.2305C122.095 88.3277 122.465 94.4385 122.823 100.348C122.964 102.684 123.106 105.019 123.245 107.36L123.247 107.395L123.214 107.409C122.103 107.885 121.315 108.129 120.66 108.129V108.129ZM99.8593 68.7736C101.464 82.7709 107.671 96.0074 116.894 105.098L117.135 105.373C119.574 108.155 120.021 108.665 123.143 107.33C123.004 105.002 122.864 102.678 122.723 100.354C122.365 94.4442 121.995 88.3332 121.671 82.2373C121.266 77.5347 121.153 74.4079 121.078 72.3387C120.992 69.9368 120.956 68.9427 120.571 68.5933C120.321 68.367 119.903 68.393 119.21 68.436C118.933 68.4531 118.619 68.4726 118.252 68.4803C114.877 68.5337 111.609 68.586 108.341 68.6382C105.536 68.6831 102.731 68.7279 99.8594 68.7734L99.8593 68.7736ZM50.4522 106.401C50.4057 106.401 50.3607 106.39 50.3173 106.369C49.5082 105.959 49.5655 101.368 49.6262 96.5077C49.6664 93.2806 49.7081 89.9438 49.4883 87.8437C49.4461 84.9904 49.3683 82.0745 49.293 79.2546C49.2034 75.8949 49.1108 72.4207 49.08 69.0841L49.0795 69.0278L49.1355 69.0337C53.1541 69.4591 57.3688 69.3357 61.4448 69.2164C64.2262 69.135 67.1022 69.0508 69.8636 69.1448L69.9045 69.1462L69.9114 69.1866C70.7427 74.0954 70.097 79.1613 67.9371 84.6738C66.2785 88.907 63.7733 93.3026 60.0529 98.5071C58.2877 101.092 56.0882 103.249 53.9612 105.334C53.7553 105.536 53.5508 105.736 53.3484 105.936C53.006 106.324 52.4308 106.294 51.8219 106.261C51.4427 106.241 51.0507 106.22 50.7061 106.304C50.6173 106.369 50.5324 106.401 50.452 106.401H50.4522ZM49.181 69.1393C49.2122 72.458 49.3044 75.9114 49.3935 79.2518C49.4687 82.0719 49.5465 84.9882 49.5884 87.8377C49.8085 89.9391 49.7669 93.2789 49.7265 96.5088C49.6689 101.125 49.6094 105.898 50.3626 106.279C50.447 106.322 50.5425 106.301 50.6541 106.217L50.6721 106.209C51.0338 106.118 51.4372 106.14 51.8273 106.161C52.4113 106.192 52.9629 106.222 53.2756 105.867C53.4806 105.665 53.685 105.464 53.8909 105.262C56.0145 103.18 58.2104 101.027 59.9706 98.4496C65.5329 90.6681 71.6757 80.3194 69.8191 69.2437C67.0733 69.1519 64.2137 69.2356 61.4476 69.3166C57.3872 69.4355 53.1892 69.5584 49.1809 69.1393H49.181ZM101.278 102.072L101.245 102.035C100.778 101.521 100.824 100.912 101.378 100.274C102.259 99.26 104.369 98.3851 104.961 98.788L105.026 98.8321L104.959 98.8725C104.018 99.4381 103.258 100.18 102.453 100.965C102.088 101.32 101.712 101.688 101.315 102.039L101.278 102.072ZM104.543 98.7882C103.758 98.7882 102.206 99.4743 101.454 100.34C101.101 100.746 100.792 101.347 101.286 101.931C101.667 101.591 102.031 101.237 102.382 100.893C103.17 100.125 103.915 99.3982 104.831 98.8329C104.754 98.8026 104.657 98.7882 104.543 98.7882Z" fill="black"/>
</g>
<g clip-path="url(#clip2_5423_1624)">
<path d="M28.0977 157.928L139.988 156.74V178.179L140.721 219.019L30.1209 222.45L28.0977 157.928Z" fill="white"/>
<path d="M30.1213 222.45C30.1604 222.052 30.0744 221.965 29.3689 221.911C29.5093 220.706 29.4489 219.398 29.4958 217.966C29.689 204.827 29.174 192.089 28.2349 178.952C28.1058 153.628 26.0949 158.094 31.5141 157.581C67.2408 157.219 102.442 156.688 138.145 156.432C138.854 156.505 139.69 156.155 139.988 156.74C141.492 163.539 140.832 170.229 140.961 177.133C141.135 191.324 140.732 205.092 140.721 219.019C139.938 219.148 140.529 220.06 139.672 220.076C137.307 220.105 135.012 220.188 132.516 220.223C98.3381 220.799 64.3327 222.295 30.1213 222.45ZM92.3225 185.178C95.9315 198.85 86.208 217.299 71.615 215.707C70.5472 215.362 70.9498 216.283 70.3878 217.016C67.5899 217.722 64.5458 216.735 61.7162 216.147C61.4016 217.63 61.4623 219.085 61.3909 220.578L113.768 219.105C112.841 215.8 112.225 212.322 111.946 208.954C110.804 205.548 107.253 195.647 112.92 202.516C112.752 192.301 115.159 191.069 117.336 201.451C118.722 189.408 122.154 194.221 121.481 202.74C123.326 196.628 126.123 194.787 125.236 202.739C126.486 200.423 129.481 196.478 129.515 201.793C128.989 207.562 126.95 212.959 125.464 218.402C125.724 219.04 126.162 218.736 127.016 218.763L139.125 218.431C139.073 193.62 140.367 157.76 138.797 157.928C125.696 158.026 112.544 158.273 99.3361 158.418C75.9606 158.739 52.7889 158.877 29.3679 159.246C29.3356 171.73 30.2894 184.243 31.0668 196.698C36.2982 190.481 39.7249 190.296 45.9086 188.709C45.8987 187.528 47.9515 185.535 46.0641 184.769C42.7797 182.536 41.2013 179.53 41.0219 175.59C40.5472 166.531 50.3217 160.349 58.2453 163.165C64.2364 165.216 68.5509 172.461 64.855 178.292C64.3393 179.607 64.8558 180.477 65.0491 181.957C65.528 185.186 62.7336 182.289 62.4922 186.17C62.2626 186.925 62.3725 187.682 61.4955 188.183C60.1212 189.434 58.2616 187.811 56.8557 188.95C55.098 191.974 57.0147 191.748 59.3785 192.675C62.3742 193.85 64.6601 195.289 66.9673 197.522C69.2622 199.246 69.4461 202.344 71.0589 204.161C74.3195 204.385 77.3016 203.656 79.783 201.358C87.6332 191.333 79.4937 179.453 84.0457 171.591C86.4332 165.182 89.941 167.998 87.6378 173.088C95.348 168.864 96.2817 174.275 97.4486 172.458C97.8418 171.99 98.1348 171.178 98.7855 171.534C101.711 172.897 104.408 174.329 106.934 176.268C108.493 177.394 105.282 181.064 104.921 182.277C107.439 183.032 111.171 183.678 113.636 182.697C114.361 180.906 116.738 180.041 118.223 181.155C120.446 183.42 118.541 189.189 115.177 187.968C113.906 187.637 114.006 185.543 112.878 185.505C109.729 186.391 105.128 187.151 103.404 184.693C102.551 185.625 101.868 187.269 100.788 188.205C97.6645 188.582 94.7281 187.107 92.3227 185.178L92.3225 185.178ZM87.5633 168.644C85.7208 169.248 85.0444 172.259 84.3475 173.979C82.7329 177.798 84.4197 181.639 84.7129 185.684C85.9636 197.404 82.398 204.6 70.9499 204.737C72.471 212.996 69.7919 215.255 72.1728 215.303C87.7614 216.769 96.6666 188.646 89.4904 181.58C87.8603 182.02 87.1383 180.541 87.9004 179.024C86.0727 180.603 84.1782 179.332 85.6971 177.065L85.2396 176.978C85.9917 174.321 87.8752 171.497 87.5633 168.644ZM46.7231 190.415C58.4414 195.572 53.5789 187.934 57.1068 188.122C63.6536 189.236 59.7244 183.879 63.4253 183.268C63.7804 183.153 63.9798 182.953 64.0852 182.545C62.6916 176.668 66.5992 175.591 65.536 171.751C61.7806 177.078 53.4704 176.978 47.957 176.345C45.996 177.747 46.4216 180.259 48.871 181.116C50.2322 182.141 46.6706 189.275 46.7231 190.415V190.415ZM106.207 178.357C102.803 178.628 99.9425 175.885 98.1758 173.045C92.5137 183.824 90.052 182.219 95.8155 185.775C97.0475 186.373 99.4732 187.639 100.359 187.098C102.225 184.255 104.243 181.392 106.207 178.357H106.207ZM119.951 210.053C120.203 204.148 121.197 197.081 119.669 194.789C117.626 199.438 117.812 204.943 118.232 210.053H119.951ZM114.683 195.41C113.19 198.207 114.082 202.599 114.666 205.908C115.195 207.355 115.198 209.114 116.268 210.118C118.661 210.997 114.953 195.914 114.683 195.41H114.683ZM124.066 210.025C124.848 209.64 126.679 210.234 126.851 208.889C127.667 205.855 128.836 202.905 128.217 199.847C126.61 200.811 124.069 207.79 124.066 210.025V210.025ZM122.864 210.045C123.517 206.238 124.838 202.332 124.237 198.368C122.074 201.701 121.271 205.941 121.093 210.045H122.864ZM115.155 186.714C117.822 187.047 120.187 183.459 117.92 181.905C114.718 180.536 111.998 185.768 115.155 186.714ZM86.9206 175.963C90.4558 173.385 92.08 172.123 95.5615 175.166C99.8092 170.562 86.9158 172.217 86.9206 175.963ZM110.495 201.066C110.706 203.837 111.909 207.237 113.105 210.075C113.416 210.084 113.543 209.502 114.365 209.956C113.27 207.064 112.822 203.434 110.495 201.066ZM113.33 184.485C113.213 183.745 112.06 184.251 111.242 184.068C104.094 184.308 105.198 180.983 103.583 184.416C106.61 185.573 110.076 185.132 113.33 184.485ZM91.3187 174.079C91.5102 174.99 92.7794 175.293 92.8796 176.484C93.0854 176.4 93.5223 177.064 93.9927 177.674C96.2082 175.379 93.8102 173.539 91.3186 174.079H91.3187ZM91.9678 175.318C90.6954 177.009 88.5285 178.699 88.5006 181.041C90.2089 179.815 92.3488 177.379 91.9678 175.318ZM106.214 177.275C105.563 176.467 100.429 173.276 99.4154 173.089C101.254 174.965 103.231 177.242 106.214 177.275ZM86.0317 179.123C87.6166 177.865 89.9488 176.657 90.712 174.447C89.0843 175.756 86.2518 176.967 86.0317 179.123ZM90.4737 182.257C91.8152 181.741 93.3166 178.984 92.8695 177.392C92.0056 178.799 90.3358 180.254 90.4737 182.257Z" fill="black"/>
<path d="M30.0657 222.501L30.0711 222.446C30.0885 222.269 30.0767 222.182 30.0277 222.124C29.9541 222.036 29.7806 221.994 29.3648 221.962L29.3127 221.958L29.3188 221.906C29.4104 221.119 29.4162 220.287 29.4224 219.406C29.4257 218.941 29.4291 218.46 29.4453 217.964C29.6231 205.872 29.2226 193.476 28.1846 178.956C28.1473 171.687 27.9555 166.876 27.8284 163.692C27.6661 159.617 27.6114 158.244 28.1116 157.754C28.3942 157.476 28.84 157.503 29.5148 157.542C30.035 157.572 30.6822 157.61 31.5092 157.532C45.2304 157.393 59.0885 157.226 72.4902 157.065C93.9544 156.807 116.149 156.54 138.145 156.382C138.37 156.405 138.604 156.386 138.831 156.368C139.337 156.326 139.814 156.288 140.033 156.718L140.037 156.73C141.139 161.712 141.081 166.526 141.02 171.623C140.999 173.423 140.976 175.283 141.011 177.132C141.115 185.588 141.012 194.019 140.912 202.172C140.845 207.688 140.775 213.391 140.771 219.019V219.062L140.729 219.069C140.383 219.126 140.332 219.346 140.278 219.578C140.22 219.831 140.154 220.118 139.672 220.126C138.461 220.141 137.293 220.17 136.057 220.2C134.915 220.228 133.734 220.257 132.517 220.274C118.594 220.508 104.468 220.902 90.8082 221.282C70.9405 221.836 50.3964 222.409 30.1211 222.501L30.0655 222.501H30.0657ZM29.4244 221.866C29.7857 221.896 30.0028 221.938 30.1046 222.059C30.1746 222.142 30.1862 222.253 30.1757 222.4C50.4317 222.307 70.9566 221.735 90.8054 221.182C104.466 220.802 118.592 220.408 132.515 220.174C133.732 220.157 134.913 220.128 136.055 220.1C137.291 220.07 138.459 220.041 139.671 220.026C140.074 220.019 140.123 219.804 140.18 219.556C140.235 219.322 140.296 219.057 140.671 218.978C140.675 213.362 140.745 207.673 140.812 202.171C140.911 194.019 141.014 185.588 140.911 177.134C140.876 175.283 140.899 173.422 140.92 171.622C140.981 166.534 141.039 161.727 139.941 156.758C139.751 156.393 139.328 156.428 138.839 156.468C138.608 156.486 138.369 156.506 138.14 156.482C116.15 156.64 93.9556 156.907 72.4917 157.165C59.0898 157.326 45.2317 157.493 31.5146 157.632C30.6842 157.711 30.0327 157.673 29.5091 157.642C28.861 157.604 28.4328 157.579 28.1821 157.825C27.7134 158.285 27.7721 159.756 27.929 163.688C28.056 166.873 28.248 171.685 28.285 178.952C29.3231 193.472 29.7237 205.871 29.5458 217.967C29.5296 218.462 29.5262 218.942 29.5229 219.407C29.5168 220.272 29.511 221.089 29.4244 221.866ZM61.3379 220.63L61.3405 220.576C61.3591 220.189 61.3688 219.799 61.3783 219.421C61.4052 218.349 61.433 217.24 61.6669 216.137L61.6772 216.088L61.7262 216.099C62.2242 216.202 62.7392 216.32 63.237 216.435C65.6126 216.98 68.0689 217.544 70.3582 216.972C70.5462 216.72 70.6195 216.448 70.6842 216.208C70.7526 215.953 70.8118 215.734 70.9932 215.635C71.1355 215.558 71.3364 215.565 71.6253 215.658C77.1271 216.256 82.4012 213.98 86.4768 209.249C92.0382 202.792 94.3678 193.124 92.2737 185.192L92.2349 185.044L92.3536 185.14C94.9028 187.183 97.4015 188.215 99.7958 188.215C100.121 188.215 100.444 188.196 100.766 188.158C101.377 187.623 101.859 186.862 102.325 186.126C102.673 185.577 103.002 185.058 103.367 184.66L103.409 184.613L103.445 184.665C105.112 187.041 109.487 186.407 112.864 185.457L112.871 185.455L112.879 185.455C113.474 185.475 113.738 186.024 114.018 186.604C114.292 187.172 114.576 187.76 115.189 187.919C116.397 188.357 117.538 187.908 118.323 186.687C119.329 185.125 119.515 182.543 118.187 181.191C117.561 180.722 116.709 180.586 115.855 180.824C114.862 181.1 114.05 181.808 113.682 182.717L113.674 182.736L113.654 182.744C110.723 183.911 106.218 182.719 104.907 182.326L104.859 182.311L104.873 182.263C104.981 181.9 105.333 181.331 105.741 180.672C106.681 179.155 107.967 177.077 106.904 176.309C104.169 174.209 101.254 172.74 98.7641 171.58C98.2968 171.324 98.0288 171.719 97.7451 172.136C97.6625 172.258 97.577 172.384 97.4869 172.491C97.0597 173.157 96.639 172.891 96.0019 172.488C94.8394 171.753 92.6756 170.385 87.6618 173.133L87.53 173.205L87.5919 173.068C88.5889 170.865 88.4663 169.123 87.9026 168.375C87.6475 168.036 87.3076 167.887 86.9198 167.943C85.9522 168.084 84.8953 169.454 84.0924 171.609C82.1067 175.04 82.5435 179.253 83.006 183.713C83.3063 186.609 83.6168 189.603 83.3003 192.592C82.9414 195.981 81.8037 198.859 79.8222 201.389C77.5048 203.537 74.6389 204.458 71.0552 204.211L71.0347 204.21L71.0211 204.195C70.3338 203.42 69.912 202.434 69.4655 201.39C68.8683 199.994 68.2507 198.55 66.9369 197.562C64.6591 195.359 62.3946 193.912 59.36 192.722C58.9186 192.549 58.4852 192.414 58.1028 192.295C57.1622 192.001 56.4192 191.769 56.1927 191.187C55.9999 190.691 56.1908 189.994 56.8121 188.925L56.824 188.911C57.5298 188.34 58.3514 188.448 59.146 188.553C59.9854 188.664 60.7782 188.769 61.4616 188.147L61.4704 188.14C62.1109 187.774 62.2099 187.26 62.3148 186.717C62.3497 186.536 62.3858 186.348 62.4423 186.161C62.5707 184.125 63.4158 183.92 64.0952 183.755C64.7259 183.602 65.2241 183.481 64.9993 181.965C64.9438 181.54 64.8629 181.172 64.7848 180.816C64.5973 179.962 64.4353 179.224 64.808 178.274C66.2822 175.946 66.5695 173.185 65.6214 170.488C64.4515 167.162 61.6188 164.374 58.2289 163.213C54.3109 161.82 49.6629 162.606 46.098 165.263C42.6929 167.801 40.8609 171.564 41.0718 175.588C41.2528 179.563 42.8934 182.552 46.0877 184.725C46.4806 184.885 46.7271 185.104 46.8411 185.395C47.0617 185.956 46.73 186.667 46.409 187.354C46.1757 187.854 45.9553 188.326 45.9585 188.709L45.9588 188.748L45.9207 188.758C45.2047 188.941 44.5295 189.105 43.8766 189.264C38.965 190.457 35.7202 191.246 31.1047 196.73L31.0241 196.826L31.0162 196.701C30.9001 194.84 30.78 192.978 30.6599 191.115C29.9864 180.669 29.2899 169.867 29.3173 159.246V159.197L29.3667 159.196C42.4368 158.99 55.6472 158.854 68.4228 158.722C78.5413 158.618 89.0042 158.51 99.335 158.368C104.736 158.309 110.214 158.231 115.511 158.156C123.152 158.048 131.053 157.936 138.796 157.878C138.839 157.873 138.884 157.89 138.926 157.928C139.876 158.794 139.664 173.949 139.418 191.498C139.29 200.646 139.157 210.105 139.175 218.431V218.48L127.017 218.814C126.773 218.806 126.567 218.825 126.385 218.841C125.923 218.884 125.617 218.911 125.418 218.421L125.411 218.405L125.416 218.389C125.8 216.979 126.23 215.547 126.645 214.162C127.84 210.178 129.075 206.059 129.465 201.788C129.454 200.21 129.185 199.342 128.663 199.212C127.715 198.976 126.121 201.206 125.28 202.763L125.158 202.99L125.186 202.734C125.689 198.219 124.959 197.571 124.622 197.502C123.916 197.358 122.627 199.115 121.529 202.755L121.394 203.201L121.431 202.736C121.814 197.878 120.885 194.377 119.811 194.273C119.44 194.237 118.169 194.648 117.385 201.457L117.35 201.765L117.286 201.462C116.324 196.872 115.226 194.191 114.349 194.289C113.618 194.371 112.872 196.575 112.97 202.515L112.972 202.659L112.881 202.548C111.07 200.353 110.36 200.076 110.083 200.231C109.209 200.717 110.947 205.849 111.783 208.314C111.859 208.54 111.93 208.749 111.993 208.938L111.996 208.95C112.276 212.339 112.906 215.846 113.816 219.092L113.833 219.154L61.3377 220.63L61.3379 220.63ZM61.7548 216.207C61.5322 217.283 61.5061 218.323 61.4785 219.424C61.4695 219.784 61.4602 220.156 61.4432 220.526L113.702 219.057C112.8 215.825 112.176 212.336 111.896 208.964C111.833 208.777 111.763 208.57 111.688 208.347C110.429 204.633 109.16 200.629 110.034 200.143C110.483 199.894 111.41 200.624 112.867 202.375C112.796 197.357 113.344 194.3 114.338 194.189C115.265 194.085 116.349 196.616 117.321 201.143C117.869 196.607 118.776 194.072 119.82 194.173C120.404 194.229 120.928 195.156 121.26 196.716C121.589 198.257 121.694 200.23 121.561 202.31C122.544 199.229 123.79 197.23 124.642 197.404C125.403 197.56 125.64 199.365 125.312 202.497C126.099 201.102 127.66 198.859 128.687 199.115C129.259 199.257 129.554 200.158 129.565 201.793C129.174 206.078 127.937 210.202 126.741 214.191C126.328 215.57 125.9 216.996 125.517 218.399C125.688 218.804 125.934 218.782 126.376 218.742C126.561 218.725 126.77 218.706 127.017 218.714L139.074 218.383C139.057 210.067 139.19 200.627 139.318 191.496C139.553 174.701 139.775 158.838 138.858 158.002C138.829 157.975 138.809 157.978 138.802 157.978C131.054 158.037 123.153 158.148 115.512 158.257C110.215 158.332 104.737 158.409 99.336 158.469C89.0052 158.61 78.5421 158.718 68.4236 158.823C55.6647 158.954 42.4708 159.09 29.4174 159.296C29.3921 169.897 30.0875 180.68 30.76 191.109C30.8774 192.93 30.9948 194.751 31.1085 196.57C35.7024 191.147 38.9505 190.358 43.8528 189.166C44.494 189.011 45.1566 188.85 45.8582 188.67C45.8689 188.273 46.0872 187.806 46.3178 187.312C46.6297 186.644 46.9524 185.953 46.7473 185.431C46.6435 185.167 46.4136 184.965 46.0447 184.815L46.0353 184.81C42.8103 182.618 41.1539 179.603 40.9712 175.593C40.7586 171.535 42.6053 167.741 46.0376 165.183C49.6291 162.506 54.3131 161.715 58.2616 163.118C61.6794 164.288 64.5359 167.1 65.7157 170.455C66.6743 173.181 66.3835 175.974 64.8969 178.319C64.5396 179.232 64.6909 179.922 64.8825 180.794C64.9611 181.152 65.0425 181.522 65.0984 181.951C65.3365 183.556 64.7721 183.693 64.1185 183.852C63.4368 184.018 62.6642 184.205 62.5418 186.173L62.5397 186.185C62.4837 186.369 62.4477 186.555 62.4129 186.735C62.3038 187.301 62.2007 187.836 61.5246 188.224C60.8077 188.874 59.956 188.761 59.1324 188.652C58.3261 188.546 57.5645 188.445 56.8938 188.983C56.3011 190.005 56.1079 190.694 56.2858 191.151C56.4948 191.688 57.2174 191.913 58.1323 192.199C58.5163 192.319 58.9516 192.454 59.3962 192.629C62.4439 193.824 64.7184 195.277 67.0016 197.486C68.332 198.485 68.955 199.942 69.5574 201.351C69.9977 202.38 70.4137 203.353 71.0823 204.113C74.6271 204.352 77.4621 203.439 79.7483 201.322C84.148 195.702 83.5165 189.612 82.9059 183.723C82.4416 179.247 82.0032 175.018 84.0017 171.566C84.826 169.352 85.8855 167.992 86.905 167.844C87.3252 167.783 87.708 167.95 87.9824 168.315C88.5111 169.017 88.7569 170.652 87.7431 172.974C92.7165 170.293 94.8853 171.664 96.0551 172.403C96.7033 172.813 97.0286 173.019 97.4059 172.432C97.4964 172.323 97.5805 172.199 97.6618 172.08C97.9443 171.664 98.2648 171.193 98.8091 171.491C101.301 172.652 104.222 174.124 106.964 176.229C108.101 177.05 106.787 179.174 105.826 180.725C105.44 181.349 105.104 181.892 104.984 182.244C106.344 182.648 110.731 183.786 113.597 182.659C113.98 181.731 114.812 181.01 115.827 180.727C116.712 180.481 117.596 180.623 118.253 181.116C119.619 182.507 119.434 185.146 118.407 186.742C117.594 188.005 116.41 188.469 115.159 188.015C114.505 187.845 114.199 187.209 113.928 186.648C113.662 186.098 113.412 185.578 112.883 185.555C109.5 186.506 105.124 187.136 103.399 184.773C103.057 185.159 102.742 185.655 102.41 186.18C101.937 186.927 101.448 187.699 100.82 188.243L100.808 188.254L100.793 188.255C98.111 188.579 95.2907 187.589 92.4085 185.312C93.4071 189.204 93.3699 193.556 92.2993 197.908C91.2329 202.243 89.2459 206.187 86.5527 209.314C82.4536 214.073 77.1465 216.361 71.6092 215.757L71.5991 215.755C71.3392 215.671 71.1566 215.661 71.0409 215.723C70.8973 215.801 70.846 215.992 70.7808 216.234C70.7159 216.475 70.635 216.775 70.4271 217.047L70.4165 217.06L70.3995 217.065C68.0819 217.65 65.6072 217.082 63.2142 216.532C62.7331 216.422 62.2362 216.308 61.7544 216.207H61.7548ZM73.3586 215.41C72.9639 215.41 72.567 215.391 72.1679 215.354C71.7214 215.345 71.4477 215.257 71.2842 215.071C71.0011 214.747 71.0703 214.139 71.1849 213.13C71.3646 211.548 71.6653 208.9 70.9005 204.747L70.8897 204.688L70.9492 204.688C75.7519 204.63 79.3492 203.293 81.6411 200.714C84.4197 197.588 85.4082 192.673 84.6629 185.69C84.5743 184.467 84.356 183.25 84.1447 182.074C83.6432 179.278 83.1693 176.638 84.3013 173.961C84.4336 173.634 84.5656 173.259 84.7053 172.863C85.297 171.183 86.0335 169.093 87.5476 168.597L87.6064 168.577L87.6131 168.639C87.8252 170.578 87.031 172.501 86.263 174.36C85.8944 175.253 85.5459 176.097 85.3028 176.939L85.7809 177.03L85.7386 177.093C84.9625 178.252 85.124 179.052 85.5339 179.414C85.9719 179.801 86.8888 179.833 87.8674 178.987L88.0583 178.822L87.945 179.048C87.5449 179.844 87.5489 180.68 87.9552 181.177C88.2856 181.582 88.826 181.708 89.4771 181.532L89.5049 181.524L89.5253 181.545C91.3135 183.305 92.2059 186.508 92.0382 190.562C91.8765 194.468 90.7701 198.803 88.9225 202.767C87.1191 206.638 84.7505 209.845 82.0726 212.044C79.3481 214.281 76.422 215.41 73.3586 215.41V215.41ZM71.0097 204.787C71.7638 208.921 71.4639 211.561 71.2845 213.141C71.1731 214.122 71.1059 214.715 71.3597 215.005C71.503 215.168 71.7541 215.245 72.1736 215.253C78.6651 215.864 84.8914 211.18 88.8316 202.725C90.6737 198.772 91.7769 194.451 91.9379 190.557C92.1038 186.548 91.2293 183.381 89.4753 181.636C88.7964 181.811 88.2297 181.672 87.8776 181.24C87.4805 180.754 87.4416 179.971 87.764 179.201C86.803 179.942 85.9109 179.881 85.4674 179.489C85.0334 179.105 84.8495 178.279 85.6136 177.1L85.1762 177.017L85.1911 176.965C85.4362 176.099 85.7927 175.236 86.1701 174.322C86.925 172.494 87.7052 170.605 87.5198 168.712C86.092 169.229 85.3764 171.26 84.7998 172.896C84.6597 173.294 84.5274 173.669 84.3939 173.999C83.2733 176.649 83.7445 179.275 84.2434 182.055C84.455 183.235 84.6739 184.454 84.7627 185.681C85.5109 192.692 84.5144 197.631 81.716 200.781C79.414 203.371 75.8122 204.719 71.0097 204.787V204.787ZM116.457 210.206C116.393 210.206 116.323 210.193 116.25 210.166L116.233 210.155C115.501 209.467 115.257 208.414 115.021 207.395C114.907 206.903 114.79 206.394 114.618 205.926L114.523 205.391C113.94 202.122 113.215 198.054 114.638 195.387L114.682 195.304L114.727 195.387C114.858 195.631 115.704 198.942 116.347 202.316C116.934 205.4 117.489 209.244 116.792 210.045C116.699 210.152 116.587 210.206 116.457 210.206ZM116.294 210.075C116.469 210.136 116.607 210.105 116.716 209.98C117.239 209.378 117.073 206.663 116.248 202.335C115.625 199.068 114.874 196.126 114.676 195.532C113.338 198.17 114.049 202.16 114.621 205.373L114.715 205.9C114.886 206.366 115.005 206.878 115.119 207.373C115.361 208.42 115.59 209.408 116.294 210.075H116.294ZM113.112 210.125L113.103 210.125L113.071 210.124L113.058 210.095C111.497 206.389 110.618 203.352 110.445 201.071L110.435 200.934L110.531 201.032C112.221 202.752 112.921 205.119 113.597 207.409C113.86 208.298 114.109 209.139 114.412 209.939L114.46 210.067L114.34 210.001C113.81 209.707 113.595 209.861 113.406 209.996C113.313 210.063 113.225 210.126 113.112 210.126L113.112 210.125ZM110.556 201.203C110.753 203.451 111.621 206.417 113.137 210.024C113.208 210.014 113.273 209.968 113.347 209.915C113.526 209.787 113.767 209.615 114.272 209.853C113.988 209.086 113.751 208.284 113.501 207.437C112.841 205.204 112.159 202.896 110.556 201.203ZM124.016 210.107V210.026C124.019 207.787 126.535 200.798 128.191 199.804L128.252 199.768L128.266 199.837C128.781 202.382 128.081 204.794 127.34 207.347C127.192 207.856 127.039 208.382 126.899 208.903C126.781 209.828 125.896 209.871 125.115 209.908C124.718 209.927 124.343 209.945 124.088 210.071L124.016 210.107ZM128.182 199.929C126.606 201.009 124.177 207.728 124.117 209.949C124.384 209.843 124.738 209.826 125.111 209.808C125.888 209.771 126.692 209.732 126.801 208.884C126.942 208.355 127.095 207.829 127.243 207.32C127.974 204.803 128.665 202.424 128.182 199.93V199.929ZM119.999 210.103H118.185L118.182 210.057C117.779 205.162 117.526 199.54 119.623 194.769L119.66 194.685L119.71 194.761C120.894 196.536 120.584 201.052 120.255 205.834C120.159 207.236 120.06 208.686 120.001 210.055L119.999 210.103ZM118.278 210.003H119.903C119.962 208.647 120.06 207.214 120.155 205.827C120.478 201.133 120.782 196.695 119.677 194.895C117.637 199.612 117.881 205.16 118.278 210.003ZM122.906 210.096H121.04L121.042 210.044C121.254 205.176 122.314 201.239 124.194 198.341L124.266 198.231L124.286 198.361C124.738 201.34 124.103 204.306 123.489 207.174C123.287 208.121 123.077 209.101 122.913 210.054L122.906 210.096ZM121.145 209.996H122.822C122.984 209.053 123.191 208.088 123.391 207.153C123.994 204.336 124.617 201.425 124.206 198.509C122.387 201.37 121.358 205.233 121.145 209.996ZM52.8489 192.252C51.4547 192.252 49.4239 191.659 46.7028 190.461L46.6743 190.449L46.6729 190.418C46.6544 190.016 47.0515 188.948 47.5543 187.595C48.4597 185.158 49.699 181.823 48.8467 181.162C47.6457 180.739 46.8418 179.876 46.6954 178.851C46.5581 177.891 47.0072 176.963 47.9276 176.305L47.9432 176.294L47.9624 176.296C56.7463 177.304 62.6449 175.765 65.4948 171.723L65.5559 171.636L65.5842 171.739C66.0716 173.499 65.5111 174.714 64.9176 176C64.1954 177.566 63.3767 179.341 64.1338 182.534L64.1367 182.546L64.1336 182.558C64.0267 182.972 63.8259 183.191 63.4405 183.316C61.9078 183.57 61.7124 184.624 61.5054 185.74C61.2243 187.256 60.9338 188.824 57.0982 188.172C55.9327 188.11 55.7217 188.929 55.4773 189.877C55.2727 190.671 55.0407 191.571 54.1593 191.999C53.8116 192.167 53.3754 192.252 52.8488 192.252L52.8489 192.252ZM46.7726 190.383C50.4764 192.01 52.8785 192.509 54.1155 191.908C54.9552 191.501 55.1714 190.663 55.3803 189.852C55.625 188.902 55.8556 188.006 57.1095 188.072C60.8532 188.709 61.1222 187.258 61.4069 185.722C61.611 184.621 61.822 183.482 63.4169 183.219C63.7587 183.108 63.9344 182.918 64.0333 182.545C63.2732 179.326 64.0983 177.537 64.8265 175.959C65.4253 174.661 65.9441 173.536 65.5148 171.868C63.196 175.079 58.9435 176.696 52.8423 176.696C51.3311 176.696 49.7072 176.597 47.9703 176.398C47.0919 177.033 46.6636 177.921 46.7947 178.837C46.936 179.826 47.7183 180.661 48.8875 181.07L48.901 181.077C49.8248 181.772 48.618 185.02 47.6483 187.63C47.1815 188.886 46.7767 189.975 46.7725 190.383L46.7726 190.383ZM99.7933 187.278C98.7677 187.278 97.1358 186.478 96.082 185.961C95.9801 185.911 95.8836 185.864 95.7935 185.82L95.6858 185.754C93.6786 184.516 92.6712 183.895 92.5018 183.119C92.3423 182.388 92.8999 181.553 94.0107 179.889C95.0267 178.368 96.4182 176.283 98.1311 173.022L98.1718 172.945L98.2181 173.019C99.2739 174.716 102.165 178.629 106.203 178.308L106.304 178.3L106.249 178.385C105.166 180.058 104.058 181.692 102.987 183.272C102.088 184.598 101.238 185.85 100.401 187.126L100.385 187.141C100.229 187.237 100.027 187.278 99.7933 187.278ZM98.1795 173.146C96.4819 176.369 95.0466 178.519 94.0943 179.945C92.9993 181.585 92.4496 182.409 92.6 183.097C92.7602 183.832 93.7555 184.446 95.7386 185.669L95.8419 185.732C95.9277 185.774 96.0243 185.821 96.1263 185.871C97.3964 186.494 99.5188 187.535 100.324 187.061C101.159 185.788 102.007 184.538 102.904 183.215C103.957 181.662 105.046 180.057 106.11 178.415C102.13 178.664 99.2723 174.881 98.1795 173.146ZM115.506 186.786C115.388 186.786 115.269 186.779 115.149 186.764L115.141 186.762C114.163 186.469 113.841 185.817 113.743 185.321C113.546 184.321 114.075 183.082 115.03 182.309C115.9 181.605 116.96 181.441 117.94 181.859C118.819 182.461 119.101 183.444 118.702 184.494C118.254 185.673 116.969 186.786 115.506 186.786V186.786ZM115.166 186.665C116.722 186.857 118.138 185.695 118.608 184.459C118.995 183.439 118.734 182.524 117.892 181.946C116.608 181.399 115.586 181.987 115.093 182.387C114.18 183.126 113.654 184.351 113.841 185.301C113.934 185.769 114.239 186.386 115.166 186.665H115.166ZM107.881 185.187C106.396 185.187 104.94 184.989 103.565 184.463L103.515 184.444L103.538 184.395C104.376 182.611 104.491 182.602 105.467 183.049C106.293 183.428 107.831 184.133 111.24 184.019L111.246 184.018L111.252 184.02C111.542 184.085 111.873 184.061 112.194 184.038C112.762 183.998 113.298 183.96 113.38 184.477L113.387 184.525L113.34 184.535C111.541 184.893 109.69 185.187 107.88 185.187L107.881 185.187ZM103.651 184.389C106.65 185.515 110.044 185.086 113.271 184.446C113.185 184.088 112.803 184.096 112.201 184.138C111.875 184.161 111.539 184.185 111.237 184.119C107.808 184.233 106.258 183.522 105.425 183.141C104.531 182.731 104.45 182.694 103.651 184.389L103.651 184.389ZM90.4281 182.329L90.4235 182.261C90.3198 180.754 91.2376 179.538 92.0472 178.466C92.3344 178.085 92.6057 177.726 92.8266 177.366L92.8867 177.268L92.9177 177.379C93.3769 179.014 91.8178 181.794 90.4915 182.304L90.4281 182.328V182.329ZM92.8491 177.519C92.6383 177.849 92.3894 178.179 92.1273 178.526C91.3408 179.568 90.4511 180.747 90.5195 182.184C91.768 181.637 93.1926 179.099 92.8491 177.519ZM88.4491 181.14L88.4503 181.041C88.4714 179.261 89.6877 177.885 90.8639 176.554C91.2491 176.118 91.613 175.706 91.9276 175.288L91.9962 175.197L92.017 175.309C92.4394 177.593 89.9206 180.084 88.5297 181.082L88.4492 181.14L88.4491 181.14ZM91.9367 175.442C91.6367 175.831 91.2971 176.215 90.939 176.62C89.7976 177.912 88.6181 179.247 88.5531 180.941C90.1125 179.794 92.2151 177.454 91.9367 175.442ZM85.9695 179.237L85.9816 179.119C86.1488 177.48 87.8175 176.37 89.2898 175.39C89.7955 175.053 90.2732 174.736 90.6803 174.408L90.8161 174.299L90.7592 174.464C90.1555 176.212 88.5682 177.346 87.1677 178.346C86.7748 178.627 86.4037 178.892 86.0627 179.163L85.9694 179.237L85.9695 179.237ZM90.6035 174.596C90.2254 174.888 89.7966 175.173 89.3455 175.473C87.9285 176.416 86.3273 177.482 86.0967 179.009C86.4126 178.763 86.7521 178.52 87.1094 178.265C88.4527 177.305 89.9691 176.222 90.6035 174.596ZM93.9883 177.751L93.9528 177.705C93.8663 177.592 93.7807 177.479 93.6959 177.365C93.3839 176.949 93.03 176.477 92.8985 176.531L92.8351 176.557L92.8294 176.489C92.7758 175.852 92.3769 175.475 91.9911 175.111C91.6659 174.804 91.3586 174.514 91.2694 174.089L91.2591 174.041L91.3078 174.03C92.7522 173.717 94.1855 174.181 94.7158 175.132C95.141 175.895 94.8969 176.81 94.0287 177.709L93.9883 177.751ZM92.9241 176.427C93.1128 176.433 93.3693 176.762 93.7763 177.305C93.8482 177.401 93.922 177.5 93.9967 177.597C94.799 176.746 95.0234 175.89 94.6281 175.181C94.133 174.293 92.7429 173.84 91.3791 174.118C91.4752 174.486 91.7596 174.755 92.0601 175.038C92.4488 175.405 92.8504 175.784 92.9241 176.427ZM106.32 177.327L106.213 177.326C103.428 177.295 101.493 175.301 99.7858 173.541C99.6493 173.401 99.5141 173.261 99.3794 173.124L99.2683 173.011L99.4243 173.039C100.408 173.222 105.577 176.404 106.253 177.244L106.319 177.327L106.32 177.327ZM99.5807 173.186C99.6726 173.281 99.765 173.376 99.8579 173.472C101.528 175.193 103.417 177.14 106.1 177.223C105.237 176.33 100.836 173.612 99.5807 173.186V173.186ZM86.8703 176.062V175.964C86.8683 174.446 88.9287 173.321 90.8577 172.774C93.0686 172.148 95.7229 172.098 96.338 173.099C96.6563 173.616 96.4074 174.324 95.5983 175.201L95.5652 175.237L95.5285 175.204C92.1248 172.229 90.5484 173.379 87.0945 175.899L86.8704 176.062H86.8703ZM93.9527 172.417C93.0014 172.417 91.8971 172.584 90.885 172.871C89.0352 173.395 87.0622 174.451 86.9737 175.863L87.0353 175.818C90.4157 173.352 92.1181 172.109 95.5575 175.097C96.2958 174.285 96.5361 173.612 96.2525 173.151C95.9369 172.638 95.0459 172.417 93.9527 172.417Z" fill="black"/>
<path d="M115.287 183.031C115.606 182.726 116.064 182.761 116.428 183.384C116.108 183.603 115.842 183.645 115.287 183.031Z" fill="black"/>
<path d="M116.047 183.581C115.83 183.581 115.588 183.439 115.25 183.065L115.217 183.029L115.252 182.995C115.412 182.843 115.604 182.773 115.794 182.8C116.044 182.835 116.278 183.028 116.472 183.359L116.495 183.4L116.456 183.426C116.318 183.521 116.188 183.581 116.047 183.581H116.047ZM115.358 183.035C115.869 183.586 116.106 183.535 116.361 183.369C116.189 183.091 115.989 182.928 115.78 182.899C115.633 182.878 115.488 182.925 115.358 183.035V183.035ZM118.016 182.798C117.846 182.941 116.815 182.615 117.317 182.17C117.65 181.985 117.898 182.233 118.016 182.798Z" fill="black"/>
<path d="M117.873 182.883C117.66 182.883 117.346 182.767 117.211 182.61C117.136 182.523 117.045 182.344 117.284 182.133L117.292 182.127C117.428 182.051 117.556 182.039 117.671 182.092C117.85 182.173 117.987 182.414 118.065 182.788L118.072 182.817L118.049 182.837C118.011 182.868 117.948 182.883 117.873 182.883V182.883ZM117.346 182.212C117.215 182.33 117.196 182.439 117.287 182.544C117.447 182.73 117.838 182.813 117.959 182.772C117.887 182.452 117.773 182.248 117.629 182.183C117.546 182.145 117.451 182.155 117.346 182.212V182.212ZM117.441 184.222C117.604 183.908 118.467 184.113 118.183 184.647C117.952 184.698 117.6 184.741 117.441 184.222Z" fill="black"/>
<path d="M117.964 184.726C117.765 184.726 117.517 184.643 117.393 184.237L117.387 184.217L117.397 184.199C117.45 184.095 117.571 184.031 117.727 184.024C117.935 184.015 118.144 184.11 118.235 184.254C118.288 184.338 118.33 184.478 118.227 184.67L118.217 184.69L118.194 184.695C118.14 184.707 118.057 184.726 117.964 184.726ZM117.496 184.228C117.631 184.642 117.887 184.657 118.149 184.602C118.203 184.49 118.203 184.391 118.15 184.308C118.077 184.192 117.905 184.117 117.731 184.124C117.622 184.129 117.537 184.167 117.496 184.228L117.496 184.228ZM114.288 185.039C114.642 184.602 115.522 185.613 114.768 185.628C114.495 185.496 114.441 185.46 114.288 185.039Z" fill="black"/>
<path d="M114.757 185.678L114.746 185.673C114.464 185.536 114.399 185.492 114.241 185.055L114.231 185.029L114.249 185.007C114.362 184.868 114.536 184.84 114.727 184.932C114.942 185.035 115.152 185.286 115.109 185.481C115.094 185.553 115.029 185.673 114.769 185.678L114.757 185.678ZM114.345 185.049C114.485 185.43 114.536 185.46 114.779 185.577C114.877 185.574 114.992 185.55 115.011 185.46C115.039 185.332 114.877 185.115 114.683 185.022C114.602 184.984 114.455 184.938 114.345 185.049ZM116.414 184.67C116.734 184.904 116.893 185.955 116.051 185.032L116.414 184.67Z" fill="black"/>
<path d="M116.557 185.456C116.431 185.456 116.252 185.328 116.014 185.066L115.981 185.031L116.409 184.604L116.444 184.63C116.627 184.764 116.749 185.118 116.716 185.303C116.698 185.407 116.637 185.439 116.603 185.449C116.588 185.454 116.572 185.456 116.557 185.456ZM116.12 185.034C116.428 185.362 116.545 185.361 116.575 185.353C116.596 185.347 116.61 185.324 116.617 185.285C116.642 185.144 116.55 184.866 116.417 184.738L116.12 185.034Z" fill="black"/>
</g>
<defs>
<clipPath id="clip0_5423_1624">
<rect width="73.3851" height="138.739" fill="white" transform="translate(145.874 62.1787)"/>
</clipPath>
<clipPath id="clip1_5423_1624">
<rect width="79.6093" height="83.0225" fill="white" transform="translate(47.7925 66.7959)"/>
</clipPath>
<clipPath id="clip2_5423_1624">
<rect width="113.34" height="66.157" fill="white" transform="translate(27.7144 156.344)"/>
</clipPath>
</defs>
</svg>
