<svg width="31" height="31" viewBox="0 0 31 31" fill="none" xmlns="http://www.w3.org/2000/svg">
<path fill-rule="evenodd" clip-rule="evenodd" d="M15.5 31C24.0604 31 31 24.0604 31 15.5C31 6.93959 24.0604 0 15.5 0C6.93959 0 0 6.93959 0 15.5C0 24.0604 6.93959 31 15.5 31ZM21.3844 21.12V19.755L20.2144 18.84C20.9194 17.865 21.3244 16.665 21.3244 15.375C21.3244 12.12 18.8194 9.585 15.4894 9.585C12.1894 9.585 9.66939 12.12 9.66939 15.375C9.66939 18.66 12.1894 21.21 15.4894 21.21C17.0794 21.21 18.4744 20.625 19.5094 19.65L21.3844 21.12ZM18.5644 18.915C17.7544 19.635 16.6894 20.07 15.4894 20.07C12.8794 20.07 10.9144 18.015 10.9144 15.375C10.9144 12.75 12.8794 10.71 15.4894 10.71C18.0994 10.71 20.0944 12.75 20.0944 15.375C20.0944 16.395 19.7944 17.34 19.2694 18.09L15.4294 15.075V16.47L18.5644 18.915Z" fill="#004351"/>
</svg>
