<svg width="135" height="23" viewBox="0 0 135 23" fill="none" xmlns="http://www.w3.org/2000/svg">
<path d="M102.318 12.4807V19.3984C102.318 19.3984 102.312 19.4042 102.306 19.4042H99.7857C99.7857 19.4042 99.7799 19.4042 99.7799 19.3926V13.0427C99.7857 10.9106 98.7081 9.6649 96.8946 9.6649C95.0175 9.6649 93.5574 11.1191 93.5574 13.4019V19.3926C93.5574 19.3926 93.5516 19.3984 93.5458 19.3984H91.0256C91.0256 19.3984 91.0198 19.3984 91.0198 19.3868V7.85726C91.0198 7.85726 91.0314 7.85146 91.0372 7.85146H93.43C93.43 7.85146 93.4358 7.85146 93.4358 7.86305V9.61855C93.4358 9.61855 93.4416 9.63014 93.4473 9.61855C94.0499 8.48877 95.5389 7.53281 97.3813 7.5386C100.4 7.5386 102.323 9.44474 102.318 12.4807Z" fill="currentColor"/>
<path d="M56.7323 7.50977C53.2503 7.50977 50.6257 10.2502 50.6257 13.6048C50.6257 17.0231 53.2155 19.7114 56.7208 19.7114C60.2491 19.7114 62.8679 17.0347 62.8679 13.6164C62.8679 10.2618 60.2549 7.50977 56.7265 7.50977H56.7323ZM56.7265 17.5156C54.5945 17.5156 53.0765 15.8006 53.0765 13.6048C53.0765 11.548 54.438 9.90838 56.3847 9.74036C58.6327 9.54337 60.4635 11.4437 60.423 13.7033C60.3824 15.9628 58.8702 17.5214 56.7265 17.5214V17.5156Z" fill="currentColor"/>
<path d="M81.906 7.52686C78.424 7.52686 75.7994 10.2673 75.7994 13.6219C75.7994 17.0402 78.3892 19.7285 81.8945 19.7285C85.4228 19.7285 88.0416 17.0518 88.0416 13.6335C88.0416 10.2789 85.4286 7.53265 81.9002 7.52686H81.906ZM81.8945 17.5327C79.7624 17.5327 78.2444 15.8177 78.2444 13.6219C78.2444 11.5651 79.6059 9.92547 81.5526 9.75745C83.8006 9.56046 85.6314 11.4608 85.5909 13.7204C85.5503 15.9799 84.0381 17.5384 81.8945 17.5327Z" fill="currentColor"/>
<path d="M116.999 17.5391C116.449 17.5391 115.904 17.1799 115.904 16.334V11.2645C115.904 8.90066 114.432 7.54492 111.078 7.54492C109.137 7.54492 107.173 8.19382 106.014 8.84851C106.014 8.84851 106.014 8.84851 106.014 8.85431V11.2413C106.014 11.2413 106.014 11.2529 106.026 11.2471C107.294 10.4708 109.27 9.73496 111.06 9.73496C112.874 9.73496 113.592 10.3259 113.592 11.0675C113.592 11.3398 113.505 11.5716 113.32 11.7628C112.752 12.3306 111.483 12.5217 110.133 12.7941C108.737 13.0895 107.242 13.4256 106.333 14.3352C105.805 14.8624 105.487 15.5403 105.487 16.5078C105.504 18.385 106.982 19.7408 109.114 19.7408C110.782 19.7408 112.179 19.0223 113.019 18.1185C113.285 17.8114 113.517 17.4812 113.662 17.151C113.662 17.1452 113.673 17.151 113.673 17.151C113.812 18.7211 114.942 19.7408 116.373 19.7408C116.918 19.7408 117.491 19.6133 117.868 19.3873C117.868 19.3873 117.868 19.3873 117.868 19.3815V17.3306C117.868 17.3306 117.868 17.319 117.856 17.3248C117.625 17.4464 117.352 17.5275 116.999 17.5275V17.5391ZM112.48 16.4383C111.721 17.1973 110.724 17.684 109.734 17.684C108.807 17.684 108.065 17.1567 108.065 16.3514C108.065 15.969 108.216 15.6735 108.447 15.4244C109.015 14.8566 110.157 14.6423 111.257 14.4337C111.738 14.341 112.213 14.2541 112.625 14.1324C113.158 13.976 113.621 14.509 113.418 15.0189C113.198 15.5635 112.874 16.0443 112.48 16.4383Z" fill="currentColor"/>
<path d="M128.725 7.73527V10.2729C128.725 10.2729 128.72 10.2845 128.714 10.2787C128.291 10.1107 127.769 9.98904 127.138 9.98324C125.133 9.98324 123.569 11.1652 123.569 13.4653V19.4097C123.569 19.4097 123.563 19.4155 123.557 19.4155H121.037C121.037 19.4155 121.031 19.4155 121.031 19.4039V7.87432C121.031 7.87432 121.043 7.86853 121.049 7.86853H123.441C123.441 7.86853 123.447 7.86853 123.447 7.88011V9.72252C123.447 9.72252 123.453 9.73411 123.459 9.72252C124.102 8.55219 125.591 7.55566 127.503 7.55566C127.92 7.55566 128.424 7.64257 128.72 7.72368C128.72 7.72368 128.72 7.72368 128.72 7.72948L128.725 7.73527Z" fill="currentColor"/>
<path d="M131.622 4.16052C131.622 3.2509 132.277 2.77002 133.314 2.77002C134.392 2.77002 135 3.25669 135 4.16631C135 5.0122 134.386 5.51625 133.308 5.51625C132.271 5.51625 131.622 5.0064 131.622 4.16631V4.16052Z" fill="currentColor"/>
<path d="M134.566 7.88037H132.045C132.042 7.88037 132.039 7.88297 132.039 7.88616V19.4215C132.039 19.4247 132.042 19.4273 132.045 19.4273H134.566C134.569 19.4273 134.571 19.4247 134.571 19.4215V7.88616C134.571 7.88297 134.569 7.88037 134.566 7.88037Z" fill="currentColor"/>
<path d="M48.1982 17.0695C47.8796 17.2375 47.2307 17.336 46.7961 17.336C45.6548 17.336 45.0232 16.6581 45.0232 15.4994V10.424V9.94315L48.0128 8.52948C48.0128 8.52948 48.0128 8.52369 48.0128 8.51789L47.0684 6.52484C47.0684 6.52484 47.0626 6.52484 47.0568 6.52484L45.0174 7.4924V4.45648C45.0174 4.45648 45.0174 4.45068 45.0117 4.45068H42.5377H42.5319V8.66853L39.5424 10.0822C39.5424 10.0822 39.5424 10.088 39.5424 10.0938L40.4867 12.0868C40.4867 12.0868 40.4925 12.0868 40.4983 12.0868L42.5377 11.1251V15.5051C42.5377 18.1471 44.0499 19.7056 46.5412 19.7114C47.1495 19.7114 47.8448 19.5839 48.204 19.3754C48.204 19.3754 48.204 19.3754 48.204 19.3696V17.0868C48.204 17.0868 48.204 17.0753 48.1924 17.081L48.1982 17.0695Z" fill="currentColor"/>
<path d="M73.3661 17.0695C73.0474 17.2375 72.3985 17.336 71.964 17.336C70.8226 17.336 70.1911 16.6581 70.1911 15.4994V10.424V9.94315L73.1807 8.52948C73.1807 8.52948 73.1807 8.52369 73.1807 8.51789L72.2363 6.52484C72.2363 6.52484 72.2305 6.52484 72.2247 6.52484L70.1853 7.4924V4.45648C70.1853 4.45648 70.1853 4.45068 70.1795 4.45068H67.7056H67.6998V8.66853L64.7102 10.0822C64.7102 10.0822 64.7102 10.088 64.7102 10.0938L65.6546 12.0868C65.6546 12.0868 65.6604 12.0868 65.6662 12.0868L67.7056 11.1251V15.5051C67.7056 18.1471 69.2177 19.7056 71.709 19.7114C72.3174 19.7114 73.0126 19.5839 73.3719 19.3754C73.3719 19.3754 73.3719 19.3754 73.3719 19.3696V17.0868C73.3719 17.0868 73.3719 17.0753 73.3603 17.081L73.3661 17.0695Z" fill="currentColor"/>
<path d="M7.67671 22.3419C6.36153 22.3419 5.30128 21.9364 4.5365 21.1311C3.30243 19.8448 3.29085 17.9908 3.31402 17.452V17.2666L3.32561 8.36165L0.816918 9.54357L0 7.83441L3.32561 6.26431V2.77648H5.22016V5.37787L13.6153 1.41495C14.4844 1.00359 15.4172 0.783429 16.3731 0.760254C17.3291 0.783429 18.2561 1.00938 19.1309 1.41495L27.5261 5.37787V2.77648H29.4148V6.2759L32.7462 7.846L31.9293 9.55516L29.4206 8.37323V17.2724L29.4322 17.4578C29.4554 17.9966 29.4438 19.8506 28.2097 21.1369C27.4392 21.9364 26.3847 22.3477 25.0695 22.3477C23.4878 22.3477 21.0834 21.5714 17.9201 20.0476C17.445 19.8159 16.9119 19.6942 16.3731 19.6826C15.8343 19.6942 15.3013 19.8159 14.8262 20.0476C11.6686 21.5714 9.2642 22.3477 7.67671 22.3477V22.3419ZM16.3731 6.71043C17.9027 6.75678 19.3106 7.34774 20.3418 8.37903C21.4137 9.45087 22.0046 10.9167 22.0046 12.4984C22.0046 14.0975 21.4195 15.5633 20.3476 16.6293C20.1796 16.7973 19.9884 16.9596 19.7914 17.1102C19.6813 17.2029 19.3337 17.5505 19.3975 18.0778C19.467 18.6282 19.9247 18.8773 20.0116 18.9236C22.2538 19.9202 23.9977 20.4474 25.0695 20.4474C25.8575 20.4474 26.4426 20.2446 26.8424 19.8217C27.5666 19.0685 27.5493 17.7997 27.5377 17.5505C27.5377 17.4462 27.5319 17.3535 27.5319 17.2666V9.34079C27.5261 8.20521 26.8598 7.15655 25.8343 6.66987L18.3256 3.1241C17.7115 2.83441 17.0568 2.67219 16.3789 2.64901C15.6953 2.67219 15.0406 2.83441 14.4264 3.1241L6.91773 6.66987C5.89224 7.15655 5.22596 8.20521 5.22596 9.34079V17.2666C5.22016 17.3535 5.22016 17.4462 5.21437 17.5505C5.20278 17.7997 5.1854 19.0627 5.90962 19.8217C6.31518 20.2446 6.89456 20.4474 7.68251 20.4474C8.75435 20.4474 10.5041 19.9202 12.7404 18.9236C12.8331 18.8773 13.2908 18.6282 13.3604 18.0778C13.4241 17.5505 13.0765 17.2087 12.9722 17.1102C12.7694 16.9538 12.5782 16.7915 12.4102 16.6235C11.3384 15.5575 10.7532 14.0917 10.7532 12.4926C10.7532 10.9109 11.3442 9.44508 12.416 8.37323C13.4473 7.34195 14.8552 6.75099 16.3847 6.70464L16.3731 6.71043ZM16.3673 8.61657C15.394 8.66292 14.5017 9.0511 13.8586 9.71159C13.1692 10.4242 12.7868 11.4092 12.7868 12.4926C12.7868 13.5876 13.1634 14.5841 13.8528 15.2968C14.4959 15.963 15.3882 16.3512 16.3731 16.3976C17.3639 16.3512 18.2561 15.963 18.8992 15.2968C19.5886 14.5841 19.9652 13.5876 19.9652 12.4926C19.9652 11.4092 19.5829 10.4184 18.8934 9.71159C18.2503 9.04531 17.3581 8.65713 16.3789 8.61657H16.3673Z" fill="currentColor"/>
</svg>
